#N canvas 107 47 1578 1032 10;
#X obj 18 -2 cnv 15 50 30 empty empty empty 20 12 0 14 -260097 -66577
0;
#X obj 101 46 cnv 15 80 630 empty empty empty 20 12 0 14 -257985 -66577
0;
#X obj 695 767 cnv 15 60 30 empty empty empty 20 12 0 14 -260097 -66577
0;
#X floatatom 23 4 5 0 255 0 - - -;
#X obj 22 50 / 2;
#X obj 53 50 % 2;
#X floatatom 106 71 5 0 0 0 - - -;
#X floatatom 22 90 5 0 0 0 - - -;
#X obj 22 70 i;
#X obj 22 134 / 2;
#X obj 22 155 i;
#X obj 55 132 % 2;
#X floatatom 110 158 5 0 0 0 - - -;
#X floatatom 22 174 5 0 0 0 - - -;
#X obj 23 221 / 2;
#X obj 50 221 % 2;
#X floatatom 106 243 5 0 0 0 - - -;
#X obj 23 241 i;
#X floatatom 22 261 5 0 0 0 - - -;
#X obj 22 302 / 2;
#X obj 49 302 % 2;
#X floatatom 106 325 5 0 0 0 - - -;
#X obj 22 324 i;
#X floatatom 21 346 5 0 0 0 - - -;
#X obj 21 385 / 2;
#X obj 48 385 % 2;
#X floatatom 105 406 5 0 0 0 - - -;
#X obj 21 405 i;
#X floatatom 21 425 5 0 0 0 - - -;
#X obj 21 463 / 2;
#X obj 48 463 % 2;
#X floatatom 105 483 5 0 0 0 - - -;
#X obj 21 482 i;
#X floatatom 20 502 5 0 0 0 - - -;
#X obj 20 540 / 2;
#X obj 47 540 % 2;
#X floatatom 104 560 5 0 0 0 - - -;
#X obj 20 559 i;
#X floatatom 21 581 5 0 0 0 - - -;
#X obj 48 617 % 2;
#X floatatom 105 639 5 0 0 0 - - -;
#X text 151 48 bit;
#X text 155 71 1;
#X text 157 159 2;
#X text 154 245 3;
#X text 154 325 4;
#X text 153 408 5;
#X text 152 482 6;
#X text 149 559 7;
#X text 152 639 8;
#X floatatom 554 56 5 0 0 0 - - -;
#X obj 504 3 * 2;
#X obj 504 30 pow 0;
#X floatatom 555 146 5 0 0 0 - - -;
#X obj 505 93 * 2;
#X floatatom 557 230 5 0 0 0 - - -;
#X obj 507 177 * 2;
#X floatatom 559 311 5 0 0 0 - - -;
#X obj 509 258 * 2;
#X floatatom 567 393 5 0 0 0 - - -;
#X obj 512 339 * 2;
#X floatatom 559 466 5 0 0 0 - - -;
#X obj 509 413 * 2;
#X floatatom 557 545 5 0 0 0 - - -;
#X obj 507 492 * 2;
#X floatatom 553 624 5 0 0 0 - - -;
#X obj 503 571 * 2;
#X obj 505 120 pow 1;
#X obj 507 204 pow 2;
#X obj 509 285 pow 3;
#X obj 512 366 pow 4;
#X obj 509 440 pow 5;
#X obj 507 519 pow 6;
#X obj 503 598 pow 7;
#X obj 594 189 +;
#X obj 593 265 +;
#X obj 593 335 +;
#X obj 605 419 +;
#X obj 599 487 +;
#X obj 595 568 +;
#X obj 600 642 +;
#X floatatom 701 773 5 0 0 0 - - -;
#X obj 23 31 t f f;
#X obj 22 197 t f f;
#X obj 22 281 t f f;
#X obj 21 365 t f f;
#X obj 21 443 t f f;
#X obj 21 520 t f f;
#X obj 22 110 t f f;
#X text 85 3 <--- scroll;
#X obj 1276 17 cnv 15 50 30 empty empty empty 20 12 0 14 -260097 -66577
0;
#X obj 1359 65 cnv 15 80 630 empty empty empty 20 12 0 14 -257985 -66577
0;
#X floatatom 1281 23 5 0 255 0 - - -;
#X obj 1280 69 / 2;
#X obj 1311 69 % 2;
#X floatatom 1364 90 5 0 0 0 - - -;
#X floatatom 1280 109 5 0 0 0 - - -;
#X obj 1280 89 i;
#X obj 1280 153 / 2;
#X obj 1280 174 i;
#X obj 1313 151 % 2;
#X floatatom 1368 177 5 0 0 0 - - -;
#X floatatom 1280 193 5 0 0 0 - - -;
#X obj 1281 240 / 2;
#X obj 1308 240 % 2;
#X floatatom 1364 262 5 0 0 0 - - -;
#X obj 1281 260 i;
#X floatatom 1280 280 5 0 0 0 - - -;
#X obj 1280 321 / 2;
#X obj 1307 321 % 2;
#X floatatom 1364 344 5 0 0 0 - - -;
#X obj 1280 343 i;
#X floatatom 1279 365 5 0 0 0 - - -;
#X obj 1279 404 / 2;
#X obj 1306 404 % 2;
#X floatatom 1363 425 5 0 0 0 - - -;
#X obj 1279 424 i;
#X floatatom 1279 444 5 0 0 0 - - -;
#X obj 1279 482 / 2;
#X obj 1306 482 % 2;
#X floatatom 1363 502 5 0 0 0 - - -;
#X obj 1279 501 i;
#X floatatom 1278 521 5 0 0 0 - - -;
#X obj 1278 559 / 2;
#X obj 1305 559 % 2;
#X floatatom 1362 579 5 0 0 0 - - -;
#X obj 1278 578 i;
#X floatatom 1279 600 5 0 0 0 - - -;
#X obj 1306 636 % 2;
#X floatatom 1363 658 5 0 0 0 - - -;
#X obj 1281 50 t f f;
#X obj 1280 216 t f f;
#X obj 1280 300 t f f;
#X obj 1279 384 t f f;
#X obj 1279 462 t f f;
#X obj 1279 539 t f f;
#X obj 1280 129 t f f;
#X text 1343 22 <--- scroll;
#X floatatom 739 58 5 0 0 0 - - -;
#X obj 689 5 * 2;
#X floatatom 740 148 5 0 0 0 - - -;
#X obj 690 95 * 2;
#X floatatom 742 232 5 0 0 0 - - -;
#X obj 692 179 * 2;
#X floatatom 744 313 5 0 0 0 - - -;
#X obj 694 260 * 2;
#X floatatom 752 395 5 0 0 0 - - -;
#X obj 697 341 * 2;
#X floatatom 744 468 5 0 0 0 - - -;
#X obj 694 415 * 2;
#X floatatom 742 547 5 0 0 0 - - -;
#X obj 692 494 * 2;
#X floatatom 738 626 5 0 0 0 - - -;
#X obj 688 573 * 2;
#X obj 779 191 +;
#X obj 778 267 +;
#X obj 778 337 +;
#X obj 790 421 +;
#X obj 784 489 +;
#X obj 780 570 +;
#X obj 785 644 +;
#X obj 689 32 pow 8;
#X obj 690 122 pow 9;
#X obj 692 206 pow 10;
#X obj 694 287 pow 11;
#X obj 697 368 pow 12;
#X obj 694 442 pow 13;
#X obj 692 521 pow 14;
#X obj 688 600 pow 15;
#X connect 3 0 82 0;
#X connect 4 0 8 0;
#X connect 5 0 6 0;
#X connect 6 0 51 0;
#X connect 7 0 88 0;
#X connect 8 0 7 0;
#X connect 9 0 10 0;
#X connect 10 0 13 0;
#X connect 11 0 12 0;
#X connect 12 0 54 0;
#X connect 13 0 83 0;
#X connect 14 0 17 0;
#X connect 15 0 16 0;
#X connect 16 0 56 0;
#X connect 17 0 18 0;
#X connect 18 0 84 0;
#X connect 19 0 22 0;
#X connect 20 0 21 0;
#X connect 21 0 58 0;
#X connect 22 0 23 0;
#X connect 23 0 85 0;
#X connect 24 0 27 0;
#X connect 25 0 26 0;
#X connect 26 0 60 0;
#X connect 27 0 28 0;
#X connect 28 0 86 0;
#X connect 29 0 32 0;
#X connect 30 0 31 0;
#X connect 31 0 62 0;
#X connect 32 0 33 0;
#X connect 33 0 87 0;
#X connect 34 0 37 0;
#X connect 35 0 36 0;
#X connect 36 0 64 0;
#X connect 37 0 38 0;
#X connect 38 0 39 0;
#X connect 39 0 40 0;
#X connect 40 0 66 0;
#X connect 50 0 74 1;
#X connect 51 0 52 0;
#X connect 52 0 50 0;
#X connect 53 0 74 0;
#X connect 54 0 67 0;
#X connect 55 0 75 0;
#X connect 56 0 68 0;
#X connect 57 0 76 0;
#X connect 58 0 69 0;
#X connect 59 0 77 0;
#X connect 60 0 70 0;
#X connect 61 0 78 0;
#X connect 62 0 71 0;
#X connect 63 0 79 0;
#X connect 64 0 72 0;
#X connect 65 0 80 0;
#X connect 66 0 73 0;
#X connect 67 0 53 0;
#X connect 68 0 55 0;
#X connect 69 0 57 0;
#X connect 70 0 59 0;
#X connect 71 0 61 0;
#X connect 72 0 63 0;
#X connect 73 0 65 0;
#X connect 74 0 75 1;
#X connect 75 0 76 1;
#X connect 76 0 77 1;
#X connect 77 0 78 1;
#X connect 78 0 79 1;
#X connect 79 0 80 1;
#X connect 80 0 139 1;
#X connect 82 0 4 0;
#X connect 82 1 5 0;
#X connect 83 0 14 0;
#X connect 83 1 15 0;
#X connect 84 0 19 0;
#X connect 84 1 20 0;
#X connect 85 0 24 0;
#X connect 85 1 25 0;
#X connect 86 0 29 0;
#X connect 86 1 30 0;
#X connect 87 0 34 0;
#X connect 87 1 35 0;
#X connect 88 0 9 0;
#X connect 88 1 11 0;
#X connect 92 0 130 0;
#X connect 93 0 97 0;
#X connect 94 0 95 0;
#X connect 95 0 139 0;
#X connect 96 0 136 0;
#X connect 97 0 96 0;
#X connect 98 0 99 0;
#X connect 99 0 102 0;
#X connect 100 0 101 0;
#X connect 101 0 141 0;
#X connect 102 0 131 0;
#X connect 103 0 106 0;
#X connect 104 0 105 0;
#X connect 105 0 143 0;
#X connect 106 0 107 0;
#X connect 107 0 132 0;
#X connect 108 0 111 0;
#X connect 109 0 110 0;
#X connect 110 0 145 0;
#X connect 111 0 112 0;
#X connect 112 0 133 0;
#X connect 113 0 116 0;
#X connect 114 0 115 0;
#X connect 115 0 147 0;
#X connect 116 0 117 0;
#X connect 117 0 134 0;
#X connect 118 0 121 0;
#X connect 119 0 120 0;
#X connect 120 0 149 0;
#X connect 121 0 122 0;
#X connect 122 0 135 0;
#X connect 123 0 126 0;
#X connect 124 0 125 0;
#X connect 125 0 151 0;
#X connect 126 0 127 0;
#X connect 127 0 128 0;
#X connect 128 0 129 0;
#X connect 129 0 153 0;
#X connect 130 0 93 0;
#X connect 130 1 94 0;
#X connect 131 0 103 0;
#X connect 131 1 104 0;
#X connect 132 0 108 0;
#X connect 132 1 109 0;
#X connect 133 0 113 0;
#X connect 133 1 114 0;
#X connect 134 0 118 0;
#X connect 134 1 119 0;
#X connect 135 0 123 0;
#X connect 135 1 124 0;
#X connect 136 0 98 0;
#X connect 136 1 100 0;
#X connect 138 0 154 1;
#X connect 139 0 161 0;
#X connect 140 0 154 0;
#X connect 141 0 162 0;
#X connect 142 0 155 0;
#X connect 143 0 163 0;
#X connect 144 0 156 0;
#X connect 145 0 164 0;
#X connect 146 0 157 0;
#X connect 147 0 165 0;
#X connect 148 0 158 0;
#X connect 149 0 166 0;
#X connect 150 0 159 0;
#X connect 151 0 167 0;
#X connect 152 0 160 0;
#X connect 153 0 168 0;
#X connect 154 0 155 1;
#X connect 155 0 156 1;
#X connect 156 0 157 1;
#X connect 157 0 158 1;
#X connect 158 0 159 1;
#X connect 159 0 160 1;
#X connect 160 0 81 0;
#X connect 161 0 138 0;
#X connect 162 0 140 0;
#X connect 163 0 142 0;
#X connect 164 0 144 0;
#X connect 165 0 146 0;
#X connect 166 0 148 0;
#X connect 167 0 150 0;
#X connect 168 0 152 0;
