#N canvas 46 65 838 661 10;
#X floatatom 43 33 5 0 255 0 - - -;
#X floatatom 43 166 5 0 0 0 - - -;
#X floatatom 93 166 5 0 0 0 - - -;
#X floatatom 143 166 5 0 0 0 - - -;
#X floatatom 193 166 5 0 0 0 - - -;
#X floatatom 243 166 5 0 0 0 - - -;
#X floatatom 293 166 5 0 0 0 - - -;
#X floatatom 343 166 5 0 0 0 - - -;
#X floatatom 393 166 5 0 0 0 - - -;
#X obj 393 108 mod 2;
#X obj 343 128 div 2;
#X obj 343 108 mod 4;
#X obj 293 108 mod 8;
#X obj 293 128 div 4;
#X obj 243 108 mod 16;
#X obj 243 128 div 8;
#X obj 193 108 mod 32;
#X obj 193 128 div 16;
#X obj 143 108 mod 64;
#X obj 143 128 div 32;
#X obj 93 128 div 64;
#X obj 93 108 mod 128;
#X obj 43 128 div 128;
#X obj 43 108 mod 256;
#X obj 43 76 int;
#X text 163 30 8-bit float to binary converter;
#X text 370 196 .mmb;
#X floatatom 447 28 5 0 255 0 - - -;
#X floatatom 447 161 5 0 0 0 - - -;
#X floatatom 497 161 5 0 0 0 - - -;
#X floatatom 547 161 5 0 0 0 - - -;
#X floatatom 597 161 5 0 0 0 - - -;
#X floatatom 647 161 5 0 0 0 - - -;
#X floatatom 697 161 5 0 0 0 - - -;
#X floatatom 747 161 5 0 0 0 - - -;
#X floatatom 797 161 5 0 0 0 - - -;
#X obj 797 103 mod 2;
#X obj 747 123 div 2;
#X obj 747 103 mod 4;
#X obj 697 103 mod 8;
#X obj 697 123 div 4;
#X obj 647 103 mod 16;
#X obj 647 123 div 8;
#X obj 597 103 mod 32;
#X obj 597 123 div 16;
#X obj 547 103 mod 64;
#X obj 547 123 div 32;
#X obj 497 123 div 64;
#X obj 497 103 mod 128;
#X obj 447 123 div 128;
#X obj 447 103 mod 256;
#X obj 447 71 int;
#X text 567 25 8-bit float to binary converter;
#X obj 294 251 pack f f f f f f f f f f f f f f f f;
#X floatatom 292 315 5 0 0 0 - - -;
#X floatatom 358 314 5 0 0 0 - - -;
#X obj 294 282 unpack f;
#X connect 0 0 24 0;
#X connect 1 0 53 0;
#X connect 2 0 53 1;
#X connect 3 0 53 2;
#X connect 4 0 53 3;
#X connect 5 0 53 4;
#X connect 6 0 53 5;
#X connect 7 0 53 6;
#X connect 8 0 53 7;
#X connect 9 0 8 0;
#X connect 10 0 7 0;
#X connect 11 0 10 0;
#X connect 11 0 9 0;
#X connect 12 0 11 0;
#X connect 12 0 13 0;
#X connect 13 0 6 0;
#X connect 14 0 12 0;
#X connect 14 0 15 0;
#X connect 15 0 5 0;
#X connect 16 0 14 0;
#X connect 16 0 17 0;
#X connect 17 0 4 0;
#X connect 18 0 16 0;
#X connect 18 0 19 0;
#X connect 19 0 3 0;
#X connect 20 0 2 0;
#X connect 21 0 18 0;
#X connect 21 0 20 0;
#X connect 22 0 1 0;
#X connect 23 0 21 0;
#X connect 23 0 22 0;
#X connect 24 0 23 0;
#X connect 27 0 51 0;
#X connect 28 0 53 8;
#X connect 29 0 53 9;
#X connect 30 0 53 10;
#X connect 31 0 53 11;
#X connect 32 0 53 12;
#X connect 33 0 53 13;
#X connect 34 0 53 14;
#X connect 35 0 53 15;
#X connect 36 0 35 0;
#X connect 37 0 34 0;
#X connect 38 0 37 0;
#X connect 38 0 36 0;
#X connect 39 0 38 0;
#X connect 39 0 40 0;
#X connect 40 0 33 0;
#X connect 41 0 39 0;
#X connect 41 0 42 0;
#X connect 42 0 32 0;
#X connect 43 0 41 0;
#X connect 43 0 44 0;
#X connect 44 0 31 0;
#X connect 45 0 43 0;
#X connect 45 0 46 0;
#X connect 46 0 30 0;
#X connect 47 0 29 0;
#X connect 48 0 45 0;
#X connect 48 0 47 0;
#X connect 49 0 28 0;
#X connect 50 0 48 0;
#X connect 50 0 49 0;
#X connect 51 0 50 0;
#X connect 53 0 56 0;
#X connect 56 0 54 0;
