#N canvas 862 327 457 498 10;
#X obj 77 135 f;
#X obj 115 134 + 1;
#X msg 77 74 bang;
#X floatatom 40 135 5 0 0 0 - - -;
#X obj 77 99 metro 3000;
#X msg 123 74 stop;
#X floatatom 39 99 5 0 0 0 - - -;
#X obj 113 280 bng 15 250 50 0 empty empty empty 17 7 0 10 -262144
-1 -1;
#X obj 91 382 bng 15 250 50 0 empty empty empty 17 7 0 10 -262144 -1
-1;
#X obj 123 183 bng 15 250 50 0 empty empty empty 17 7 0 10 -262144
-1 -1;
#X obj 101 329 bng 15 250 50 0 empty empty empty 17 7 0 10 -262144
-1 -1;
#X obj 119 233 bng 15 250 50 0 empty empty empty 17 7 0 10 -262144
-1 -1;
#X obj 123 166 select 30;
#X obj 119 215 select 60;
#X obj 113 263 select 90;
#X obj 101 312 select 120;
#X obj 91 365 select 150;
#X obj 77 417 select 180;
#X obj 77 434 bng 15 250 50 0 empty empty empty 17 7 0 10 -262144 -1
-1;
#X obj 138 182 s on1;
#X obj 134 231 s on2;
#X obj 128 278 s on3;
#X obj 116 328 s on4;
#X obj 106 381 s on5;
#X obj 92 433 s on6;
#X obj 77 48 r user;
#X obj 157 47 r lost;
#X msg 157 98 0;
#X obj 278 222 line;
#X msg 278 198 1000 1000;
#X obj 278 174 r on1;
#X obj 279 294 line;
#X msg 279 270 1000 1000;
#X obj 279 365 line;
#X msg 279 341 1000 1000;
#X obj 361 220 line;
#X msg 361 196 1000 1000;
#X obj 279 246 r on2;
#X obj 279 317 r on3;
#X obj 361 172 r on4;
#X obj 363 298 line;
#X msg 363 274 1000 1000;
#X obj 363 250 r on5;
#X obj 365 373 line;
#X msg 365 349 1000 1000;
#X obj 365 325 r on6;
#X connect 0 0 1 0;
#X connect 0 0 3 0;
#X connect 0 0 12 0;
#X connect 0 0 13 0;
#X connect 0 0 14 0;
#X connect 0 0 15 0;
#X connect 0 0 16 0;
#X connect 0 0 17 0;
#X connect 1 0 0 1;
#X connect 2 0 4 0;
#X connect 4 0 6 0;
#X connect 4 0 0 0;
#X connect 5 0 4 0;
#X connect 7 0 21 0;
#X connect 8 0 23 0;
#X connect 9 0 19 0;
#X connect 10 0 22 0;
#X connect 11 0 20 0;
#X connect 12 0 9 0;
#X connect 13 0 11 0;
#X connect 14 0 7 0;
#X connect 15 0 10 0;
#X connect 16 0 8 0;
#X connect 17 0 18 0;
#X connect 18 0 24 0;
#X connect 25 0 2 0;
#X connect 26 0 27 0;
#X connect 26 0 5 0;
#X connect 27 0 0 1;
#X connect 29 0 28 0;
#X connect 30 0 29 0;
#X connect 32 0 31 0;
#X connect 34 0 33 0;
#X connect 36 0 35 0;
#X connect 37 0 32 0;
#X connect 38 0 34 0;
#X connect 39 0 36 0;
#X connect 41 0 40 0;
#X connect 42 0 41 0;
#X connect 44 0 43 0;
#X connect 45 0 44 0;
