#N canvas 365 48 824 950 10;
#N canvas 355 191 450 300 recursive 0;
#N canvas 356 373 1090 446 recorder 0;
#X obj 70 239 writesf~;
#X msg 71 122 open rec1.wav \, start;
#X msg 254 124 stop;
#X obj 272 69 t b b;
#X obj 314 192 readsf~;
#X msg 314 153 open rec1.wav \, start;
#X obj 503 249 writesf~;
#X msg 696 131 stop;
#X obj 705 63 t b b;
#X obj 756 199 readsf~;
#X msg 513 129 open rec2.wav \, start;
#X msg 756 160 open rec2.wav \, start;
#X obj 486 346 outlet~;
#X obj 24 19 inlet~;
#X obj 272 31 inlet;
#X obj 213 23 inlet;
#X obj 813 247 del 200;
#X obj 808 228 bng 15 250 50 0 empty empty empty 0 -6 0 8 -262144 -1
-1;
#X obj 297 306 del 200;
#X obj 292 287 bng 15 250 50 0 empty empty empty 0 -6 0 8 -262144 -1
-1;
#X obj 546 346 outlet~;
#X connect 1 0 0 0;
#X connect 2 0 0 0;
#X connect 3 0 5 0;
#X connect 3 0 10 0;
#X connect 3 1 2 0;
#X connect 4 0 12 0;
#X connect 4 1 19 0;
#X connect 5 0 4 0;
#X connect 7 0 6 0;
#X connect 8 0 11 0;
#X connect 8 0 1 0;
#X connect 8 1 7 0;
#X connect 9 0 20 0;
#X connect 9 1 17 0;
#X connect 10 0 6 0;
#X connect 11 0 9 0;
#X connect 13 0 0 0;
#X connect 13 0 6 0;
#X connect 14 0 3 0;
#X connect 15 0 1 0;
#X connect 16 0 3 0;
#X connect 17 0 16 0;
#X connect 18 0 8 0;
#X connect 19 0 18 0;
#X restore 30 162 pd recorder;
#X obj 30 80 inlet~;
#X obj 30 192 outlet~;
#X obj 61 102 inlet;
#X obj 93 123 inlet;
#X obj 61 147 bng 15 250 50 0 empty empty empty 17 7 0 10 -262144 -1
-1;
#X obj 93 147 bng 15 250 50 0 empty empty empty 17 7 0 10 -262144 -1
-1;
#X obj 93 191 outlet~;
#X connect 0 0 2 0;
#X connect 0 1 7 0;
#X connect 1 0 0 0;
#X connect 3 0 5 0;
#X connect 4 0 6 0;
#X connect 5 0 0 1;
#X connect 6 0 0 2;
#X restore 146 718 pd recursive;
#N canvas 533 512 469 367 chaoticFM 0;
#X obj 68 199 osc~;
#X obj 53 249 s~ \$0-osc1;
#X obj 69 145 +~ 60;
#X obj 68 169 mtof~;
#X obj 268 190 osc~;
#X obj 269 141 +~ 60;
#X obj 268 165 mtof~;
#X obj 268 253 s~ \$0-osc2;
#X floatatom 297 38 5 0 0 0 - - -;
#X obj 172 65 line~;
#X obj 70 122 *~;
#X obj 269 118 *~;
#X obj 172 18 inlet;
#X obj 53 17 inlet~;
#X obj 70 68 r~ \$0-osc1;
#X obj 269 64 r~ \$0-osc1;
#X text 47 0 phasevoc;
#X obj 79 312 outlet~;
#X obj 136 312 outlet~;
#X obj 190 312 outlet~;
#X obj 247 312 outlet~;
#X text 126 331 L;
#X text 239 330 R;
#X obj 297 15 inlet;
#X obj 53 222 +~;
#X obj 268 222 +~;
#X msg 172 42 0 \, 50 2000;
#X connect 0 0 24 1;
#X connect 2 0 3 0;
#X connect 3 0 0 0;
#X connect 4 0 25 0;
#X connect 5 0 6 0;
#X connect 6 0 4 0;
#X connect 8 0 2 1;
#X connect 8 0 5 1;
#X connect 9 0 10 1;
#X connect 9 0 11 1;
#X connect 10 0 2 0;
#X connect 11 0 5 0;
#X connect 12 0 26 0;
#X connect 13 0 24 0;
#X connect 13 0 25 1;
#X connect 14 0 10 0;
#X connect 14 0 18 0;
#X connect 15 0 11 0;
#X connect 15 0 19 0;
#X connect 23 0 8 0;
#X connect 24 0 1 0;
#X connect 24 0 17 0;
#X connect 25 0 7 0;
#X connect 25 0 20 0;
#X connect 26 0 9 0;
#X restore -287 602 pd chaoticFM;
#X obj -287 647 line_ramp;
#X obj -110 562 bng 15 250 50 0 empty empty empty 17 7 0 10 -228856
-1 -1;
#X obj -218 577 random 30 100;
#X obj 30 577 r user1;
#X obj 30 599 r user2;
#X obj -108 693 bng 15 250 50 0 empty empty empty 17 7 0 10 -228856
-1 -1;
#X obj 49 679 f;
#X obj 94 678 + 1;
#X floatatom 62 725 5 0 0 0 - - -;
#X obj 30 655 tgl 15 0 empty empty empty 17 7 0 10 -262144 -1 -1 0
1;
#X obj 94 701 mod 10;
#X obj 49 655 metro 2000;
#X obj 49 701 mod 5;
#X obj 146 626 inlet~;
#X text -288 535 receive a samples;
#X obj 73 750 throw~ rec;
#X obj -287 556 catch~ rec;
#X obj 311 735 bng 15 250 50 0 empty empty empty 17 7 0 10 -128992
-1 -1;
#X obj 287 735 bng 15 250 50 0 empty empty empty 17 7 0 10 -128992
-1 -1;
#X obj 146 799 dac~ 1 2 3 4;
#X obj -286 795 dac~ 1 2 3 4;
#X obj -263 668 line_ramp;
#X obj -240 688 line_ramp;
#X obj -217 708 line_ramp;
#X obj 146 750 line_ramp;
#X obj 215 750 line_ramp;
#N canvas 0 22 761 773 counting 0;
#X obj -100 28 r lost;
#X obj -100 58 bng 15 250 50 0 empty empty empty 17 7 0 10 -262144
-1 -1;
#X obj -100 123 counter;
#X floatatom -136 123 5 0 0 0 - - -;
#X obj -81 103 bng 15 250 50 0 empty empty empty 17 7 0 10 -262144
-1 -1;
#X obj -88 182 s reset;
#X obj -81 80 r reset;
#X obj 222 276 bng 15 250 50 0 empty empty empty 17 7 0 10 -262144
-1 -1;
#X obj -86 286 bng 15 250 50 0 empty empty empty 17 7 0 10 -262144
-1 -1;
#X obj -100 225 sel 1 3 5 7 8 9 11 1 15 17 19 22 24 26 28 30 32 35
38 40 42 44 46 49 50;
#X obj -72 303 bng 15 250 50 0 empty empty empty 17 7 0 10 -262144
-1 -1;
#X obj -58 321 bng 15 250 50 0 empty empty empty 17 7 0 10 -262144
-1 -1;
#X obj -44 339 bng 15 250 50 0 empty empty empty 17 7 0 10 -262144
-1 -1;
#X obj -30 358 bng 15 250 50 0 empty empty empty 17 7 0 10 -262144
-1 -1;
#X obj -16 375 bng 15 250 50 0 empty empty empty 17 7 0 10 -262144
-1 -1;
#X obj -2 392 bng 15 250 50 0 empty empty empty 17 7 0 10 -262144 -1
-1;
#X obj 12 408 bng 15 250 50 0 empty empty empty 17 7 0 10 -262144 -1
-1;
#X obj 26 426 bng 15 250 50 0 empty empty empty 17 7 0 10 -262144 -1
-1;
#X obj 40 444 bng 15 250 50 0 empty empty empty 17 7 0 10 -262144 -1
-1;
#X obj 54 462 bng 15 250 50 0 empty empty empty 17 7 0 10 -262144 -1
-1;
#X obj 68 479 bng 15 250 50 0 empty empty empty 17 7 0 10 -262144 -1
-1;
#X obj 80 463 bng 15 250 50 0 empty empty empty 17 7 0 10 -262144 -1
-1;
#X obj 94 448 bng 15 250 50 0 empty empty empty 17 7 0 10 -262144 -1
-1;
#X obj 108 430 bng 15 250 50 0 empty empty empty 17 7 0 10 -262144
-1 -1;
#X obj 122 410 bng 15 250 50 0 empty empty empty 17 7 0 10 -262144
-1 -1;
#X obj 135 390 bng 15 250 50 0 empty empty empty 17 7 0 10 -262144
-1 -1;
#X obj 149 371 bng 15 250 50 0 empty empty empty 17 7 0 10 -262144
-1 -1;
#X obj 166 352 bng 15 250 50 0 empty empty empty 17 7 0 10 -262144
-1 -1;
#X obj 180 331 bng 15 250 50 0 empty empty empty 17 7 0 10 -262144
-1 -1;
#X obj 194 314 bng 15 250 50 0 empty empty empty 17 7 0 10 -262144
-1 -1;
#X obj 207 295 bng 15 250 50 0 empty empty empty 17 7 0 10 -262144
-1 -1;
#X obj -100 477 bng 15 250 50 0 empty empty empty 17 7 0 10 -228856
-1 -1;
#X obj 250 478 bng 15 250 50 0 empty empty empty 17 7 0 10 -228856
-1 -1;
#X obj 236 260 bng 15 250 50 0 empty empty empty 17 7 0 10 -262144
-1 -1;
#X obj -100 542 bng 15 250 50 0 empty empty empty 17 7 0 10 -228856
-1 -1;
#X obj 262 240 bng 15 250 50 0 empty empty empty 17 7 0 10 -262144
-1 -1;
#X obj -88 159 select 55;
#X obj -77 477 bng 15 250 50 0 empty empty empty 17 7 0 10 -128992
-1 -1;
#X obj 225 478 bng 15 250 50 0 empty empty empty 17 7 0 10 -128992
-1 -1;
#X obj 226 545 bng 15 250 50 0 empty empty empty 17 7 0 10 -128992
-1 -1;
#X obj -159 28 loadbang;
#X obj -146 542 outlet;
#X obj 247 544 outlet;
#X connect 0 0 1 0;
#X connect 1 0 2 0;
#X connect 2 0 3 0;
#X connect 2 0 9 0;
#X connect 2 0 36 0;
#X connect 4 0 2 2;
#X connect 6 0 4 0;
#X connect 7 0 32 0;
#X connect 8 0 31 0;
#X connect 9 1 8 0;
#X connect 9 2 10 0;
#X connect 9 3 11 0;
#X connect 9 4 12 0;
#X connect 9 5 13 0;
#X connect 9 6 14 0;
#X connect 9 7 15 0;
#X connect 9 8 16 0;
#X connect 9 9 17 0;
#X connect 9 10 18 0;
#X connect 9 11 19 0;
#X connect 9 12 20 0;
#X connect 9 13 21 0;
#X connect 9 14 22 0;
#X connect 9 15 23 0;
#X connect 9 16 24 0;
#X connect 9 17 25 0;
#X connect 9 18 26 0;
#X connect 9 19 27 0;
#X connect 9 20 28 0;
#X connect 9 21 29 0;
#X connect 9 22 30 0;
#X connect 9 23 7 0;
#X connect 9 24 33 0;
#X connect 9 25 35 0;
#X connect 10 0 37 0;
#X connect 11 0 31 0;
#X connect 12 0 31 0;
#X connect 13 0 37 0;
#X connect 14 0 31 0;
#X connect 15 0 37 0;
#X connect 16 0 31 0;
#X connect 17 0 31 0;
#X connect 18 0 37 0;
#X connect 19 0 31 0;
#X connect 20 0 34 0;
#X connect 21 0 38 0;
#X connect 22 0 32 0;
#X connect 23 0 38 0;
#X connect 24 0 32 0;
#X connect 25 0 38 0;
#X connect 26 0 32 0;
#X connect 27 0 32 0;
#X connect 28 0 38 0;
#X connect 29 0 32 0;
#X connect 30 0 38 0;
#X connect 31 0 34 0;
#X connect 32 0 34 0;
#X connect 33 0 32 0;
#X connect 34 0 41 0;
#X connect 36 0 5 0;
#X connect 37 0 39 0;
#X connect 38 0 39 0;
#X connect 39 0 42 0;
#X connect 40 0 2 0;
#X restore 406 247 pd counting;
#X obj 216 535 bng 15 250 50 0 empty empty empty 17 7 0 10 -128992
-1 -1;
#N canvas 0 22 450 300 inactive_1 0;
#N canvas 533 512 469 367 chaoticFM 0;
#X obj 68 199 osc~;
#X obj 53 249 s~ \$0-osc1;
#X obj 69 145 +~ 60;
#X obj 68 169 mtof~;
#X obj 268 190 osc~;
#X obj 269 141 +~ 60;
#X obj 268 165 mtof~;
#X obj 268 253 s~ \$0-osc2;
#X floatatom 297 38 5 0 0 0 - - -;
#X obj 172 65 line~;
#X obj 70 122 *~;
#X obj 269 118 *~;
#X obj 172 18 inlet;
#X obj 53 17 inlet~;
#X obj 70 68 r~ \$0-osc1;
#X obj 269 64 r~ \$0-osc1;
#X text 47 0 phasevoc;
#X obj 79 312 outlet~;
#X obj 136 312 outlet~;
#X obj 190 312 outlet~;
#X obj 247 312 outlet~;
#X text 126 331 L;
#X text 239 330 R;
#X obj 297 15 inlet;
#X obj 53 222 +~;
#X obj 268 222 +~;
#X msg 172 42 0 \, 50 2000;
#X connect 0 0 24 1;
#X connect 2 0 3 0;
#X connect 3 0 0 0;
#X connect 4 0 25 0;
#X connect 5 0 6 0;
#X connect 6 0 4 0;
#X connect 8 0 2 1;
#X connect 8 0 5 1;
#X connect 9 0 10 1;
#X connect 9 0 11 1;
#X connect 10 0 2 0;
#X connect 11 0 5 0;
#X connect 12 0 26 0;
#X connect 13 0 24 0;
#X connect 13 0 25 1;
#X connect 14 0 10 0;
#X connect 14 0 18 0;
#X connect 15 0 11 0;
#X connect 15 0 19 0;
#X connect 23 0 8 0;
#X connect 24 0 1 0;
#X connect 24 0 17 0;
#X connect 25 0 7 0;
#X connect 25 0 20 0;
#X connect 26 0 9 0;
#X restore -262 -123 pd chaoticFM;
#X obj -262 -78 line_ramp;
#X obj -85 -163 bng 15 250 50 0 empty empty empty 17 7 0 10 -228856
-1 -1;
#X obj -193 -148 random 30 100;
#X obj -71 -32 bng 15 250 50 0 empty empty empty 17 7 0 10 -228856
-1 -1;
#X text -263 -190 receive a samples;
#X obj -262 -169 catch~ rec;
#X obj -261 70 dac~ 1 2 3 4;
#X obj -238 -57 line_ramp;
#X obj -215 -37 line_ramp;
#X obj -192 -17 line_ramp;
#X obj -71 -55 inlet;
#X obj -85 -185 inlet;
#X connect 0 0 1 0;
#X connect 0 1 8 0;
#X connect 0 2 9 0;
#X connect 0 3 10 0;
#X connect 2 0 1 1;
#X connect 2 0 0 1;
#X connect 2 0 3 0;
#X connect 2 0 8 1;
#X connect 2 0 9 1;
#X connect 2 0 10 1;
#X connect 3 0 0 2;
#X connect 4 0 1 2;
#X connect 4 0 8 2;
#X connect 4 0 9 2;
#X connect 4 0 10 2;
#X connect 6 0 0 0;
#X connect 11 0 4 0;
#X connect 12 0 2 0;
#X restore 146 455 pd inactive_1;
#X obj 258 397 r user1;
#X obj 258 419 r user2;
#N canvas 203 87 602 443 inactive_2 1;
#N canvas 355 191 450 300 recursive 0;
#N canvas 356 373 1090 446 recorder 0;
#X obj 70 239 writesf~;
#X msg 71 122 open rec1.wav \, start;
#X msg 254 124 stop;
#X obj 272 69 t b b;
#X obj 314 192 readsf~;
#X msg 314 153 open rec1.wav \, start;
#X obj 503 249 writesf~;
#X msg 696 131 stop;
#X obj 705 63 t b b;
#X obj 756 199 readsf~;
#X msg 513 129 open rec2.wav \, start;
#X msg 756 160 open rec2.wav \, start;
#X obj 486 346 outlet~;
#X obj 24 19 inlet~;
#X obj 272 31 inlet;
#X obj 213 23 inlet;
#X obj 813 247 del 200;
#X obj 808 228 bng 15 250 50 0 empty empty empty 0 -6 0 8 -262144 -1
-1;
#X obj 297 306 del 200;
#X obj 292 287 bng 15 250 50 0 empty empty empty 0 -6 0 8 -262144 -1
-1;
#X obj 546 346 outlet~;
#X connect 1 0 0 0;
#X connect 2 0 0 0;
#X connect 3 0 5 0;
#X connect 3 0 10 0;
#X connect 3 1 2 0;
#X connect 4 0 12 0;
#X connect 4 1 19 0;
#X connect 5 0 4 0;
#X connect 7 0 6 0;
#X connect 8 0 11 0;
#X connect 8 0 1 0;
#X connect 8 1 7 0;
#X connect 9 0 20 0;
#X connect 9 1 17 0;
#X connect 10 0 6 0;
#X connect 11 0 9 0;
#X connect 13 0 0 0;
#X connect 13 0 6 0;
#X connect 14 0 3 0;
#X connect 15 0 1 0;
#X connect 16 0 3 0;
#X connect 17 0 16 0;
#X connect 18 0 8 0;
#X connect 19 0 18 0;
#X restore 30 162 pd recorder;
#X obj 30 80 inlet~;
#X obj 30 192 outlet~;
#X obj 61 102 inlet;
#X obj 93 123 inlet;
#X obj 61 147 bng 15 250 50 0 empty empty empty 17 7 0 10 -262144 -1
-1;
#X obj 93 147 bng 15 250 50 0 empty empty empty 17 7 0 10 -262144 -1
-1;
#X obj 93 191 outlet~;
#X connect 0 0 2 0;
#X connect 0 1 7 0;
#X connect 1 0 0 0;
#X connect 3 0 5 0;
#X connect 4 0 6 0;
#X connect 5 0 0 1;
#X connect 6 0 0 2;
#X restore 245 67 pd recursive;
#X obj 148 28 f;
#X obj 193 27 + 1;
#X floatatom 161 74 5 0 0 0 - - -;
#X obj 129 4 tgl 15 0 empty empty empty 17 7 0 10 -262144 -1 -1 0 1
;
#X obj 193 50 mod 10;
#X obj 148 4 metro 2000;
#X obj 148 50 mod 5;
#X obj 245 -25 inlet~;
#X obj 172 99 throw~ rec;
#X obj 410 84 bng 15 250 50 0 empty empty empty 17 7 0 10 -128992 -1
-1;
#X obj 386 84 bng 15 250 50 0 empty empty empty 17 7 0 10 -128992 -1
-1;
#X obj 245 148 dac~ 1 2 3 4;
#X obj 245 99 line_ramp;
#X obj 314 99 line_ramp;
#X obj 315 -116 bng 15 250 50 0 empty empty empty 17 7 0 10 -128992
-1 -1;
#X obj 129 -74 inlet;
#X obj 315 -140 inlet;
#X connect 0 0 9 0;
#X connect 0 0 13 0;
#X connect 0 1 14 0;
#X connect 1 0 2 0;
#X connect 1 0 7 0;
#X connect 2 0 5 0;
#X connect 4 0 6 0;
#X connect 5 0 1 1;
#X connect 6 0 1 0;
#X connect 7 0 3 0;
#X connect 7 0 0 1;
#X connect 8 0 0 0;
#X connect 10 0 13 2;
#X connect 10 0 14 2;
#X connect 11 0 13 1;
#X connect 11 0 14 1;
#X connect 13 0 12 0;
#X connect 13 0 12 3;
#X connect 14 0 12 1;
#X connect 14 0 12 2;
#X connect 15 0 0 2;
#X connect 15 0 11 0;
#X connect 16 0 4 0;
#X connect 16 0 10 0;
#X connect 17 0 15 0;
#X restore 363 465 pd inactive_2;
#X connect 0 0 17 0;
#X connect 0 0 26 0;
#X connect 0 1 27 0;
#X connect 1 0 2 0;
#X connect 1 1 23 0;
#X connect 1 2 24 0;
#X connect 1 3 25 0;
#X connect 3 0 2 1;
#X connect 3 0 1 1;
#X connect 3 0 4 0;
#X connect 3 0 23 1;
#X connect 3 0 24 1;
#X connect 3 0 25 1;
#X connect 4 0 1 2;
#X connect 5 0 7 0;
#X connect 5 0 11 0;
#X connect 5 0 19 0;
#X connect 6 0 7 0;
#X connect 6 0 11 0;
#X connect 6 0 19 0;
#X connect 7 0 2 2;
#X connect 7 0 23 2;
#X connect 7 0 24 2;
#X connect 7 0 25 2;
#X connect 8 0 9 0;
#X connect 8 0 14 0;
#X connect 9 0 12 0;
#X connect 11 0 13 0;
#X connect 12 0 8 1;
#X connect 13 0 8 0;
#X connect 14 0 10 0;
#X connect 14 0 0 1;
#X connect 15 0 0 0;
#X connect 18 0 1 0;
#X connect 19 0 26 2;
#X connect 19 0 27 2;
#X connect 20 0 26 1;
#X connect 20 0 27 1;
#X connect 26 0 21 0;
#X connect 26 0 21 3;
#X connect 27 0 21 1;
#X connect 27 0 21 2;
#X connect 28 0 30 0;
#X connect 29 0 0 2;
#X connect 29 0 20 0;
#X connect 31 0 30 1;
#X connect 32 0 30 1;
