#N canvas 200 22 761 693 10;
#X obj 110 116 grid grid1 200 0 199 200 0 199 1 1 1 10 10 309 315;
#X floatatom 110 368 5 0 0 0 - - -;
#X floatatom 303 368 5 0 0 0 - - -;
#X text 145 371 X value;
#X text 343 367 Y value;
#X floatatom 192 21 5 0 0 0 - - -;
#X floatatom 237 21 5 0 0 0 - - -;
#X obj 192 57 pack f f;
#X msg 111 56 goto \$1 \$2;
#X msg 192 -2 bang;
#X text 177 -36 X;
#X text 288 -32 Y;
#X msg 110 -1 bang;
#X msg -9 57 color 100 100 100;
#X obj 191 -35 inlet;
#X obj 236 -35 inlet;
#X obj 110 -19 loadbang;
#X obj 303 390 outlet;
#X obj 110 395 outlet;
#X text 67 114 0 \, 0;
#X text 324 113 1 \, 0;
#X text 328 301 1 \, 1;
#X text 65 302 0 \, 1;
#X connect 0 0 1 0;
#X connect 0 1 2 0;
#X connect 1 0 18 0;
#X connect 2 0 17 0;
#X connect 5 0 7 0;
#X connect 6 0 7 1;
#X connect 6 0 9 0;
#X connect 7 0 8 0;
#X connect 8 0 0 0;
#X connect 9 0 5 0;
#X connect 12 0 0 0;
#X connect 13 0 0 0;
#X connect 14 0 5 0;
#X connect 15 0 6 0;
#X connect 16 0 12 0;
#X connect 16 0 9 0;
#X connect 16 0 13 0;
#X coords 0 -1 1 1 220 220 1 100 100;
