#N canvas 155 22 318 340 10;
#X obj 20 20 bng 80 250 50 0 empty empty empty 17 7 0 10 -260097 -1
-1;
#X obj 20 118 r head;
#X floatatom 20 296 5 0 0 0 - - -;
#X floatatom 47 254 5 0 0 0 - - -;
#X floatatom 74 209 5 0 0 0 - - -;
#X floatatom 101 167 5 0 0 0 - - -;
#X obj 47 275 s headx;
#X obj 74 231 s heady;
#X obj 101 189 s headz;
#X obj 20 143 unpack f f f f;
#X floatatom 164 297 5 0 0 0 - - -;
#X floatatom 191 255 5 0 0 0 - - -;
#X floatatom 218 210 5 0 0 0 - - -;
#X floatatom 245 168 5 0 0 0 - - -;
#X obj 164 144 unpack f f f f;
#X obj 164 119 r head2;
#X obj 245 190 s headz2;
#X obj 218 232 s heady2;
#X obj 191 276 s headx2;
#X connect 1 0 9 0;
#X connect 3 0 6 0;
#X connect 4 0 7 0;
#X connect 5 0 8 0;
#X connect 9 0 2 0;
#X connect 9 1 3 0;
#X connect 9 2 4 0;
#X connect 9 3 5 0;
#X connect 11 0 18 0;
#X connect 12 0 17 0;
#X connect 13 0 16 0;
#X connect 14 0 10 0;
#X connect 14 1 11 0;
#X connect 14 2 12 0;
#X connect 14 3 13 0;
#X connect 15 0 14 0;
#X coords 0 -1 1 1 80 80 2 20 20;
