#N canvas 580 185 705 422 10;
#X msg 14 146 create;
#X obj 48 38 tgl 15 0 empty empty empty 17 7 0 10 -262144 -1 -1 0 1
;
#X obj 13 196 gemwin;
#X obj 214 223 fux_kinect;
#X obj 214 117 gemhead;
#X obj 214 245 pix_texture;
#X obj 214 268 rectangle 4 3;
#X msg 45 174 1;
#X msg 63 146 destroy;
#X floatatom 252 202 5 0 0 0 - - -;
#X floatatom 293 200 5 0 0 0 - - -;
#X msg 83 173 dimen 1024 768;
#X obj 252 157 loadbang;
#X msg 252 179 2048;
#X text 328 198 MIN (0-2048);
#X text 293 178 MAX (0-2048);
#X floatatom 233 140 5 0 0 0 - - -;
#X text 68 22 Kinect Elevation;
#X text 373 178 use this for easy background removal;
#X obj 31 38 bng 15 250 50 0 empty empty empty 17 7 0 10 -258113 -1
-1;
#X obj 14 38 bng 15 250 50 0 empty empty empty 17 7 0 10 -88780 -1
-1;
#X obj 74 38 hsl 128 15 -30 30 0 0 empty empty empty -2 -8 0 10 -191407
-1 -1 0 1;
#X floatatom 213 39 5 0 0 0 - - -;
#X floatatom 248 39 5 0 0 0 - - -;
#X text 211 24 Background removal;
#X text 73 37 -30;
#X text 137 37 0;
#X text 186 37 30;
#X obj 354 17 cnv 15 320 50 empty empty empty 20 12 0 14 -233017 -66577
0;
#X connect 0 0 2 0;
#X connect 1 0 2 0;
#X connect 3 0 5 0;
#X connect 4 0 3 0;
#X connect 5 0 6 0;
#X connect 7 0 1 0;
#X connect 8 0 2 0;
#X connect 9 0 3 2;
#X connect 10 0 3 3;
#X connect 11 0 2 0;
#X connect 12 0 13 0;
#X connect 13 0 9 0;
#X connect 16 0 3 1;
#X connect 19 0 8 0;
#X connect 20 0 0 0;
#X connect 21 0 16 0;
#X connect 22 0 9 0;
#X connect 23 0 10 0;
#X coords 0 -1 1 1 320 50 1 10 10;
