#N canvas 0 22 327 284 10;
#X obj 22 96 unpack f f f f;
#X floatatom 22 249 5 0 0 0 - - -;
#X floatatom 49 207 5 0 0 0 - - -;
#X floatatom 76 162 5 0 0 0 - - -;
#X floatatom 103 120 5 0 0 0 - - -;
#X obj 22 71 r l_elbow;
#X obj 49 228 s lelbowx;
#X obj 76 185 s lelbowy;
#X obj 103 141 s lelbowz;
#X obj 170 96 unpack f f f f;
#X floatatom 170 249 5 0 0 0 - - -;
#X floatatom 197 207 5 0 0 0 - - -;
#X floatatom 224 162 5 0 0 0 - - -;
#X floatatom 251 120 5 0 0 0 - - -;
#X obj 170 71 r l_elbow2;
#X obj 251 141 s lelbowz2;
#X obj 224 185 s lelbowy2;
#X obj 197 228 s lelbowx2;
#X obj 20 20 bng 30 250 50 0 empty empty empty 17 7 0 10 -260097 -1
-1;
#X connect 0 0 1 0;
#X connect 0 1 2 0;
#X connect 0 2 3 0;
#X connect 0 3 4 0;
#X connect 2 0 6 0;
#X connect 3 0 7 0;
#X connect 4 0 8 0;
#X connect 5 0 0 0;
#X connect 9 0 10 0;
#X connect 9 1 11 0;
#X connect 9 2 12 0;
#X connect 9 3 13 0;
#X connect 11 0 17 0;
#X connect 12 0 16 0;
#X connect 13 0 15 0;
#X connect 14 0 9 0;
#X coords 0 -1 1 1 30 30 2 20 20;
