#N canvas 357 322 450 300 10;
#X obj 76 71 *~;
#X obj 91 27 line;
#X obj 94 49 hsl 128 15 0 127 0 0 empty empty empty -2 -8 0 10 -262144
-1 -1 0 1;
#X text 157 -23 ramp to the max in 3 sec;
#X obj 76 -77 inlet~;
#X obj 76 98 outlet~;
#X obj 91 -49 inlet;
#X obj 135 -50 inlet;
#X msg 91 -23 127 3000;
#X msg 103 0 0 3000;
#X connect 0 0 5 0;
#X connect 1 0 2 0;
#X connect 2 0 0 1;
#X connect 4 0 0 0;
#X connect 6 0 8 0;
#X connect 7 0 9 0;
#X connect 8 0 1 0;
#X connect 9 0 1 0;
