#N canvas 67 442 370 280 10;
#X obj 20 20 tgl 30 0 empty empty empty 17 7 0 10 -260097 -1 -1 0 1
;
#X obj 20 91 unpack f f f f;
#X floatatom 20 244 5 0 0 0 - - -;
#X floatatom 47 202 5 0 0 0 - - -;
#X floatatom 74 157 5 0 0 0 - - -;
#X floatatom 101 115 5 0 0 0 - - -;
#X obj 20 66 r l_shoulder;
#X obj 47 223 s l_shoulderx;
#X obj 74 179 s l_shouldery;
#X obj 101 136 s l_shoulderz;
#X obj 193 92 unpack f f f f;
#X floatatom 193 245 5 0 0 0 - - -;
#X floatatom 220 203 5 0 0 0 - - -;
#X floatatom 247 158 5 0 0 0 - - -;
#X floatatom 274 116 5 0 0 0 - - -;
#X obj 193 67 r l_shoulder2;
#X obj 274 137 s l_shoulderz2;
#X obj 247 180 s l_shouldery2;
#X obj 220 224 s l_shoulderx2;
#X connect 1 0 2 0;
#X connect 1 1 3 0;
#X connect 1 2 4 0;
#X connect 1 3 5 0;
#X connect 3 0 7 0;
#X connect 4 0 8 0;
#X connect 5 0 9 0;
#X connect 6 0 1 0;
#X connect 10 0 11 0;
#X connect 10 1 12 0;
#X connect 10 2 13 0;
#X connect 10 3 14 0;
#X connect 12 0 18 0;
#X connect 13 0 17 0;
#X connect 14 0 16 0;
#X connect 15 0 10 0;
#X coords 0 -1 1 1 30 30 2 20 20;
