#N canvas 94 30 331 289 10;
#X obj 175 100 unpack f f f f;
#X floatatom 175 253 5 0 0 0 - - -;
#X floatatom 202 211 5 0 0 0 - - -;
#X floatatom 229 166 5 0 0 0 - - -;
#X floatatom 256 124 5 0 0 0 - - -;
#X obj 175 75 r neck2;
#X obj 258 145 s neckz2;
#X obj 229 188 s necky2;
#X obj 202 232 s neckx2;
#X obj 21 99 unpack f f f f;
#X floatatom 21 252 5 0 0 0 - - -;
#X floatatom 48 210 5 0 0 0 - - -;
#X floatatom 75 165 5 0 0 0 - - -;
#X floatatom 102 123 5 0 0 0 - - -;
#X obj 21 74 r neck;
#X obj 48 231 s neckx;
#X obj 75 187 s necky;
#X obj 102 144 s neckz;
#X obj 20 20 tgl 30 0 empty empty empty 17 7 0 10 -260097 -1 -1 0 1
;
#X connect 0 0 1 0;
#X connect 0 1 2 0;
#X connect 0 2 3 0;
#X connect 0 3 4 0;
#X connect 2 0 8 0;
#X connect 3 0 7 0;
#X connect 4 0 6 0;
#X connect 5 0 0 0;
#X connect 9 0 10 0;
#X connect 9 1 11 0;
#X connect 9 2 12 0;
#X connect 9 3 13 0;
#X connect 11 0 15 0;
#X connect 12 0 16 0;
#X connect 13 0 17 0;
#X connect 14 0 9 0;
#X coords 0 -1 1 1 30 30 2 20 20;
