#N canvas 849 102 453 738 10;
#X declare -lib mrpeach;
#X declare -lib iemgui;
#X declare -lib soundhack;
#X declare -lib RTC;
#X obj -1 37 cnv 15 450 650 empty empty empty 20 12 0 14 -228856 -66577
0;
#X text 12 42 1;
#N canvas 102 22 319 322 VUmeter 0;
#X obj 102 17 catch~ speaker1;
#X obj 102 45 rms_to_db;
#X obj 102 71 outlet;
#X obj 153 71 outlet;
#X obj 106 132 iem_vu 16 120 empty empty -1 -8 0 8 -66577 -1 1 0;
#X obj 104 -16 catch~ test1;
#X obj 233 43 rms_to_db;
#X obj 234 -9 catch~ testa;
#X obj 22 7 rms_to_db;
#X obj 22 -14 catch~ s1;
#X obj 4 -50 cnv 15 120 20 empty empty empty 20 12 0 14 -228856 -66577
0;
#X text 8 -49 VU meter;
#X connect 0 0 1 0;
#X connect 1 0 2 0;
#X connect 1 0 4 0;
#X connect 1 1 3 0;
#X connect 1 1 4 1;
#X connect 5 0 1 0;
#X connect 7 0 6 0;
#X connect 7 0 1 0;
#X connect 8 0 4 0;
#X connect 8 1 4 1;
#X connect 9 0 8 0;
#X coords 0 -1 1 1 40 160 2 100 100;
#X restore 0 39 pd VUmeter;
#X text 423 43 2;
#N canvas 551 79 246 328 VUmeter 0;
#X obj 102 45 rms_to_db;
#X obj 102 71 outlet;
#X obj 153 71 outlet;
#X obj 106 131 iem_vu 16 120 empty empty -1 -8 0 8 -66577 -1 1 0;
#X obj 102 17 catch~ speaker2;
#X obj 102 -27 catch~ test2;
#X obj 102 -5 catch~ testb;
#X obj 32 17 rms_to_db;
#X obj 31 -17 catch~ s2;
#X obj 6 -53 cnv 15 120 20 empty empty empty 20 12 0 14 -228856 -66577
0;
#X text 10 -52 VU meter;
#X connect 0 0 1 0;
#X connect 0 0 3 0;
#X connect 0 1 2 0;
#X connect 0 1 3 1;
#X connect 4 0 0 0;
#X connect 5 0 0 0;
#X connect 6 0 0 0;
#X connect 7 0 3 0;
#X connect 7 1 3 1;
#X connect 8 0 7 0;
#X coords 0 -1 1 1 40 160 2 100 100;
#X restore 408 39 pd VUmeter;
#N canvas 152 73 323 316 VUmeter 0;
#X obj 101 52 rms_to_db;
#X obj 101 78 outlet;
#X obj 152 78 outlet;
#X obj 106 132 iem_vu 16 120 empty empty -1 -8 0 8 -66577 -1 1 0;
#X obj 101 24 catch~ speaker4;
#X obj 101 -21 catch~ test4;
#X obj 101 1 catch~ testd;
#X obj 41 34 rms_to_db;
#X obj 40 0 catch~ s4;
#X obj 8 -49 cnv 15 120 20 empty empty empty 20 12 0 14 -228856 -66577
0;
#X text 12 -48 VU meter;
#X connect 0 0 1 0;
#X connect 0 0 3 0;
#X connect 0 1 2 0;
#X connect 0 1 3 1;
#X connect 4 0 0 0;
#X connect 5 0 0 0;
#X connect 6 0 0 0;
#X connect 7 0 3 0;
#X connect 7 1 3 1;
#X connect 8 0 7 0;
#X coords 0 -1 1 1 40 160 2 100 100;
#X restore 0 527 pd VUmeter;
#X text 12 533 4;
#X text 424 531 3;
#N canvas 152 73 289 343 VUmeter 0;
#X obj 102 45 rms_to_db;
#X obj 102 71 outlet;
#X obj 153 71 outlet;
#X obj 106 131 iem_vu 16 120 empty empty -1 -8 0 8 -66577 -1 1 0;
#X obj 102 17 catch~ speaker3;
#X obj 193 -15 catch~ testc;
#X obj 20 47 rms_to_db;
#X obj 19 13 catch~ s3;
#X obj 212 35 rms_to_db;
#X obj 102 -29 catch~ test3;
#X obj 6 -58 cnv 15 120 20 empty empty empty 20 12 0 14 -228856 -66577
0;
#X text 10 -57 VU meter;
#X connect 0 0 1 0;
#X connect 0 0 3 0;
#X connect 0 1 2 0;
#X connect 0 1 3 1;
#X connect 4 0 0 0;
#X connect 5 0 8 0;
#X connect 5 0 0 0;
#X connect 6 0 3 0;
#X connect 6 1 3 1;
#X connect 7 0 6 0;
#X connect 9 0 0 0;
#X coords 0 -1 1 1 40 160 2 100 100;
#X restore 408 526 pd VUmeter;
#N canvas 927 284 317 325 head 0;
#X obj 20 20 bng 80 250 50 0 empty headA empty 17 7 0 10 -260097 -1
-1;
#X obj 21 113 r head;
#X floatatom 21 291 5 0 0 0 - - -;
#X floatatom 48 249 5 0 0 0 - - -;
#X floatatom 75 204 5 0 0 0 - - -;
#X floatatom 102 162 5 0 0 0 - - -;
#X obj 48 270 s headx;
#X obj 75 226 s heady;
#X obj 102 184 s headz;
#X floatatom 165 292 5 0 0 0 - - -;
#X floatatom 192 250 5 0 0 0 - - -;
#X floatatom 219 205 5 0 0 0 - - -;
#X floatatom 246 163 5 0 0 0 - - -;
#X obj 165 139 unpack f f f f;
#X obj 165 114 r head2;
#X obj 246 185 s headz2;
#X obj 219 227 s heady2;
#X obj 192 271 s headx2;
#X obj 23 138 unpack f f f f;
#X connect 1 0 18 0;
#X connect 3 0 6 0;
#X connect 4 0 7 0;
#X connect 5 0 8 0;
#X connect 10 0 17 0;
#X connect 11 0 16 0;
#X connect 12 0 15 0;
#X connect 13 0 9 0;
#X connect 13 1 10 0;
#X connect 13 2 11 0;
#X connect 13 3 12 0;
#X connect 14 0 13 0;
#X connect 18 0 2 0;
#X connect 18 1 3 0;
#X connect 18 2 4 0;
#X connect 18 3 5 0;
#X coords 0 -1 1 1 80 80 2 20 20;
#X restore 177 68 pd head;
#N canvas 244 118 322 295 neck 0;
#X obj 175 100 unpack f f f f;
#X floatatom 175 253 5 0 0 0 - - -;
#X floatatom 202 211 5 0 0 0 - - -;
#X floatatom 229 166 5 0 0 0 - - -;
#X floatatom 256 124 5 0 0 0 - - -;
#X obj 175 75 r neck2;
#X obj 258 145 s neckz2;
#X obj 229 188 s necky2;
#X obj 202 232 s neckx2;
#X obj 21 99 unpack f f f f;
#X floatatom 21 252 5 0 0 0 - - -;
#X floatatom 48 210 5 0 0 0 - - -;
#X floatatom 75 165 5 0 0 0 - - -;
#X floatatom 102 123 5 0 0 0 - - -;
#X obj 21 74 r neck;
#X obj 48 231 s neckx;
#X obj 75 187 s necky;
#X obj 102 144 s neckz;
#X obj 20 20 tgl 30 0 empty neckA empty 17 7 0 10 -260097 -1 -1 1 1
;
#X connect 0 0 1 0;
#X connect 0 1 2 0;
#X connect 0 2 3 0;
#X connect 0 3 4 0;
#X connect 2 0 8 0;
#X connect 3 0 7 0;
#X connect 4 0 6 0;
#X connect 5 0 0 0;
#X connect 9 0 10 0;
#X connect 9 1 11 0;
#X connect 9 2 12 0;
#X connect 9 3 13 0;
#X connect 11 0 15 0;
#X connect 12 0 16 0;
#X connect 13 0 17 0;
#X connect 14 0 9 0;
#X coords 0 -1 1 1 30 30 2 20 20;
#X restore 201 152 pd neck;
#N canvas 0 22 347 280 leftElbow 0;
#X obj 22 90 unpack f f f f;
#X floatatom 22 243 5 0 0 0 - - -;
#X floatatom 49 201 5 0 0 0 - - -;
#X floatatom 76 156 5 0 0 0 - - -;
#X floatatom 103 114 5 0 0 0 - - -;
#X obj 22 65 r l_elbow;
#X obj 49 222 s lelbowx;
#X obj 76 179 s lelbowy;
#X obj 103 135 s lelbowz;
#X obj 181 90 unpack f f f f;
#X floatatom 181 243 5 0 0 0 - - -;
#X floatatom 208 201 5 0 0 0 - - -;
#X floatatom 235 156 5 0 0 0 - - -;
#X floatatom 262 114 5 0 0 0 - - -;
#X obj 181 65 r l_elbow2;
#X obj 262 135 s lelbowz2;
#X obj 235 179 s lelbowy2;
#X obj 208 222 s lelbowx2;
#X obj 20 20 bng 30 250 50 0 empty el2 empty 17 7 0 10 -260097 -1 -1
;
#X connect 0 0 1 0;
#X connect 0 1 2 0;
#X connect 0 2 3 0;
#X connect 0 3 4 0;
#X connect 2 0 6 0;
#X connect 3 0 7 0;
#X connect 4 0 8 0;
#X connect 5 0 0 0;
#X connect 9 0 10 0;
#X connect 9 1 11 0;
#X connect 9 2 12 0;
#X connect 9 3 13 0;
#X connect 11 0 17 0;
#X connect 12 0 16 0;
#X connect 13 0 15 0;
#X connect 14 0 9 0;
#X coords 0 -1 1 1 30 30 2 20 20;
#X restore 325 293 pd leftElbow;
#N canvas 441 55 401 275 leftShoulder 0;
#X obj 202 88 unpack f f f f;
#X floatatom 202 241 5 0 0 0 - - -;
#X floatatom 229 199 5 0 0 0 - - -;
#X floatatom 256 154 5 0 0 0 - - -;
#X floatatom 283 112 5 0 0 0 - - -;
#X obj 202 63 r l_shoulder2;
#X obj 283 133 s l_shoulderz2;
#X obj 256 176 s l_shouldery2;
#X obj 229 220 s l_shoulderx2;
#X obj 21 88 unpack f f f f;
#X floatatom 21 241 5 0 0 0 - - -;
#X floatatom 48 199 5 0 0 0 - - -;
#X floatatom 75 154 5 0 0 0 - - -;
#X floatatom 102 112 5 0 0 0 - - -;
#X obj 21 63 r l_shoulder;
#X obj 48 220 s l_shoulderx;
#X obj 75 176 s l_shouldery;
#X obj 102 133 s l_shoulderz;
#X obj 20 20 tgl 30 0 empty should1 empty 17 7 0 10 -260097 -1 -1 1
1;
#X connect 0 0 1 0;
#X connect 0 1 2 0;
#X connect 0 2 3 0;
#X connect 0 3 4 0;
#X connect 2 0 8 0;
#X connect 3 0 7 0;
#X connect 4 0 6 0;
#X connect 5 0 0 0;
#X connect 9 0 10 0;
#X connect 9 1 11 0;
#X connect 9 2 12 0;
#X connect 9 3 13 0;
#X connect 11 0 15 0;
#X connect 12 0 16 0;
#X connect 13 0 17 0;
#X connect 14 0 9 0;
#X coords 0 -1 1 1 30 30 2 20 20;
#X restore 86 187 pd leftShoulder;
#N canvas 81 37 403 275 rightShoulder 0;
#X obj 220 91 unpack f f f f;
#X floatatom 220 244 5 0 0 0 - - -;
#X floatatom 247 202 5 0 0 0 - - -;
#X floatatom 274 157 5 0 0 0 - - -;
#X floatatom 301 115 5 0 0 0 - - -;
#X obj 220 66 r r_shoulder;
#X obj 301 136 s r_shoulderz2;
#X obj 275 179 s r_shouldery2;
#X obj 247 223 s r_shoulderx2;
#X obj 20 89 unpack f f f f;
#X floatatom 20 242 5 0 0 0 - - -;
#X floatatom 47 200 5 0 0 0 - - -;
#X floatatom 74 155 5 0 0 0 - - -;
#X floatatom 101 113 5 0 0 0 - - -;
#X obj 20 64 r r_shoulder;
#X obj 101 134 s r_shoulderz;
#X obj 74 177 s r_shouldery;
#X obj 47 221 s r_shoulderx;
#X obj 20 20 tgl 30 0 empty should2 empty 17 7 0 10 -260097 -1 -1 1
1;
#X connect 0 0 1 0;
#X connect 0 1 2 0;
#X connect 0 2 3 0;
#X connect 0 3 4 0;
#X connect 2 0 8 0;
#X connect 3 0 7 0;
#X connect 4 0 6 0;
#X connect 5 0 0 0;
#X connect 9 0 10 0;
#X connect 9 1 11 0;
#X connect 9 2 12 0;
#X connect 9 3 13 0;
#X connect 11 0 17 0;
#X connect 12 0 16 0;
#X connect 13 0 15 0;
#X connect 14 0 9 0;
#X coords 0 -1 1 1 30 30 2 20 20;
#X restore 325 186 pd rightShoulder;
#N canvas 0 22 358 283 rightElbow 0;
#X obj 21 87 unpack f f f f;
#X floatatom 21 240 5 0 0 0 - - -;
#X floatatom 48 198 5 0 0 0 - - -;
#X floatatom 75 153 5 0 0 0 - - -;
#X floatatom 102 111 5 0 0 0 - - -;
#X obj 21 62 r r_elbow;
#X obj 48 219 s relbowx;
#X obj 75 176 s relbowy;
#X obj 102 132 s relbowz;
#X obj 191 85 unpack f f f f;
#X floatatom 191 238 5 0 0 0 - - -;
#X floatatom 218 196 5 0 0 0 - - -;
#X floatatom 245 151 5 0 0 0 - - -;
#X floatatom 272 109 5 0 0 0 - - -;
#X obj 191 60 r r_elbow;
#X obj 274 130 s relbowz2;
#X obj 245 174 s relbowy2;
#X obj 218 217 s relbowx2;
#X obj 20 20 bng 30 250 50 0 empty el1 empty 17 7 0 10 -260097 -1 -1
;
#X connect 0 0 1 0;
#X connect 0 1 2 0;
#X connect 0 2 3 0;
#X connect 0 3 4 0;
#X connect 2 0 6 0;
#X connect 3 0 7 0;
#X connect 4 0 8 0;
#X connect 5 0 0 0;
#X connect 9 0 10 0;
#X connect 9 1 11 0;
#X connect 9 2 12 0;
#X connect 9 3 13 0;
#X connect 11 0 17 0;
#X connect 12 0 16 0;
#X connect 13 0 15 0;
#X connect 14 0 9 0;
#X coords 0 -1 1 1 30 30 2 20 20;
#X restore 85 294 pd rightElbow;
#N canvas 0 22 349 293 leftHand 0;
#X obj 16 85 unpack f f f f;
#X floatatom 16 238 5 0 0 0 - - -;
#X floatatom 43 196 5 0 0 0 - - -;
#X floatatom 70 151 5 0 0 0 - - -;
#X floatatom 97 109 5 0 0 0 - - -;
#X obj 16 60 r l_hand;
#X obj 97 130 s lhandz;
#X obj 70 174 s lhandy;
#X obj 43 217 s lhandx;
#X obj 168 84 unpack f f f f;
#X floatatom 168 237 5 0 0 0 - - -;
#X floatatom 195 195 5 0 0 0 - - -;
#X floatatom 222 150 5 0 0 0 - - -;
#X floatatom 249 108 5 0 0 0 - - -;
#X obj 168 59 r l_hand2;
#X obj 249 129 s lhandz2;
#X obj 222 173 s lhandy2;
#X obj 194 216 s lhandx2;
#X obj 20 20 tgl 30 0 empty hand1 empty 17 7 0 10 -260097 -1 -1 1 1
;
#X connect 0 0 1 0;
#X connect 0 1 2 0;
#X connect 0 2 3 0;
#X connect 0 3 4 0;
#X connect 2 0 8 0;
#X connect 3 0 7 0;
#X connect 4 0 6 0;
#X connect 5 0 0 0;
#X connect 9 0 10 0;
#X connect 9 1 11 0;
#X connect 9 2 12 0;
#X connect 9 3 13 0;
#X connect 11 0 17 0;
#X connect 12 0 16 0;
#X connect 13 0 15 0;
#X connect 14 0 9 0;
#X coords 0 -1 1 1 30 30 2 20 20;
#X restore 52 343 pd leftHand;
#N canvas 0 22 349 274 rightHand 0;
#X obj 15 91 unpack f f f f;
#X floatatom 15 244 5 0 0 0 - - -;
#X floatatom 42 202 5 0 0 0 - - -;
#X floatatom 69 157 5 0 0 0 - - -;
#X floatatom 96 115 5 0 0 0 - - -;
#X obj 15 66 r r_hand;
#X obj 42 223 s rhandx;
#X obj 69 180 s rhandy;
#X obj 96 136 s rhandz;
#X obj 166 91 unpack f f f f;
#X floatatom 166 244 5 0 0 0 - - -;
#X floatatom 193 202 5 0 0 0 - - -;
#X floatatom 220 157 5 0 0 0 - - -;
#X floatatom 247 115 5 0 0 0 - - -;
#X obj 166 66 r r_hand;
#X obj 247 136 s rhandz2;
#X obj 220 180 s rhandy2;
#X obj 193 223 s rhandx2;
#X obj 20 20 tgl 30 0 empty hand2 empty 17 7 0 10 -260097 -1 -1 1 1
;
#X connect 0 0 1 0;
#X connect 0 1 2 0;
#X connect 0 2 3 0;
#X connect 0 3 4 0;
#X connect 2 0 6 0;
#X connect 3 0 7 0;
#X connect 4 0 8 0;
#X connect 5 0 0 0;
#X connect 9 0 10 0;
#X connect 9 1 11 0;
#X connect 9 2 12 0;
#X connect 9 3 13 0;
#X connect 11 0 17 0;
#X connect 12 0 16 0;
#X connect 13 0 15 0;
#X connect 14 0 9 0;
#X coords 0 -1 1 1 30 30 2 20 20;
#X restore 359 341 pd rightHand;
#N canvas 0 22 399 226 torso 0;
#X obj 89 41 unpack f f f f;
#X floatatom 89 194 5 0 0 0 - - -;
#X floatatom 116 152 5 0 0 0 - - -;
#X floatatom 143 107 5 0 0 0 - - -;
#X floatatom 170 65 5 0 0 0 - - -;
#X obj 89 16 r torso;
#X obj 116 173 s torsox;
#X obj 143 129 s torsoy;
#X obj 170 86 s torsoz;
#X obj 236 46 unpack f f f f;
#X floatatom 236 199 5 0 0 0 - - -;
#X floatatom 263 157 5 0 0 0 - - -;
#X floatatom 290 112 5 0 0 0 - - -;
#X floatatom 317 70 5 0 0 0 - - -;
#X obj 237 21 r torso2;
#X obj 317 91 s torsoz2;
#X obj 291 134 s torsoy2;
#X obj 263 178 s torsox2;
#X obj 20 20 cnv 15 60 180 empty empty empty 20 12 0 14 -261001 -66577
0;
#X obj 20 74 tgl 60 0 empty torsoA empty 17 7 0 10 -260097 -1 -1 1
1;
#X connect 0 0 1 0;
#X connect 0 1 2 0;
#X connect 0 2 3 0;
#X connect 0 3 4 0;
#X connect 2 0 6 0;
#X connect 3 0 7 0;
#X connect 4 0 8 0;
#X connect 5 0 0 0;
#X connect 9 0 10 0;
#X connect 9 1 11 0;
#X connect 9 2 12 0;
#X connect 9 3 13 0;
#X connect 11 0 17 0;
#X connect 12 0 16 0;
#X connect 13 0 15 0;
#X connect 14 0 9 0;
#X coords 0 -1 1 1 60 180 2 20 20;
#X restore 186 221 pd torso;
#N canvas 0 22 337 283 leftHip 0;
#X obj 19 87 unpack f f f f;
#X floatatom 19 240 5 0 0 0 - - -;
#X floatatom 46 198 5 0 0 0 - - -;
#X floatatom 73 153 5 0 0 0 - - -;
#X floatatom 100 111 5 0 0 0 - - -;
#X obj 19 62 r l_hip;
#X obj 100 132 s lhipz;
#X obj 73 176 s lhipy;
#X obj 46 219 s lhipx;
#X obj 170 89 unpack f f f f;
#X floatatom 170 242 5 0 0 0 - - -;
#X floatatom 197 200 5 0 0 0 - - -;
#X floatatom 224 155 5 0 0 0 - - -;
#X floatatom 251 113 5 0 0 0 - - -;
#X obj 251 134 s lhipz2;
#X obj 224 178 s lhipy2;
#X obj 197 221 s lhipx2;
#X obj 170 64 r l_hip2;
#X obj 20 20 tgl 30 0 empty hip1 empty 17 7 0 10 -260097 -1 -1 1 1
;
#X connect 0 0 1 0;
#X connect 0 1 2 0;
#X connect 0 2 3 0;
#X connect 0 3 4 0;
#X connect 2 0 8 0;
#X connect 3 0 7 0;
#X connect 4 0 6 0;
#X connect 5 0 0 0;
#X connect 9 0 10 0;
#X connect 9 1 11 0;
#X connect 9 2 12 0;
#X connect 9 3 13 0;
#X connect 11 0 16 0;
#X connect 12 0 15 0;
#X connect 13 0 14 0;
#X connect 17 0 9 0;
#X coords 0 -1 1 1 30 30 2 20 20;
#X restore 110 407 pd leftHip;
#N canvas 0 22 323 285 rightHip 0;
#X obj 17 94 unpack f f f f;
#X floatatom 17 247 5 0 0 0 - - -;
#X floatatom 44 205 5 0 0 0 - - -;
#X floatatom 71 160 5 0 0 0 - - -;
#X floatatom 98 118 5 0 0 0 - - -;
#X obj 17 69 r r_hip;
#X obj 98 139 s rhipz;
#X obj 71 183 s rhipy;
#X obj 44 226 s rhipx;
#X obj 170 96 unpack f f f f;
#X floatatom 170 249 5 0 0 0 - - -;
#X floatatom 197 207 5 0 0 0 - - -;
#X floatatom 224 162 5 0 0 0 - - -;
#X floatatom 251 120 5 0 0 0 - - -;
#X obj 251 141 s rhipz2;
#X obj 225 184 s rhipy2;
#X obj 197 228 s rhipx2;
#X obj 170 71 r r_hip2;
#X obj 20 20 tgl 30 0 empty hip2 empty 17 7 0 10 -260097 -1 -1 1 1
;
#X connect 0 0 1 0;
#X connect 0 1 2 0;
#X connect 0 2 3 0;
#X connect 0 3 4 0;
#X connect 2 0 8 0;
#X connect 3 0 7 0;
#X connect 4 0 6 0;
#X connect 5 0 0 0;
#X connect 9 0 10 0;
#X connect 9 1 11 0;
#X connect 9 2 12 0;
#X connect 9 3 13 0;
#X connect 11 0 16 0;
#X connect 12 0 15 0;
#X connect 13 0 14 0;
#X connect 17 0 9 0;
#X coords 0 -1 1 1 30 30 2 20 20;
#X restore 297 407 pd rightHip;
#N canvas 0 22 338 278 leftKnee 0;
#X obj 183 95 unpack f f f f;
#X floatatom 183 248 5 0 0 0 - - -;
#X floatatom 210 206 5 0 0 0 - - -;
#X floatatom 237 161 5 0 0 0 - - -;
#X floatatom 264 119 5 0 0 0 - - -;
#X obj 264 140 s lkneez2;
#X obj 237 184 s lkneey2;
#X obj 210 227 s lkneex2;
#X obj 183 70 r l_knee2;
#X obj 19 90 unpack f f f f;
#X floatatom 19 243 5 0 0 0 - - -;
#X floatatom 46 201 5 0 0 0 - - -;
#X floatatom 73 156 5 0 0 0 - - -;
#X floatatom 100 114 5 0 0 0 - - -;
#X obj 19 65 r l_knee;
#X obj 46 222 s lkneex;
#X obj 73 179 s lkneey;
#X obj 100 135 s lkneez;
#X obj 20 20 bng 30 250 50 0 empty knee1 empty 17 7 0 10 -260097 -1
-1;
#X connect 0 0 1 0;
#X connect 0 1 2 0;
#X connect 0 2 3 0;
#X connect 0 3 4 0;
#X connect 2 0 7 0;
#X connect 3 0 6 0;
#X connect 4 0 5 0;
#X connect 8 0 0 0;
#X connect 9 0 10 0;
#X connect 9 1 11 0;
#X connect 9 2 12 0;
#X connect 9 3 13 0;
#X connect 11 0 15 0;
#X connect 12 0 16 0;
#X connect 13 0 17 0;
#X connect 14 0 9 0;
#X coords 0 -1 1 1 30 30 2 20 20;
#X restore 110 514 pd leftKnee;
#N canvas 0 22 355 279 rightKnee 0;
#X obj 20 87 unpack f f f f;
#X floatatom 20 240 5 0 0 0 - - -;
#X floatatom 47 198 5 0 0 0 - - -;
#X floatatom 74 153 5 0 0 0 - - -;
#X floatatom 101 111 5 0 0 0 - - -;
#X obj 20 62 r r_knee;
#X obj 101 132 s rkneez;
#X obj 74 176 s rkneey;
#X obj 47 219 s rkneex;
#X obj 192 92 unpack f f f f;
#X floatatom 192 245 5 0 0 0 - - -;
#X floatatom 219 203 5 0 0 0 - - -;
#X floatatom 246 158 5 0 0 0 - - -;
#X floatatom 273 116 5 0 0 0 - - -;
#X obj 273 137 s rkneez2;
#X obj 246 181 s rkneey2;
#X obj 219 224 s rkneex2;
#X obj 192 67 r r_knee2;
#X obj 20 20 bng 30 250 50 0 empty knee2 empty 17 7 0 10 -260097 -1
-1;
#X connect 0 0 1 0;
#X connect 0 1 2 0;
#X connect 0 2 3 0;
#X connect 0 3 4 0;
#X connect 2 0 8 0;
#X connect 3 0 7 0;
#X connect 4 0 6 0;
#X connect 5 0 0 0;
#X connect 9 0 10 0;
#X connect 9 1 11 0;
#X connect 9 2 12 0;
#X connect 9 3 13 0;
#X connect 11 0 16 0;
#X connect 12 0 15 0;
#X connect 13 0 14 0;
#X connect 17 0 9 0;
#X coords 0 -1 1 1 30 30 2 20 20;
#X restore 297 513 pd rightKnee;
#N canvas 0 22 345 278 leftFoot 0;
#X obj 191 89 unpack f f f f;
#X floatatom 191 242 5 0 0 0 - - -;
#X floatatom 218 200 5 0 0 0 - - -;
#X floatatom 245 155 5 0 0 0 - - -;
#X floatatom 272 113 5 0 0 0 - - -;
#X obj 272 134 s lfootz2;
#X obj 245 178 s lfooty2;
#X obj 218 221 s lfootx2;
#X obj 21 90 unpack f f f f;
#X floatatom 21 243 5 0 0 0 - - -;
#X floatatom 48 201 5 0 0 0 - - -;
#X floatatom 75 156 5 0 0 0 - - -;
#X floatatom 102 114 5 0 0 0 - - -;
#X obj 21 65 r l_foot;
#X obj 48 222 s lfootx;
#X obj 75 179 s lfooty;
#X obj 102 135 s lfootz;
#X obj 191 64 r l_foot2;
#X obj 20 20 cnv 15 60 30 empty foot1 empty 20 12 0 14 -260680 -66577
0;
#X obj 20 20 tgl 30 0 empty foot1 empty 17 7 0 10 -260097 -1 -1 1 1
;
#X connect 0 0 1 0;
#X connect 0 1 2 0;
#X connect 0 2 3 0;
#X connect 0 3 4 0;
#X connect 2 0 7 0;
#X connect 3 0 6 0;
#X connect 4 0 5 0;
#X connect 8 0 9 0;
#X connect 8 1 10 0;
#X connect 8 2 11 0;
#X connect 8 3 12 0;
#X connect 10 0 14 0;
#X connect 11 0 15 0;
#X connect 12 0 16 0;
#X connect 13 0 8 0;
#X connect 17 0 0 0;
#X coords 0 -1 1 1 60 30 2 20 20;
#X restore 82 621 pd leftFoot;
#N canvas 0 22 339 284 rightFoot 0;
#X obj 179 99 unpack f f f f;
#X floatatom 179 252 5 0 0 0 - - -;
#X floatatom 206 210 5 0 0 0 - - -;
#X floatatom 233 165 5 0 0 0 - - -;
#X floatatom 260 123 5 0 0 0 - - -;
#X obj 260 144 s rfootz2;
#X obj 233 188 s rfooty2;
#X obj 206 231 s rfootx2;
#X obj 21 90 unpack f f f f;
#X floatatom 21 243 5 0 0 0 - - -;
#X floatatom 48 201 5 0 0 0 - - -;
#X floatatom 75 156 5 0 0 0 - - -;
#X floatatom 102 114 5 0 0 0 - - -;
#X obj 21 65 r r_foot;
#X obj 102 135 s rfootz;
#X obj 75 179 s rfooty;
#X obj 48 222 s rfootx;
#X obj 179 74 r r_foot2;
#X obj 20 20 cnv 15 60 30 empty empty empty 20 12 0 14 -260874 -66577
0;
#X obj 50 20 tgl 30 0 empty foot2 empty 17 7 0 10 -260097 -1 -1 1 1
;
#X connect 0 0 1 0;
#X connect 0 1 2 0;
#X connect 0 2 3 0;
#X connect 0 3 4 0;
#X connect 2 0 7 0;
#X connect 3 0 6 0;
#X connect 4 0 5 0;
#X connect 8 0 9 0;
#X connect 8 1 10 0;
#X connect 8 2 11 0;
#X connect 8 3 12 0;
#X connect 10 0 16 0;
#X connect 11 0 15 0;
#X connect 12 0 14 0;
#X connect 13 0 8 0;
#X connect 17 0 0 0;
#X coords 0 -1 1 1 60 30 2 20 20;
#X restore 297 619 pd rightFoot;
#X obj 120 186 cnv 15 200 30 empty empty empty 20 12 0 14 -232208 -66577
0;
#X obj 85 220 cnv 15 30 70 empty empty empty 20 12 0 14 -232208 -66577
0;
#X obj 325 220 cnv 15 30 70 empty empty empty 20 12 0 14 -232208 -66577
0;
#X obj 85 327 cnv 15 30 45 empty empty empty 20 12 0 14 -232208 -66577
0;
#X obj 326 326 cnv 15 30 45 empty empty empty 20 12 0 14 -232208 -66577
0;
#X obj 143 407 cnv 15 150 30 empty empty empty 20 12 0 14 -232208 -66577
0;
#X obj 110 440 cnv 15 30 70 empty empty empty 20 12 0 14 -232208 -66577
0;
#X obj 297 440 cnv 15 30 70 empty empty empty 20 12 0 14 -232208 -66577
0;
#X obj 110 547 cnv 15 30 70 empty empty empty 20 12 0 14 -232208 -66577
0;
#X obj 297 546 cnv 15 30 70 empty empty empty 20 12 0 14 -232208 -66577
0;
#X obj -1 -4 cnv 15 450 40 empty empty empty 20 12 1 14 -191407 -66577
0;
#X text 124 6 Poetry in Form of Movement 2012;
#X obj -1 689 cnv 15 450 40 empty empty empty 20 12 1 14 -191407 -66577
0;
#X obj 1 695 loadbang;
#X msg 1 695 \; pd dsp 1 start bang;
#N canvas 658 147 325 129 externals 0;
#X obj 15 29 import mrpeach;
#X obj 15 6 import iemgui;
#X obj 14 53 import soundhack;
#X obj 13 -24 cnv 15 150 20 empty empty empty 20 12 0 14 -228856 -66577
0;
#X text 17 -22 external pd libraries;
#X obj 14 77 import RTC;
#X obj 247 3 variance 10;
#X obj 259 23 s userpos;
#N canvas 106 22 255 301 start_debug 0;
#X obj 102 -145 bng 15 250 50 0 empty empty empty 17 7 0 10 -262144
-1 -1;
#X msg 102 -123 1;
#X obj 71 50 s hip1;
#X obj 102 -95 s headA;
#X obj 102 -73 s neckA;
#X obj 22 -47 s should1;
#X obj 160 -49 s should2;
#X obj 8 -18 s el1;
#X obj 192 -21 s el2;
#X obj 0 17 s hand1;
#X obj 202 12 s hand2;
#X obj 100 20 s torsoA;
#X obj 139 48 s hip2;
#X obj 68 77 s knee1;
#X obj 139 76 s knee2;
#X obj 37 107 s foot1;
#X obj 168 110 s foot2;
#X obj 102 -166 loadbang;
#X connect 0 0 1 0;
#X connect 1 0 2 0;
#X connect 1 0 3 0;
#X connect 1 0 4 0;
#X connect 1 0 5 0;
#X connect 1 0 6 0;
#X connect 1 0 7 0;
#X connect 1 0 8 0;
#X connect 1 0 9 0;
#X connect 1 0 10 0;
#X connect 1 0 11 0;
#X connect 1 0 12 0;
#X connect 1 0 13 0;
#X connect 1 0 14 0;
#X connect 1 0 15 0;
#X connect 1 0 16 0;
#X connect 17 0 0 0;
#X restore 230 45 pd start_debug;
#X restore 369 700 pd externals;
#N canvas 625 530 336 193 testing 0;
#X obj -152 -18 cnv 15 300 120 empty empty empty 20 12 0 14 -233017
-66577 0;
#N canvas 490 78 784 517 test 0;
#X obj 111 272 openpanel;
#X msg 111 301 open \$1;
#X msg 124 330 1;
#X obj 111 363 readsf~;
#X obj 28 445 throw~ test1;
#X obj 120 445 throw~ test2;
#X obj 304 445 throw~ test3;
#X obj 395 444 throw~ test4;
#X obj 567 133 noise~;
#X obj 448 174 *~;
#X obj 608 177 *~;
#X obj 528 176 *~;
#X obj 691 177 *~;
#X obj 110 109 bng 15 250 50 0 empty empty empty 17 7 0 10 -262144
-1 -1;
#X obj 113 134 hsl 128 15 0 1.5 0 0 empty empty empty -2 -8 0 10 -228856
-1 -1 0 1;
#X obj 113 154 hsl 128 15 0 1.5 0 0 empty empty empty -2 -8 0 10 -228856
-1 -1 0 1;
#X obj 113 176 hsl 128 15 0 1.5 0 0 empty empty empty -2 -8 0 10 -228856
-1 -1 0 1;
#X obj 113 197 hsl 128 15 0 1.5 0 0 empty empty empty -2 -8 0 10 -228856
-1 -1 0 1;
#X text 116 132 1;
#X text 115 153 2;
#X text 116 175 3;
#X text 117 196 4;
#X msg 156 329 0;
#X obj 448 245 throw~ testa;
#X obj 528 244 throw~ testb;
#X obj 608 244 throw~ testc;
#X obj 691 245 throw~ testd;
#X obj 151 109 bng 15 250 50 0 empty empty empty 17 7 0 10 -258113
-1 -1;
#X obj 131 109 bng 15 250 50 0 empty empty empty 17 7 0 10 -4034 -1
-1;
#X obj 111 414 *~;
#X obj 287 412 *~;
#X obj 200 411 *~;
#X obj 374 412 *~;
#X obj 257 134 hsl 128 15 0 1.5 0 0 empty empty empty -2 -8 0 10 -228856
-1 -1 0 1;
#X obj 257 155 hsl 128 15 0 1.5 0 0 empty empty empty -2 -8 0 10 -228856
-1 -1 0 1;
#X obj 257 176 hsl 128 15 0 1.5 0 0 empty empty empty -2 -8 0 10 -228856
-1 -1 0 1;
#X obj 257 197 hsl 128 15 0 1.5 0 0 empty empty empty -2 -8 0 10 -228856
-1 -1 0 1;
#X text 320 108 white noise;
#X obj 29 470 throw~ testa1;
#X obj 121 470 throw~ testa2;
#X obj 299 467 throw~ testa3;
#X obj 390 469 throw~ testa4;
#X obj 210 448 dac~ 1 2 3 4;
#X obj 10 14 cnv 15 120 20 empty empty empty 20 12 0 14 -228856 -66577
0;
#X text 14 15 audio test;
#X text 170 107 sample;
#X obj 534 213 dac~ 1 2 3 4;
#X connect 0 0 1 0;
#X connect 1 0 3 0;
#X connect 2 0 3 0;
#X connect 3 0 29 0;
#X connect 3 0 31 0;
#X connect 3 0 30 0;
#X connect 3 0 32 0;
#X connect 8 0 9 0;
#X connect 8 0 11 0;
#X connect 8 0 10 0;
#X connect 8 0 12 0;
#X connect 9 0 23 0;
#X connect 9 0 46 0;
#X connect 10 0 25 0;
#X connect 10 0 46 2;
#X connect 11 0 24 0;
#X connect 11 0 46 1;
#X connect 12 0 26 0;
#X connect 12 0 46 3;
#X connect 13 0 0 0;
#X connect 14 0 29 1;
#X connect 15 0 31 1;
#X connect 16 0 30 1;
#X connect 17 0 32 1;
#X connect 22 0 3 0;
#X connect 27 0 22 0;
#X connect 28 0 2 0;
#X connect 29 0 4 0;
#X connect 29 0 38 0;
#X connect 29 0 42 0;
#X connect 30 0 6 0;
#X connect 30 0 40 0;
#X connect 30 0 42 2;
#X connect 31 0 5 0;
#X connect 31 0 39 0;
#X connect 31 0 42 1;
#X connect 32 0 7 0;
#X connect 32 0 41 0;
#X connect 32 0 42 3;
#X connect 33 0 9 1;
#X connect 34 0 11 1;
#X connect 35 0 10 1;
#X connect 36 0 12 1;
#X coords 0 -1 1 1 300 120 2 100 100;
#X restore -152 -18 pd test;
#X obj -152 106 kinectCtrl;
#X restore 381 7 pd testing;
#N canvas 85 352 625 488 main 1;
#X obj -352 -209 cnv 15 120 20 empty empty empty 20 12 0 14 -228856
-66577 0;
#X text -345 -208 main program;
#X obj -352 -184 cnv 15 615 70 empty empty empty 20 12 0 14 -191407
-66577 0;
#N canvas 548 197 533 287 OSCeleton 0;
#X obj 16 51 s joint;
#X floatatom 142 124 5 0 0 0 - - -;
#X obj 15 21 routeOSC /joint;
#X obj 298 20 route /lost_user;
#X floatatom 179 124 5 0 0 0 - - -;
#X obj 298 47 s lost;
#X floatatom 106 124 5 0 0 0 - - -;
#X text 104 107 user1;
#X text 139 107 user2;
#X text 178 106 lost;
#X obj 8 -76 cnv 15 120 20 empty empty empty 20 12 0 14 -228856 -66577
0;
#X text 10 -76 osc routing;
#N canvas 271 512 797 239 route_joint 0;
#X obj -18 -51 r joint;
#X obj -18 -7 route l_shoulder l_elbow l_hand l_hip l_knee l_foot head
neck torso r_shoulder r_elbow r_hand r_hip r_knee r_foot;
#X obj -18 28 s l_shoulder;
#X obj 4 48 s l_elbow;
#X obj 26 68 s l_hand;
#X obj 49 88 s l_hip;
#X obj 70 28 s l_knee;
#X obj 94 48 s l_foot;
#X obj 115 67 s head;
#X obj 137 87 s neck;
#X obj 159 27 s torso;
#X obj 181 47 s r_shoulder;
#X obj 204 66 s r_elbow;
#X obj 226 86 s r_hand;
#X obj 250 106 s r_hip;
#X obj 270 29 s r_knee;
#X obj 293 50 s r_foot;
#X obj 369 -10 route l_shoulder l_elbow l_hand l_hip l_knee l_foot
head neck torso r_shoulder r_elbow r_hand r_hip r_knee r_foot;
#X obj 369 -54 r joint2;
#X obj 369 25 s l_shoulder2;
#X obj 457 25 s l_knee2;
#X obj 546 24 s torso2;
#X obj 657 26 s r_knee2;
#X obj 680 48 s r_foot2;
#X obj 568 44 s r_shoulder2;
#X obj 591 63 s r_elbow2;
#X obj 613 83 s r_hand2;
#X obj 637 103 s r_hip2;
#X obj 524 84 s neck2;
#X obj 502 64 s head2;
#X obj 481 45 s l_foot2;
#X obj 391 45 s l_elbow2;
#X obj 413 65 s l_hand2;
#X obj 436 85 s l_hip2;
#X obj -18 -94 cnv 15 120 20 empty empty empty 20 12 0 14 -228856 -66577
0;
#X text -11 -93 user 1;
#X obj 368 -94 cnv 15 120 20 empty empty empty 20 12 0 14 -228856 -66577
0;
#X text 375 -93 user 2;
#X connect 0 0 1 0;
#X connect 1 0 2 0;
#X connect 1 1 3 0;
#X connect 1 2 4 0;
#X connect 1 3 5 0;
#X connect 1 4 6 0;
#X connect 1 5 7 0;
#X connect 1 6 8 0;
#X connect 1 7 9 0;
#X connect 1 8 10 0;
#X connect 1 9 11 0;
#X connect 1 10 12 0;
#X connect 1 11 13 0;
#X connect 1 12 14 0;
#X connect 1 13 15 0;
#X connect 1 14 16 0;
#X connect 17 0 19 0;
#X connect 17 1 31 0;
#X connect 17 2 32 0;
#X connect 17 3 33 0;
#X connect 17 4 20 0;
#X connect 17 5 30 0;
#X connect 17 6 29 0;
#X connect 17 7 28 0;
#X connect 17 8 21 0;
#X connect 17 9 24 0;
#X connect 17 10 25 0;
#X connect 17 11 26 0;
#X connect 17 12 27 0;
#X connect 17 13 22 0;
#X connect 17 14 23 0;
#X connect 18 0 17 0;
#X restore 8 166 pd route_joint;
#X obj 144 -43 udpreceive 7110;
#X obj 144 -17 unpackOSC;
#X obj 144 20 route /new_user;
#X obj 166 48 routeOSC /joint;
#X obj 156 73 s joint2;
#X obj 420 20 route /new_skel;
#X floatatom 216 124 5 0 0 0 - - -;
#X text 207 106 new skel;
#X connect 2 0 0 0;
#X connect 2 0 6 0;
#X connect 3 0 4 0;
#X connect 3 0 5 0;
#X connect 13 0 14 0;
#X connect 14 0 2 0;
#X connect 14 0 3 0;
#X connect 14 0 15 0;
#X connect 14 0 18 0;
#X connect 15 0 1 0;
#X connect 16 0 17 0;
#X connect 18 0 19 0;
#X coords 0 -1 1 1 160 45 2 100 100;
#X restore -347 -172 pd OSCeleton;
#N canvas 193 164 327 242 cpu 0;
#X obj 104 177 cputime;
#X obj 176 177 realtime;
#X floatatom 104 206 5 0 0 0 - - -;
#X floatatom 176 206 5 0 0 0 - - -;
#X msg 104 145 0;
#X msg 176 145 1;
#X obj 104 119 bng 15 250 50 0 empty empty cpu_time 17 7 0 10 -262144
-1 -1;
#X obj 176 119 bng 15 250 50 0 empty empty real_time 17 7 0 10 -262144
-1 -1;
#X connect 0 0 2 0;
#X connect 1 0 3 0;
#X connect 4 0 0 1;
#X connect 4 0 1 1;
#X connect 5 0 0 1;
#X connect 5 0 1 1;
#X connect 6 0 4 0;
#X connect 7 0 5 0;
#X coords 0 -1 1 1 150 40 2 100 100;
#X restore 101 -170 pd cpu;
#N canvas 220 60 471 607 audio 1;
#X obj -112 -129 autoscale;
#X obj -55 -86 autoscale;
#X obj -55 -69 reverse;
#X obj -21 -144 bng 15 250 50 0 empty empty empty 17 7 0 10 -262144
-1 -1;
#X msg 269 107 Bur.wav;
#X obj -112 -147 r torsoz;
#X obj -57 -119 r lhandy;
#X obj -110 134 throw~ samp1;
#X obj -113 -178 cnv 15 120 20 empty empty empty 20 12 0 14 -228856
-66577 0;
#X text -106 -177 phase vocoder;
#X obj -110 106 throw~ samp;
#X obj -112 -37 reverse;
#N canvas 587 95 667 609 audio 0;
#X obj -37 -12 cnv 15 140 20 empty empty empty 20 12 0 14 -228856 -66577
0;
#X text -36 -11 audio processing chain;
#X obj -31 23 catch~ samp1;
#N canvas 0 22 652 417 reverb 0;
#X obj 23 29 inlet~;
#X obj 23 53 reverb-echo echo-del1 5.43216;
#X obj 287 225 +~;
#X obj 329 225 +~;
#X obj 77 286 outlet~;
#X obj 147 286 outlet~;
#X obj 248 344 +~;
#X obj 357 345 +~;
#X obj 290 344 -~;
#X obj 397 344 -~;
#X obj 247 400 +~;
#X obj 291 401 +~;
#X obj 335 402 -~;
#X obj 374 402 -~;
#X obj 334 484 *~ 0;
#X obj 292 483 *~ 0;
#X obj 247 482 *~ 0;
#X obj 375 485 *~ 0;
#X obj 642 375 inlet;
#X obj 642 447 / 200;
#X obj 642 399 min 100;
#X obj 642 422 max 0;
#X obj 248 593 delwrite~ loop-del1 60;
#X obj 293 571 delwrite~ loop-del2 71.9345;
#X obj 374 525 delwrite~ loop-del4 95.945;
#X obj 308 164 delread~ loop-del1 60;
#X obj 350 189 delread~ loop-del2 71.9345;
#X obj 418 243 delread~ loop-del4 95.945;
#X obj 396 218 delread~ loop-del3 86.7545;
#X obj 335 548 delwrite~ loop-del3 86.7545;
#X obj 23 77 reverb-echo echo-del2 8.45346;
#X obj 23 101 reverb-echo echo-del3 13.4367;
#X obj 23 125 reverb-echo echo-del4 21.5463;
#X obj 23 149 reverb-echo echo-del5 34.3876;
#X obj 23 173 reverb-echo echo-del6 55.5437;
#X text 296 52 "early echo" generators \, which also increase echo
density. Open one to see what they do.;
#X text 310 125 Get the outputs of the recirculating delays. Add the
inputs to two of them.;
#X text 430 323 Do a power-conserving mix of them in pairs. First combine
(1 \, 2) and (3 \, 4)...;
#X text 412 395 ...then (1 \, 3) and (2 \, 4);
#X text 456 479 The two mixing stages have a combined gain of 2 \,
so the recirculation gain is limited to 0.5.;
#X text 596 552 Put the signals back into the;
#X text 594 567 recirculating delays.;
#X text 39 306 Tap outputs from here.;
#X text 718 391 0 to 100 to control reverb;
#X text 729 406 time.;
#X text 701 374 feedback gain on a scale of;
#X connect 0 0 1 0;
#X connect 1 0 30 0;
#X connect 1 1 30 1;
#X connect 2 0 4 0;
#X connect 2 0 6 0;
#X connect 2 0 8 0;
#X connect 3 0 5 0;
#X connect 3 0 6 1;
#X connect 3 0 8 1;
#X connect 6 0 10 0;
#X connect 6 0 12 0;
#X connect 7 0 12 1;
#X connect 7 0 10 1;
#X connect 8 0 11 0;
#X connect 8 0 13 0;
#X connect 9 0 11 1;
#X connect 9 0 13 1;
#X connect 10 0 16 0;
#X connect 11 0 15 0;
#X connect 12 0 14 0;
#X connect 13 0 17 0;
#X connect 14 0 29 0;
#X connect 15 0 23 0;
#X connect 16 0 22 0;
#X connect 17 0 24 0;
#X connect 18 0 20 0;
#X connect 19 0 17 1;
#X connect 19 0 16 1;
#X connect 19 0 15 1;
#X connect 19 0 14 1;
#X connect 20 0 21 0;
#X connect 21 0 19 0;
#X connect 25 0 2 1;
#X connect 26 0 3 1;
#X connect 27 0 7 1;
#X connect 27 0 9 1;
#X connect 28 0 7 0;
#X connect 28 0 9 0;
#X connect 30 0 31 0;
#X connect 30 1 31 1;
#X connect 31 0 32 0;
#X connect 31 1 32 1;
#X connect 32 0 33 0;
#X connect 32 1 33 1;
#X connect 33 0 34 0;
#X connect 33 1 34 1;
#X connect 34 0 2 0;
#X connect 34 1 3 0;
#X restore 144 126 pd reverb;
#X obj 195 105 - 10;
#X obj 144 153 *~ 0.9;
#X obj 195 84 * 80;
#X obj -31 348 throw~ samp1a;
#X obj 268 46 r headz;
#X obj 144 355 throw~ samp2a;
#X obj 195 40 -;
#X obj 195 63 / 2;
#X obj 246 15 r headz2;
#X obj 144 245 *~ 0.1;
#X obj 180 225 hsl 128 15 0 0.5 0 0 empty empty empty -2 -8 0 10 -262144
-1 -1 0 1;
#N canvas 0 22 450 300 rampR 0;
#X obj -7 110 line;
#X obj -7 59 inlet;
#X obj -7 85 * 30;
#N canvas 0 22 450 300 (subpatch) 0;
#X array envelopeR 100 float 1;
#A 0 -0.0285716 -0.0142858 0.0142858 0.0428574 0.0642861 0.0857148
0.121429 0.157144 0.178573 0.200001 0.22143 0.242859 0.264287 0.285716
0.307145 0.328573 0.350002 0.371431 0.39286 0.414288 0.44286 0.471431
0.500003 0.528575 0.542861 0.557146 0.571432 0.600004 0.600004 0.61429
0.61429 0.628575 0.657147 0.657147 0.66429 0.685719 0.685719 0.685719
0.685719 0.700004 0.671433 0.671433 0.671433 0.671433 0.671433 0.671433
0.671433 0.671433 0.671433 0.671433 0.671433 0.671433 0.671433 0.657147
0.657147 0.657147 0.657147 0.642861 0.628575 0.628575 0.61429 0.600004
0.571432 0.557146 0.557146 0.528575 0.528575 0.500003 0.485717 0.471431
0.44286 0.428574 0.414288 0.400002 0.371431 0.357145 0.342859 0.342859
0.328573 0.314288 0.314288 0.285716 0.27143 0.242859 0.242859 0.228573
0.214287 0.200001 0.185715 0.17143 0.157144 0.128572 0.100001 0.0785719
0.0571432 0.0500003 0.0428574 0.0142858 0 -0.0428574;
#X coords 0 1 99 -1 200 140 1;
#X restore 118 51 graph;
#X obj -7 161 outlet;
#X obj -7 136 tabread envelopeR;
#X connect 0 0 5 0;
#X connect 1 0 2 0;
#X connect 2 0 0 0;
#X connect 5 0 4 0;
#X restore 177 203 pd rampR;
#X obj 144 302 *~ -0.1;
#X obj 195 278 r headx;
#N canvas 317 43 366 222 rampRR 0;
#N canvas 0 22 450 300 (subpatch) 0;
#X array envelopeXRR 10 float 1;
#A 0 -0.0499978 0.164279 0.478552 0.578555 0.621413 0.635699 0.635699
0.549983 0.307129 0.107138;
#X coords 0 1 9 -1 200 140 1;
#X restore 124 53 graph;
#X obj -7 114 line;
#X obj -7 60 inlet;
#X obj -7 165 outlet;
#X obj -7 85 * 100;
#X obj -17 8 cnv 15 220 20 empty empty empty 20 12 0 14 -228856 -66577
0;
#X text -16 9 volume controlled envelop (X axis);
#X obj -7 140 tabread envelopeRR;
#X connect 1 0 7 0;
#X connect 2 0 4 0;
#X connect 4 0 1 0;
#X connect 7 0 3 0;
#X restore 195 300 pd rampRR;
#X obj 177 182 r torsoz;
#X obj 161 -5 r lfooty;
#X obj 217 -7 r rshouldery;
#X obj -27 276 wind;
#X obj 12 151 * 10;
#X obj 8 122 r headx;
#X floatatom 340 156 0 0 0 0 - - -;
#X floatatom 340 264 0 0 0 0 - - -;
#X obj 340 182 t f f f;
#X obj 368 213 + 1;
#X obj 396 213 + 2;
#X floatatom 382 263 0 0 0 0 - - -;
#X floatatom 425 264 0 0 0 0 - - -;
#X obj 340 239 pipe f f f 2000;
#X connect 2 0 3 0;
#X connect 2 0 22 1;
#X connect 3 0 5 0;
#X connect 3 1 5 0;
#X connect 4 0 3 1;
#X connect 5 0 13 0;
#X connect 6 0 4 0;
#X connect 10 0 11 0;
#X connect 11 0 6 0;
#X connect 13 0 16 0;
#X connect 14 0 13 1;
#X connect 15 0 14 0;
#X connect 17 0 18 0;
#X connect 18 0 16 1;
#X connect 19 0 15 0;
#X connect 20 0 10 0;
#X connect 21 0 10 1;
#X connect 22 0 7 0;
#X connect 23 0 25 0;
#X connect 24 0 23 0;
#X connect 25 0 27 0;
#X connect 27 0 32 0;
#X connect 27 1 28 0;
#X connect 27 2 29 0;
#X connect 28 0 32 1;
#X connect 29 0 32 2;
#X connect 30 0 22 0;
#X connect 32 0 26 0;
#X connect 32 1 30 0;
#X connect 32 2 31 0;
#X restore 124 -176 pd audio processing;
#N canvas 326 72 221 509 audio 1;
#N canvas 233 188 613 391 chorus 0;
#X obj 49 105 *~;
#X floatatom 23 48 0 0 0 0 - - -;
#X obj 131 88 line~;
#X floatatom -50 47 0 0 0 0 - - -;
#X obj -23 222 cos~;
#X obj -23 178 +~;
#X obj 49 73 osc~ 0;
#X obj 131 67 pack 0 50;
#X floatatom 106 44 0 0 0 0 - - -;
#X obj 131 45 / 100;
#X text 107 -8 modulation index;
#X text 108 3 in hundredths;
#X text -26 -8 carrier;
#X text -32 4 frequency;
#X text 43 -10 frequency;
#X text 39 5 modulation;
#X obj -23 74 phasor~;
#X obj 194 193 tabwrite~ phase-out;
#X obj 194 237 tabwrite~ cos-out;
#X msg 194 156 bang;
#X text 228 154 <-- graph them;
#X obj -23 256 hip~;
#X text 324 216 ramped to avoid;
#X text 323 232 clicks.);
#X text 323 200 (the index is;
#X obj 49 48 * 200;
#X obj -23 48 * 100;
#X obj -23 25 inlet;
#X obj 49 26 inlet;
#X obj 131 24 inlet;
#X obj -23 287 outlet~;
#X obj -26 -44 cnv 15 120 20 empty empty empty 20 12 0 14 -228856 -66577
0;
#X text -22 -43 chorus;
#X obj 194 134 loadbang;
#N canvas 0 22 450 300 (subpatch) 0;
#X array phase-out 441 float 1;
#A 0 0 0 0 0 0 0 0 0 0 0 0 0 0 0 0 0 0 0 0 0 0 0 0 0 0 0 0 0 0 0 0
0 0 0 0 0 0 0 0 0 0 0 0 0 0 0 0 0 0 0 0 0 0 0 0 0 0 0 0 0 0 0 0 0 0
0 0 0 0 0 0 0 0 0 0 0 0 0 0 0 0 0 0 0 0 0 0 0 0 0 0 0 0 0 0 0 0 0 0
0 0 0 0 0 0 0 0 0 0 0 0 0 0 0 0 0 0 0 0 0 0 0 0 0 0 0 0 0 0 0 0 0 0
0 0 0 0 0 0 0 0 0 0 0 0 0 0 0 0 0 0 0 0 0 0 0 0 0 0 0 0 0 0 0 0 0 0
0 0 0 0 0 0 0 0 0 0 0 0 0 0 0 0 0 0 0 0 0 0 0 0 0 0 0 0 0 0 0 0 0 0
0 0 0 0 0 0 0 0 0 0 0 0 0 0 0 0 0 0 0 0 0 0 0 0 0 0 0 0 0 0 0 0 0 0
0 0 0 0 0 0 0 0 0 0 0 0 0 0 0 0 0 0 0 0 0 0 0 0 0 0 0 0 0 0 0 0 0 0
0 0 0 0 0 0 0 0 0 0 0 0 0 0 0 0 0 0 0 0 0 0 0 0 0 0 0 0 0 0 0 0 0 0
0 0 0 0 0 0 0 0 0 0 0 0 0 0 0 0 0 0 0 0 0 0 0 0 0 0 0 0 0 0 0 0 0 0
0 0 0 0 0 0 0 0 0 0 0 0 0 0 0 0 0 0 0 0 0 0 0 0 0 0 0 0 0 0 0 0 0 0
0 0 0 0 0 0 0 0 0 0 0 0 0 0 0 0 0 0 0 0 0 0 0 0 0 0 0 0 0 0 0 0 0 0
0 0 0 0 0 0 0 0 0 0 0 0 0 0 0 0 0 0 0 0 0 0 0 0 0 0 0 0 0 0 0 0 0 0
0 0;
#X array cos-out 441 float 1;
#A 0 1 1 1 1 1 1 1 1 1 1 1 1 1 1 1 1 1 1 1 1 1 1 1 1 1 1 1 1 1 1 1
1 1 1 1 1 1 1 1 1 1 1 1 1 1 1 1 1 1 1 1 1 1 1 1 1 1 1 1 1 1 1 1 1 1
1 1 1 1 1 1 1 1 1 1 1 1 1 1 1 1 1 1 1 1 1 1 1 1 1 1 1 1 1 1 1 1 1 1
1 1 1 1 1 1 1 1 1 1 1 1 1 1 1 1 1 1 1 1 1 1 1 1 1 1 1 1 1 1 1 1 1 1
1 1 1 1 1 1 1 1 1 1 1 1 1 1 1 1 1 1 1 1 1 1 1 1 1 1 1 1 1 1 1 1 1 1
1 1 1 1 1 1 1 1 1 1 1 1 1 1 1 1 1 1 1 1 1 1 1 1 1 1 1 1 1 1 1 1 1 1
1 1 1 1 1 1 1 1 1 1 1 1 1 1 1 1 1 1 1 1 1 1 1 1 1 1 1 1 1 1 1 1 1 1
1 1 1 1 1 1 1 1 1 1 1 1 1 1 1 1 1 1 1 1 1 1 1 1 1 1 1 1 1 1 1 1 1 1
1 1 1 1 1 1 1 1 1 1 1 1 1 1 1 1 1 1 1 1 1 1 1 1 1 1 1 1 1 1 1 1 1 1
1 1 1 1 1 1 1 1 1 1 1 1 1 1 1 1 1 1 1 1 1 1 1 1 1 1 1 1 1 1 1 1 1 1
1 1 1 1 1 1 1 1 1 1 1 1 1 1 1 1 1 1 1 1 1 1 1 1 1 1 1 1 1 1 1 1 1 1
1 1 1 1 1 1 1 1 1 1 1 1 1 1 1 1 1 1 1 1 1 1 1 1 1 1 1 1 1 1 1 1 1 1
1 1 1 1 1 1 1 1 1 1 1 1 1 1 1 1 1 1 1 1 1 1 1 1 1 1 1 1 1 1 1 1 1 1
1 1;
#X coords 0 1 440 -1 200 140 1;
#X restore 260 11 graph;
#X connect 0 0 5 1;
#X connect 2 0 0 1;
#X connect 4 0 18 0;
#X connect 4 0 21 0;
#X connect 5 0 4 0;
#X connect 5 0 17 0;
#X connect 6 0 0 0;
#X connect 7 0 2 0;
#X connect 9 0 7 0;
#X connect 16 0 5 0;
#X connect 19 0 17 0;
#X connect 19 0 18 0;
#X connect 21 0 30 0;
#X connect 25 0 1 0;
#X connect 25 0 6 0;
#X connect 26 0 3 0;
#X connect 26 0 16 0;
#X connect 27 0 26 0;
#X connect 28 0 25 0;
#X connect 29 0 8 0;
#X connect 29 0 9 0;
#X connect 33 0 19 0;
#X restore -96 187 pd chorus 1;
#X obj 38 173 bng 15 250 50 0 empty empty empty 17 7 0 10 -262144 -1
-1;
#N canvas 1016 165 564 597 mouthsizer 0;
#X floatatom -171 89 5 0 0 0 - - -;
#X floatatom -126 90 5 0 0 0 - - -;
#N canvas 0 22 1284 968 vocalchords 0;
#X obj 2 6 cnv 15 400 300 empty empty empty 20 12 0 14 -258113 -66577
0;
#X text 3 19 frequency;
#X obj 10 273 outlet~;
#X obj 10 40 inlet~;
#X text 75 59 Modello del comportamento delle corde vocali umane attraverso
una simulazione di una pulsazione continua.;
#X obj 11 134 phasor~;
#X connect 3 0 5 0;
#X connect 5 0 2 0;
#X restore -292 235 pd vocalchords;
#X obj -292 277 *~ 0.65;
#N canvas 76 134 398 301 linearizza 0;
#X obj 7 -582 cnv 15 400 300 empty empty empty 20 12 0 14 -260097 -66577
0;
#N canvas 0 22 1028 726 linearizza 0;
#X obj 56 -539 inlet;
#X obj 177 -538 inlet;
#X obj 286 -539 inlet;
#X obj 108 -488 -;
#X obj 239 -485 -;
#X text 12 -565 da linearizzare;
#X text 175 -563 minimo;
#X text 284 -564 massimo;
#X obj 170 -443 /;
#X obj 121 -401 moses 0;
#X obj 172 -362 moses 1;
#X obj 172 -297 outlet;
#X floatatom 207 -412 5 0 0 0 - - -;
#X floatatom 231 -298 5 0 0 0 - - -;
#X msg 121 -362 0;
#X msg 223 -331 1;
#X connect 0 0 3 0;
#X connect 1 0 3 1;
#X connect 1 0 4 1;
#X connect 2 0 4 0;
#X connect 3 0 8 0;
#X connect 4 0 8 1;
#X connect 8 0 9 0;
#X connect 8 0 12 0;
#X connect 9 0 14 0;
#X connect 9 1 10 0;
#X connect 10 0 11 0;
#X connect 10 0 13 0;
#X connect 10 1 15 0;
#X connect 14 0 11 0;
#X connect 15 0 11 0;
#X restore 52 -470 pd linearizza X;
#X floatatom 52 -442 5 0 0 0 - - -;
#X text 77 -550 250 (min);
#X text 139 -551 800 (max);
#N canvas 0 22 458 378 linearizza 0;
#X obj 56 40 inlet;
#X obj 177 41 inlet;
#X obj 286 40 inlet;
#X obj 108 91 -;
#X obj 239 94 -;
#X text 12 14 da linearizzare;
#X text 175 16 minimo;
#X text 284 15 massimo;
#X obj 170 136 /;
#X obj 121 178 moses 0;
#X obj 172 217 moses 1;
#X obj 172 282 outlet;
#X floatatom 207 167 5 0 0 0 - - -;
#X floatatom 231 281 5 0 0 0 - - -;
#X msg 121 217 0;
#X msg 223 248 1;
#X connect 0 0 3 0;
#X connect 1 0 3 1;
#X connect 1 0 4 1;
#X connect 2 0 4 0;
#X connect 3 0 8 0;
#X connect 4 0 8 1;
#X connect 8 0 9 0;
#X connect 8 0 12 0;
#X connect 9 0 14 0;
#X connect 9 1 10 0;
#X connect 10 0 11 0;
#X connect 10 0 13 0;
#X connect 10 1 15 0;
#X connect 14 0 11 0;
#X connect 15 0 11 0;
#X restore 225 -470 pd linearizza Y;
#X floatatom 225 -443 5 0 0 0 - - -;
#X text 259 -552 800 (min);
#X obj 52 -577 inlet;
#X obj 225 -578 inlet;
#X text 28 -351 Questa subpatch effettua la sclatura dei valori dell'asse
X e Y in entrata \, attraverso un'astrazione contenuta nella subapatch
'linearizza'. I valori in uscita corrispondono ai segnali di controllo
della frequenza (Hz) dei filtri delle formanti.;
#X obj 52 -375 outlet;
#X obj 225 -375 outlet;
#X obj 52 -398 + 250;
#X obj 225 -398 + 800;
#X obj 95 -526 inlet;
#X text 326 -551 3000 (max);
#X obj 139 -526 inlet;
#X obj 268 -527 inlet;
#X obj 312 -526 inlet;
#X msg 140 -499 1;
#X msg 95 -500 0;
#X msg 268 -499 0;
#X msg 312 -499 1;
#X obj 52 -421 * 500;
#X obj 225 -423 * 1500;
#X connect 1 0 2 0;
#X connect 2 0 24 0;
#X connect 5 0 6 0;
#X connect 6 0 25 0;
#X connect 8 0 1 0;
#X connect 9 0 5 0;
#X connect 13 0 11 0;
#X connect 14 0 12 0;
#X connect 15 0 21 0;
#X connect 17 0 20 0;
#X connect 18 0 22 0;
#X connect 19 0 23 0;
#X connect 20 0 1 2;
#X connect 21 0 1 1;
#X connect 22 0 5 1;
#X connect 23 0 5 2;
#X connect 24 0 13 0;
#X connect 25 0 14 0;
#X restore -171 206 pd linearizza;
#N canvas 32 22 450 734 mouth 0;
#X obj 2 -451 cnv 15 400 600 empty empty empty 20 12 0 14 -257985 -66577
0;
#X obj 128 100 outlet~;
#X obj 129 64 /~ 2;
#X text 157 -274 (gain);
#X text 290 -272 (bandwidth);
#X text 206 -83 (gain);
#X text 333 -84 (bandwidth);
#N canvas 0 22 1284 968 formant 0;
#X obj 138 24 inlet~;
#X obj 192 69 inlet;
#X obj 235 210 inlet;
#X obj 220 117 inlet;
#X text 204 51 freq;
#X text 239 190 gain;
#X text 227 97 bw;
#X obj 137 438 outlet~;
#X obj 235 233 rmstodb;
#X obj 235 264 * 0.3;
#X obj 136 392 *~;
#X obj 153 243 sig~;
#X obj 139 336 vcf~;
#X connect 0 0 12 0;
#X connect 1 0 11 0;
#X connect 2 0 8 0;
#X connect 3 0 12 2;
#X connect 8 0 9 0;
#X connect 9 0 10 1;
#X connect 10 0 7 0;
#X connect 11 0 12 1;
#X connect 12 0 10 0;
#X restore 130 -165 pd formant 1;
#N canvas 0 22 1284 956 formant 0;
#X obj 138 24 inlet~;
#X obj 192 69 inlet;
#X obj 251 171 inlet;
#X obj 233 96 inlet;
#X text 204 51 freq;
#X text 255 151 gain;
#X text 240 76 bw;
#X obj 137 438 outlet~;
#X obj 251 194 rmstodb;
#X obj 251 225 * 0.3;
#X obj 136 392 *~;
#X obj 137 352 vcf~;
#X obj 155 235 sig~;
#X connect 0 0 11 0;
#X connect 1 0 12 0;
#X connect 2 0 8 0;
#X connect 3 0 11 2;
#X connect 8 0 9 0;
#X connect 9 0 10 1;
#X connect 10 0 7 0;
#X connect 11 0 10 0;
#X connect 12 0 11 1;
#X restore 177 18 pd formant 2;
#X obj 16 -314 inlet~;
#X obj 153 -320 inlet;
#X floatatom 153 -207 5 0 0 0 - - -;
#X floatatom 200 -24 5 0 0 0 - - -;
#X text 27 -436 Questa subpatch funge da modello della produzione della
vocali da parte della bocca umana. Qui troviamo i due filtri \, corrispondenti
alle due formanti principali F1 e F2 \, contenuti nella subpatch 'pd
formant'. I segnali in ingresso corrispondono al segnale di controllo
dei filtri \, e alla frequenza fondamentale di ogni formante.;
#X text 190 -320 (frequency);
#X text 235 -116 (frequency);
#X obj 200 -114 inlet;
#X obj 199 -274 inlet;
#X obj 254 -273 inlet;
#X obj 246 -86 inlet;
#X obj 297 -84 inlet;
#X msg 246 -54 0.0001;
#X msg 199 -250 0.0002;
#X msg 297 -55 70;
#X msg 254 -249 50;
#X connect 2 0 1 0;
#X connect 7 0 2 0;
#X connect 8 0 2 0;
#X connect 9 0 7 0;
#X connect 9 0 8 0;
#X connect 10 0 11 0;
#X connect 11 0 7 1;
#X connect 12 0 8 1;
#X connect 16 0 12 0;
#X connect 17 0 22 0;
#X connect 18 0 24 0;
#X connect 19 0 21 0;
#X connect 20 0 23 0;
#X connect 21 0 8 3;
#X connect 22 0 7 3;
#X connect 23 0 8 2;
#X connect 24 0 7 2;
#X coords 0 0 1 1 85 60 0;
#X restore -177 293 pd mouth;
#N canvas 649 169 549 378 signal 0;
#X obj -1 -515 cnv 15 350 300 empty empty empty 20 12 0 14 -258113
-66577 0;
#X obj 15 -395 sig~;
#X obj 15 -294 +~;
#X obj 75 -356 *~;
#X obj 76 -463 *~ 8;
#X obj 89 -384 line~;
#X obj 75 -500 osc~ 5;
#X obj 15 -432 inlet;
#X obj 89 -414 inlet;
#X obj 14 -264 outlet~;
#X connect 1 0 2 0;
#X connect 2 0 9 0;
#X connect 3 0 2 1;
#X connect 4 0 3 0;
#X connect 5 0 3 1;
#X connect 6 0 4 0;
#X connect 7 0 1 0;
#X connect 8 0 5 0;
#X restore -292 211 pd signal;
#X floatatom -171 140 5 0 0 0 - - -;
#X floatatom -126 143 5 0 0 0 - - -;
#X obj 94 191 bng 15 250 50 0 empty empty empty 17 7 0 10 -262144 -1
-1;
#X obj -171 115 - 0.1;
#X obj -126 116 + 0.1;
#X text -84 88 Formant Frequency;
#X text -200 113 F1;
#X text -84 115 F2;
#X text -116 295 Formant Filter;
#X obj -171 66 inlet;
#X obj -126 67 inlet;
#X obj -177 336 outlet~;
#X obj -294 10 cnv 15 120 20 empty empty empty 20 12 0 14 -228856 -66577
0;
#X text -290 11 mouth synthetizer;
#X msg -292 184 220;
#X obj -292 160 loadbang;
#X obj 94 168 loadbang;
#X connect 0 0 10 0;
#X connect 1 0 11 0;
#X connect 2 0 3 0;
#X connect 3 0 5 0;
#X connect 4 0 5 1;
#X connect 4 1 5 3;
#X connect 5 0 18 0;
#X connect 6 0 2 0;
#X connect 7 0 4 0;
#X connect 8 0 4 3;
#X connect 9 0 4 1;
#X connect 9 0 4 2;
#X connect 9 0 4 4;
#X connect 9 0 4 5;
#X connect 9 0 5 2;
#X connect 9 0 5 4;
#X connect 9 0 5 5;
#X connect 9 0 5 6;
#X connect 10 0 7 0;
#X connect 11 0 8 0;
#X connect 16 0 0 0;
#X connect 17 0 1 0;
#X connect 21 0 6 0;
#X connect 22 0 21 0;
#X connect 23 0 9 0;
#X restore -100 60 pd mouthsizer;
#X obj -96 121 r heady;
#X obj -25 38 r lfootx;
#X obj -96 210 throw~ samp2b;
#X obj -13 351 line~;
#X obj 8 283 autoscale;
#X obj -53 302 reverse;
#X msg -53 330 \$1 20;
#X floatatom 36 305 5 0 0 0 - - -;
#X obj -14 215 r rhandy;
#X obj -102 5 cnv 15 120 20 empty empty empty 20 12 0 14 -228856 -66577
0;
#X text -98 6 audio synthesis;
#X obj -100 39 r neckx;
#X obj -13 374 throw~ samp3b;
#N canvas 629 439 455 281 distortion 0;
#X obj -34 -23 unpack f f;
#X obj 33 -24 unpack f f;
#X obj 23 32 t f f;
#X obj 22 57 *;
#X obj -34 29 t f f;
#X obj -34 55 *;
#X obj -34 111 sqrt;
#X obj -34 3 - \$1;
#X obj 23 4 - \$2;
#X obj -34 -47 inlet;
#X obj 33 -48 inlet;
#X obj -142 153 outlet~;
#X obj -158 -83 cnv 15 120 20 empty empty empty 20 12 0 14 -228856
-66577 0;
#X text -155 -82 distortion;
#X floatatom -34 136 5 0 0 0 - - -;
#X obj -34 87 -;
#X obj -142 46 phasor~ 60;
#X obj -142 128 *~ 0.5;
#X floatatom -88 -47 5 0 0 0 - - -;
#X floatatom 25 -68 5 0 0 0 - - -;
#X obj 27 127 hsl 128 15 0 0.5 0 0 empty empty empty -2 -8 0 10 -262144
-1 -1 0 1;
#X obj -142 102 clip~ -0.8 1.08;
#X obj -142 75 *~ 0.5;
#N canvas 0 22 450 300 ramp3 0;
#N canvas 0 22 450 300 (subpatch) 0;
#X array envelopeD 10 float 1;
#A 0 -0.0499978 0.164279 0.478552 0.578555 0.621413 0.635699 0.635699
0.549983 0.307129 0.107138;
#X coords 0 1 9 -1 200 140 1;
#X restore 144 73 graph;
#X obj 13 134 line;
#X obj 13 80 inlet;
#X obj 13 185 outlet;
#X obj 13 105 * 100;
#X obj 13 160 tabread envelopeD;
#X connect 1 0 5 0;
#X connect 2 0 4 0;
#X connect 4 0 1 0;
#X connect 5 0 3 0;
#X restore 26 101 pd ramp3;
#X connect 0 0 7 0;
#X connect 0 1 8 0;
#X connect 1 0 7 1;
#X connect 1 1 8 1;
#X connect 2 0 3 0;
#X connect 2 1 3 1;
#X connect 3 0 15 1;
#X connect 4 0 5 0;
#X connect 4 1 5 1;
#X connect 5 0 15 0;
#X connect 6 0 14 0;
#X connect 7 0 4 0;
#X connect 8 0 2 0;
#X connect 9 0 0 0;
#X connect 10 0 1 0;
#X connect 10 0 23 0;
#X connect 14 0 22 1;
#X connect 15 0 6 0;
#X connect 16 0 22 0;
#X connect 17 0 11 0;
#X connect 18 0 0 0;
#X connect 19 0 1 0;
#X connect 20 0 17 1;
#X connect 21 0 17 0;
#X connect 22 0 21 0;
#X connect 23 0 20 0;
#X restore -99 460 pd distortion;
#X obj -99 436 autoscale;
#X obj -24 436 autoscale;
#X obj -100 395 r rhandx;
#X obj -99 485 throw~ samp4b;
#X floatatom 64 234 5 0 0 0 - - -;
#X obj 19 118 r lost;
#X obj -13 257 * 0.5;
#X obj -92 246 r relbowy;
#X obj -24 400 r lhandx;
#X obj -53 162 r lhandx;
#X obj -75 141 r lfootz;
#X connect 0 0 5 0;
#X connect 1 0 7 3;
#X connect 1 0 18 3;
#X connect 1 0 17 3;
#X connect 4 0 2 1;
#X connect 6 0 15 0;
#X connect 7 0 8 0;
#X connect 8 0 9 0;
#X connect 9 0 6 0;
#X connect 14 0 2 0;
#X connect 16 0 20 0;
#X connect 17 0 16 0;
#X connect 18 0 16 1;
#X connect 21 0 23 0;
#X connect 22 0 1 0;
#X connect 24 0 23 0;
#X connect 24 0 7 0;
#X restore 130 -155 pd audio synthesis;
#X floatatom 60 -118 5 0 0 0 - - -;
#X floatatom 60 -88 5 0 0 0 - - -;
#X obj 14 -166 r lost;
#X floatatom 111 68 5 0 0 0 - - -;
#X floatatom 142 32 5 0 0 0 - - -;
#X obj -112 67 *~;
#X obj 86 126 catch~ samp3b;
#X obj -31 106 throw~ sampO;
#X floatatom -23 -3 5 0 0 0 - - -;
#X floatatom -100 -3 5 0 0 0 - - -;
#X obj -102 258 r lhandy;
#X obj -40 258 r rhandy;
#X obj 67 257 r lhandx;
#X obj 130 257 r rhandx;
#X obj 233 257 r lfooty;
#X obj 295 257 r rfooty;
#X floatatom -102 292 5 0 0 0 - - -;
#X floatatom -38 292 5 0 0 0 - - -;
#X floatatom 67 290 5 0 0 0 - - -;
#X floatatom 130 289 5 0 0 0 - - -;
#X floatatom 235 291 5 0 0 0 - - -;
#X floatatom 300 291 5 0 0 0 - - -;
#X msg 4 -1 No1a.wav;
#X obj -112 28 phasevocoder No1a.wav;
#X obj -61 68 hsl 128 15 0 100 0 0 empty empty empty -2 -8 0 10 -262144
-1 -1 0 1;
#X obj -53 -24 hip 0.11;
#X connect 0 0 11 0;
#X connect 1 0 2 0;
#X connect 2 0 17 0;
#X connect 2 0 22 0;
#X connect 2 0 39 0;
#X connect 3 0 1 3;
#X connect 3 0 0 3;
#X connect 5 0 0 0;
#X connect 6 0 18 0;
#X connect 6 0 1 0;
#X connect 11 0 23 0;
#X connect 11 0 37 0;
#X connect 14 0 1 0;
#X connect 15 0 0 0;
#X connect 16 0 3 0;
#X connect 19 0 10 0;
#X connect 19 0 7 0;
#X connect 19 0 21 0;
#X connect 24 0 30 0;
#X connect 25 0 31 0;
#X connect 26 0 32 0;
#X connect 27 0 33 0;
#X connect 28 0 34 0;
#X connect 29 0 35 0;
#X connect 36 0 37 3;
#X connect 37 0 19 0;
#X connect 38 0 19 1;
#X connect 39 0 37 1;
#X coords 0 -1 1 1 270 32 2 -36 -47;
#X restore -180 -165 pd audio;
#X obj -352 -111 cnv 15 615 150 empty empty empty 20 12 0 14 -99865
-66577 0;
#N canvas 334 208 665 544 panning 1;
#X obj -17 9 cnv 15 120 20 empty empty empty 20 12 0 14 -228856 -66577
0;
#X obj 71 471 dac~ 1 2 3 4;
#X obj 107 121 hsl 128 15 0 0.25 0 0 empty empty empty -2 -8 0 10 -262144
-1 -1 0 1;
#X text 162 120 M;
#X text 225 119 R;
#X text 113 120 L;
#X obj 107 157 hsl 128 15 0 0.25 0 0 empty empty empty -2 -8 0 10 -262144
-1 -1 0 1;
#X text 162 156 M;
#X text 225 155 R;
#X text 115 155 L;
#X text 105 103 1;
#X text 225 104 2;
#X text 226 172 3;
#X text 105 172 4;
#X obj 70 391 eq_pan;
#X obj 69 207 catch~ audio1a;
#X obj 237 473 dac~ 1 2 3 4;
#X obj 269 123 hsl 128 15 0 0.25 0 0 empty empty empty -2 -8 0 10 -262144
-1 -1 0 1;
#X text 324 122 M;
#X text 387 121 R;
#X text 271 122 L;
#X obj 269 163 hsl 128 15 0 0.25 0 0 empty empty empty -2 -8 0 10 -262144
-1 -1 0 1;
#X text 324 162 M;
#X text 387 161 R;
#X text 271 162 L;
#X text 267 105 1;
#X text 389 104 2;
#X text 389 177 3;
#X text 263 178 4;
#X obj 370 473 dac~ 1 2 3 4;
#X obj 233 206 catch~ audio2a;
#X obj 505 208 catch~ audio4bb;
#X obj 360 208 catch~ samp2bb;
#X text -13 9 panning - dsp;
#X obj 17 498 throw~ speaker1;
#X obj 231 499 throw~ speaker2;
#X obj 389 495 throw~ speaker3;
#X obj 522 499 throw~ speaker4;
#X obj 363 318 *~ -1;
#X obj 235 328 *~ -1;
#X obj 405 241 *~ 1;
#X obj 13 53 r torsox;
#X obj 13 79 / 2;
#X floatatom 159 210 5 0 0 0 - - -;
#X obj 69 312 *~ -1;
#X obj 133 391 eq_pan;
#X obj 234 391 eq_pan;
#X obj 297 391 eq_pan;
#X obj 361 380 eq_pan;
#X obj 424 380 eq_pan;
#X obj 504 236 eq_pan;
#X obj 567 236 eq_pan;
#X floatatom 144 79 5 0 0 0 - - -;
#X obj 13 104 - 0.1;
#X obj 235 302 reverberator;
#X obj 302 226 r lhandx;
#X obj 319 247 r rhandx;
#X obj 304 272 -;
#X obj 134 275 *~;
#X obj 152 246 hsl 128 15 0 127 0 0 empty empty empty -2 -8 0 10 -262144
-1 -1 12700 1;
#X obj 1 189 * 10;
#X obj 0 143 r heady;
#X floatatom 469 58 0 0 0 0 - - -;
#X floatatom 469 166 0 0 0 0 - - -;
#X obj 469 84 t f f f;
#X obj 497 115 + 1;
#X obj 525 115 + 2;
#X floatatom 511 165 0 0 0 0 - - -;
#X floatatom 554 166 0 0 0 0 - - -;
#X obj 469 141 pipe f f f 2000;
#X connect 2 0 14 1;
#X connect 6 0 43 0;
#X connect 6 0 45 1;
#X connect 14 0 1 0;
#X connect 14 0 34 0;
#X connect 14 1 1 1;
#X connect 14 1 35 0;
#X connect 15 0 58 0;
#X connect 17 0 46 1;
#X connect 17 0 48 1;
#X connect 21 0 47 1;
#X connect 21 0 49 1;
#X connect 30 0 54 0;
#X connect 38 0 48 0;
#X connect 38 0 49 0;
#X connect 39 0 46 0;
#X connect 39 0 47 0;
#X connect 41 0 42 0;
#X connect 41 0 52 0;
#X connect 42 0 53 0;
#X connect 44 0 14 0;
#X connect 44 0 45 0;
#X connect 45 0 1 3;
#X connect 45 0 36 0;
#X connect 45 1 1 2;
#X connect 45 1 37 0;
#X connect 46 0 16 0;
#X connect 46 0 34 0;
#X connect 46 1 16 1;
#X connect 46 1 35 0;
#X connect 47 0 16 3;
#X connect 47 0 36 0;
#X connect 47 1 16 2;
#X connect 47 1 37 0;
#X connect 48 0 29 0;
#X connect 48 0 34 0;
#X connect 48 1 29 1;
#X connect 48 1 35 0;
#X connect 49 0 29 3;
#X connect 49 0 36 0;
#X connect 49 1 29 2;
#X connect 49 1 37 0;
#X connect 53 0 2 0;
#X connect 53 0 6 0;
#X connect 53 0 21 0;
#X connect 53 0 17 0;
#X connect 54 0 39 0;
#X connect 55 0 57 0;
#X connect 56 0 57 1;
#X connect 57 0 54 1;
#X connect 58 0 44 0;
#X connect 59 0 58 1;
#X connect 60 0 62 0;
#X connect 61 0 60 0;
#X connect 62 0 64 0;
#X connect 63 0 59 0;
#X connect 64 0 69 0;
#X connect 64 1 65 0;
#X connect 64 2 66 0;
#X connect 65 0 69 1;
#X connect 66 0 69 2;
#X connect 69 0 63 0;
#X connect 69 1 67 0;
#X connect 69 2 68 0;
#X coords 0 -1 1 1 148 89 2 100 100;
#X restore 96 -77 pd panning;
#X obj -352 43 cnv 15 615 230 empty empty empty 20 12 0 14 -191407
-66577 0;
#N canvas 592 424 626 287 sound 0;
#N canvas 535 388 747 384 mixer 0;
#N canvas 515 341 443 369 output_mixer 0;
#X obj -167 36 inlet~ dry;
#X obj -168 334 outlet~;
#X obj -61 275 *~;
#X obj -10 275 *~;
#X obj -121 275 *~;
#X obj -168 306 *~;
#X obj -121 306 *~;
#X obj -153 232 * -1;
#X obj -153 254 + 1;
#X obj 111 309 hsl 128 15 0 1 0 1 empty empty dry/wet -2 -6 0 8 -162280
-1 -1 0 1;
#X obj 110 166 vsl 15 128 0 1 0 1 empty empty BASS 0 -8 0 8 -228856
-1 -1 12000 1;
#X obj 165 166 vsl 15 128 0 1 0 1 empty empty MIDS 0 -8 0 8 -228856
-1 -1 11700 1;
#X obj 224 166 vsl 15 128 0 1 0 1 empty empty HIGHS 0 -8 0 8 -228856
-1 -1 11700 1;
#N canvas 23 90 450 300 biquad 0;
#X obj 44 248 outlet~;
#X obj 42 143 biquad~;
#X obj 43 163 biquad~;
#X obj 43 183 biquad~;
#X obj 12 119 lowpass 370 310;
#X obj 171 143 biquad~;
#X obj 170 163 biquad~;
#X obj 170 184 biquad~;
#X obj 140 120 bandpass 1175 490;
#X obj 282 120 highpass 2350 130;
#X obj 311 143 biquad~;
#X obj 311 163 biquad~;
#X obj 140 34 loadbang;
#X obj 170 248 outlet~;
#X obj 312 248 outlet~;
#X obj 43 34 inlet~ signal;
#X obj 283 61 switch~;
#X obj 283 32 inlet switch;
#X connect 1 0 2 0;
#X connect 2 0 3 0;
#X connect 3 0 0 0;
#X connect 4 0 1 0;
#X connect 4 0 2 0;
#X connect 4 0 3 0;
#X connect 5 0 6 0;
#X connect 6 0 7 0;
#X connect 7 0 13 0;
#X connect 8 0 5 0;
#X connect 8 0 6 0;
#X connect 8 0 7 0;
#X connect 9 0 10 0;
#X connect 9 0 11 0;
#X connect 10 0 11 0;
#X connect 11 0 14 0;
#X connect 12 0 4 0;
#X connect 12 0 8 0;
#X connect 12 0 9 0;
#X connect 15 0 1 0;
#X connect 15 0 5 0;
#X connect 15 0 10 0;
#X connect 17 0 16 0;
#X restore -122 81 pd biquad filter bank;
#X obj 110 125 tgl 15 0 empty empty empty 17 7 0 10 -228856 -1 -1 0
1;
#N canvas 0 22 694 432 biquad 0;
#X obj 76 35 inlet~;
#X obj 77 379 outlet~;
#X obj 203 379 outlet~;
#X obj 345 379 outlet~;
#X obj 76 90 biquad~ 1.86972 -0.872325 0.000650245 0.00130049 0.000650245
;
#X text 195 69 lo x3;
#X obj 76 110 biquad~ 1.86972 -0.872325 0.000650245 0.00130049 0.000650245
;
#X obj 76 130 biquad~ 1.86972 -0.872325 0.000650245 0.00130049 0.000650245
;
#X obj 204 182 biquad~ 1.36591 -0.385279 0.307361 0 -0.307361;
#X text 339 162 mid x3;
#X obj 204 202 biquad~ 1.36591 -0.385279 0.307361 0 -0.307361;
#X obj 204 222 biquad~ 1.36591 -0.385279 0.307361 0 -0.307361;
#X obj 346 273 biquad~ 1.63386 -0.729864 0.840931 -1.68186 0.840931
;
#X text 486 251 hi x2;
#X obj 346 293 biquad~ 1.63386 -0.729864 0.840931 -1.68186 0.840931
;
#X obj 265 64 switch~;
#X obj 265 35 inlet switch;
#X connect 0 0 4 0;
#X connect 0 0 8 0;
#X connect 0 0 12 0;
#X connect 4 0 6 0;
#X connect 6 0 7 0;
#X connect 7 0 1 0;
#X connect 8 0 10 0;
#X connect 10 0 11 0;
#X connect 11 0 2 0;
#X connect 12 0 14 0;
#X connect 14 0 3 0;
#X connect 16 0 15 0;
#X restore -111 106 pd biquad filter bank 2;
#X obj 225 127 tgl 15 0 empty empty empty 17 7 0 10 -128992 -1 -1 0
1;
#X obj -169 8 cnv 15 120 20 empty empty empty 20 12 0 14 -228856 -66577
0;
#X text -165 9 mixer;
#X connect 0 0 5 0;
#X connect 0 0 13 0;
#X connect 0 0 15 0;
#X connect 2 0 6 0;
#X connect 3 0 6 0;
#X connect 4 0 6 0;
#X connect 5 0 1 0;
#X connect 6 0 1 0;
#X connect 7 0 8 0;
#X connect 8 0 5 1;
#X connect 9 0 7 0;
#X connect 9 0 6 1;
#X connect 10 0 4 1;
#X connect 11 0 2 1;
#X connect 12 0 3 1;
#X connect 13 0 4 0;
#X connect 13 1 2 0;
#X connect 13 2 3 0;
#X connect 14 0 13 1;
#X connect 15 0 4 0;
#X connect 15 1 2 0;
#X connect 15 2 3 0;
#X connect 16 0 15 1;
#X coords 0 -1 1 1 150 230 2 100 100;
#X restore 100 100 pd output_mixer;
#N canvas 515 341 434 385 output_mixer 0;
#X obj -164 54 inlet~ dry;
#X obj -165 352 outlet~;
#X obj -58 293 *~;
#X obj 4 294 *~;
#X obj -118 293 *~;
#X obj -165 324 *~;
#X obj -118 324 *~;
#X obj -150 250 * -1;
#X obj -150 272 + 1;
#X obj 111 309 hsl 128 15 0 1 0 1 empty empty dry/wet -2 -6 0 8 -162280
-1 -1 0 1;
#X obj 110 166 vsl 15 128 0 1 0 1 empty empty BASS 0 -8 0 8 -228856
-1 -1 12700 1;
#X obj 165 166 vsl 15 128 0 1 0 1 empty empty MIDS 0 -8 0 8 -228856
-1 -1 12700 1;
#X obj 224 166 vsl 15 128 0 1 0 1 empty empty HIGHS 0 -8 0 8 -228856
-1 -1 12700 1;
#N canvas 23 90 450 300 biquad 0;
#X obj 44 248 outlet~;
#X obj 42 143 biquad~;
#X obj 43 163 biquad~;
#X obj 43 183 biquad~;
#X obj 12 119 lowpass 370 310;
#X obj 171 143 biquad~;
#X obj 170 163 biquad~;
#X obj 170 184 biquad~;
#X obj 140 120 bandpass 1175 490;
#X obj 282 120 highpass 2350 130;
#X obj 311 143 biquad~;
#X obj 311 163 biquad~;
#X obj 140 34 loadbang;
#X obj 170 248 outlet~;
#X obj 312 248 outlet~;
#X obj 43 34 inlet~ signal;
#X obj 283 61 switch~;
#X obj 283 32 inlet switch;
#X connect 1 0 2 0;
#X connect 2 0 3 0;
#X connect 3 0 0 0;
#X connect 4 0 1 0;
#X connect 4 0 2 0;
#X connect 4 0 3 0;
#X connect 5 0 6 0;
#X connect 6 0 7 0;
#X connect 7 0 13 0;
#X connect 8 0 5 0;
#X connect 8 0 6 0;
#X connect 8 0 7 0;
#X connect 9 0 10 0;
#X connect 9 0 11 0;
#X connect 10 0 11 0;
#X connect 11 0 14 0;
#X connect 12 0 4 0;
#X connect 12 0 8 0;
#X connect 12 0 9 0;
#X connect 15 0 1 0;
#X connect 15 0 5 0;
#X connect 15 0 10 0;
#X connect 17 0 16 0;
#X restore -119 99 pd biquad filter bank;
#X obj 110 125 tgl 15 0 empty empty empty 17 7 0 10 -228856 -1 -1 0
1;
#N canvas 0 22 694 432 biquad 0;
#X obj 76 35 inlet~;
#X obj 77 379 outlet~;
#X obj 203 379 outlet~;
#X obj 345 379 outlet~;
#X obj 76 90 biquad~ 1.86972 -0.872325 0.000650245 0.00130049 0.000650245
;
#X text 195 69 lo x3;
#X obj 76 110 biquad~ 1.86972 -0.872325 0.000650245 0.00130049 0.000650245
;
#X obj 76 130 biquad~ 1.86972 -0.872325 0.000650245 0.00130049 0.000650245
;
#X obj 204 182 biquad~ 1.36591 -0.385279 0.307361 0 -0.307361;
#X text 339 162 mid x3;
#X obj 204 202 biquad~ 1.36591 -0.385279 0.307361 0 -0.307361;
#X obj 204 222 biquad~ 1.36591 -0.385279 0.307361 0 -0.307361;
#X obj 346 273 biquad~ 1.63386 -0.729864 0.840931 -1.68186 0.840931
;
#X text 486 251 hi x2;
#X obj 346 293 biquad~ 1.63386 -0.729864 0.840931 -1.68186 0.840931
;
#X obj 265 64 switch~;
#X obj 265 35 inlet switch;
#X connect 0 0 4 0;
#X connect 0 0 8 0;
#X connect 0 0 12 0;
#X connect 4 0 6 0;
#X connect 6 0 7 0;
#X connect 7 0 1 0;
#X connect 8 0 10 0;
#X connect 10 0 11 0;
#X connect 11 0 2 0;
#X connect 12 0 14 0;
#X connect 14 0 3 0;
#X connect 16 0 15 0;
#X restore -108 124 pd biquad filter bank 2;
#X obj 225 127 tgl 15 0 empty empty empty 17 7 0 10 -128992 -1 -1 0
1;
#X connect 0 0 5 0;
#X connect 0 0 13 0;
#X connect 0 0 15 0;
#X connect 2 0 6 0;
#X connect 3 0 6 0;
#X connect 4 0 6 0;
#X connect 5 0 1 0;
#X connect 6 0 1 0;
#X connect 7 0 8 0;
#X connect 8 0 5 1;
#X connect 9 0 7 0;
#X connect 9 0 6 1;
#X connect 10 0 4 1;
#X connect 11 0 2 1;
#X connect 12 0 3 1;
#X connect 13 0 4 0;
#X connect 13 1 2 0;
#X connect 13 2 3 0;
#X connect 14 0 13 1;
#X connect 15 0 4 0;
#X connect 15 1 2 0;
#X connect 15 2 3 0;
#X connect 16 0 15 1;
#X coords 0 -1 1 1 150 230 2 100 100;
#X restore 254 100 pd output_mixer;
#X obj 8 6 cnv 15 140 20 empty empty empty 20 12 0 14 -228856 -66577
0;
#X text 12 6 sound general control;
#X obj 100 51 catch~ audio1;
#X obj 100 348 throw~ audio1a;
#X text 118 83 user 1 - processing;
#N canvas 515 341 440 377 output_mixer 0;
#X obj -164 54 inlet~ dry;
#X obj -167 360 outlet~;
#X obj -58 293 *~;
#X obj 4 294 *~;
#X obj -118 293 *~;
#X obj -165 324 *~;
#X obj -118 324 *~;
#X obj -151 237 * -1;
#X obj -150 272 + 1;
#X obj 111 309 hsl 128 15 0 1 0 1 empty empty dry/wet -2 -6 0 8 -162280
-1 -1 0 1;
#X obj 110 166 vsl 15 128 0 1 0 1 empty empty BASS 0 -8 0 8 -228856
-1 -1 8600 1;
#X obj 165 166 vsl 15 128 0 1 0 1 empty empty MIDS 0 -8 0 8 -228856
-1 -1 7100 1;
#X obj 224 166 vsl 15 128 0 1 0 1 empty empty HIGHS 0 -8 0 8 -228856
-1 -1 7100 1;
#N canvas 23 90 450 300 biquad 0;
#X obj 44 248 outlet~;
#X obj 42 143 biquad~;
#X obj 43 163 biquad~;
#X obj 43 183 biquad~;
#X obj 12 119 lowpass 370 310;
#X obj 171 143 biquad~;
#X obj 170 163 biquad~;
#X obj 170 184 biquad~;
#X obj 140 120 bandpass 1175 490;
#X obj 282 120 highpass 2350 130;
#X obj 311 143 biquad~;
#X obj 311 163 biquad~;
#X obj 140 34 loadbang;
#X obj 170 248 outlet~;
#X obj 312 248 outlet~;
#X obj 43 34 inlet~ signal;
#X obj 283 61 switch~;
#X obj 283 32 inlet switch;
#X connect 1 0 2 0;
#X connect 2 0 3 0;
#X connect 3 0 0 0;
#X connect 4 0 1 0;
#X connect 4 0 2 0;
#X connect 4 0 3 0;
#X connect 5 0 6 0;
#X connect 6 0 7 0;
#X connect 7 0 13 0;
#X connect 8 0 5 0;
#X connect 8 0 6 0;
#X connect 8 0 7 0;
#X connect 9 0 10 0;
#X connect 9 0 11 0;
#X connect 10 0 11 0;
#X connect 11 0 14 0;
#X connect 12 0 4 0;
#X connect 12 0 8 0;
#X connect 12 0 9 0;
#X connect 15 0 1 0;
#X connect 15 0 5 0;
#X connect 15 0 10 0;
#X connect 17 0 16 0;
#X restore -119 99 pd biquad filter bank;
#X obj 110 125 tgl 15 0 empty empty empty 17 7 0 10 -228856 -1 -1 0
1;
#N canvas 0 22 694 432 biquad 0;
#X obj 76 35 inlet~;
#X obj 77 379 outlet~;
#X obj 203 379 outlet~;
#X obj 345 379 outlet~;
#X obj 76 90 biquad~ 1.86972 -0.872325 0.000650245 0.00130049 0.000650245
;
#X text 195 69 lo x3;
#X obj 76 110 biquad~ 1.86972 -0.872325 0.000650245 0.00130049 0.000650245
;
#X obj 76 130 biquad~ 1.86972 -0.872325 0.000650245 0.00130049 0.000650245
;
#X obj 204 182 biquad~ 1.36591 -0.385279 0.307361 0 -0.307361;
#X text 339 162 mid x3;
#X obj 204 202 biquad~ 1.36591 -0.385279 0.307361 0 -0.307361;
#X obj 204 222 biquad~ 1.36591 -0.385279 0.307361 0 -0.307361;
#X obj 346 273 biquad~ 1.63386 -0.729864 0.840931 -1.68186 0.840931
;
#X text 486 251 hi x2;
#X obj 346 293 biquad~ 1.63386 -0.729864 0.840931 -1.68186 0.840931
;
#X obj 265 64 switch~;
#X obj 265 35 inlet switch;
#X connect 0 0 4 0;
#X connect 0 0 8 0;
#X connect 0 0 12 0;
#X connect 4 0 6 0;
#X connect 6 0 7 0;
#X connect 7 0 1 0;
#X connect 8 0 10 0;
#X connect 10 0 11 0;
#X connect 11 0 2 0;
#X connect 12 0 14 0;
#X connect 14 0 3 0;
#X connect 16 0 15 0;
#X restore -108 124 pd biquad filter bank 2;
#X obj 225 127 tgl 15 0 empty empty empty 17 7 0 10 -128992 -1 -1 0
1;
#X connect 0 0 13 0;
#X connect 0 0 15 0;
#X connect 0 0 5 0;
#X connect 2 0 6 0;
#X connect 3 0 6 0;
#X connect 4 0 6 0;
#X connect 5 0 1 0;
#X connect 6 0 1 0;
#X connect 8 0 5 1;
#X connect 9 0 7 0;
#X connect 9 0 6 1;
#X connect 9 0 8 0;
#X connect 10 0 4 1;
#X connect 11 0 2 1;
#X connect 12 0 3 1;
#X connect 13 0 4 0;
#X connect 13 1 2 0;
#X connect 13 2 3 0;
#X connect 14 0 13 1;
#X connect 15 0 4 0;
#X connect 15 1 2 0;
#X connect 15 2 3 0;
#X connect 16 0 15 1;
#X coords 0 -1 1 1 150 230 2 100 100;
#X restore 409 100 pd output_mixer;
#N canvas 515 341 431 383 output_mixer 0;
#X obj -164 54 inlet~ dry;
#X obj -165 352 outlet~;
#X obj -58 293 *~;
#X obj 4 294 *~;
#X obj -118 293 *~;
#X obj -165 324 *~;
#X obj -118 324 *~;
#X obj -150 250 * -1;
#X obj -150 272 + 1;
#X obj 111 309 hsl 128 15 0 1 0 1 empty empty dry/wet -2 -6 0 8 -162280
-1 -1 0 1;
#X obj 110 166 vsl 15 128 0 1 0 1 empty empty BASS 0 -8 0 8 -228856
-1 -1 12700 1;
#X obj 165 166 vsl 15 128 0 1 0 1 empty empty MIDS 0 -8 0 8 -228856
-1 -1 12700 1;
#X obj 224 166 vsl 15 128 0 1 0 1 empty empty HIGHS 0 -8 0 8 -228856
-1 -1 12700 1;
#N canvas 23 90 450 300 biquad 0;
#X obj 44 248 outlet~;
#X obj 42 143 biquad~;
#X obj 43 163 biquad~;
#X obj 43 183 biquad~;
#X obj 12 119 lowpass 370 310;
#X obj 171 143 biquad~;
#X obj 170 163 biquad~;
#X obj 170 184 biquad~;
#X obj 140 120 bandpass 1175 490;
#X obj 282 120 highpass 2350 130;
#X obj 311 143 biquad~;
#X obj 311 163 biquad~;
#X obj 140 34 loadbang;
#X obj 170 248 outlet~;
#X obj 312 248 outlet~;
#X obj 43 34 inlet~ signal;
#X obj 283 61 switch~;
#X obj 283 32 inlet switch;
#X connect 1 0 2 0;
#X connect 2 0 3 0;
#X connect 3 0 0 0;
#X connect 4 0 1 0;
#X connect 4 0 2 0;
#X connect 4 0 3 0;
#X connect 5 0 6 0;
#X connect 6 0 7 0;
#X connect 7 0 13 0;
#X connect 8 0 5 0;
#X connect 8 0 6 0;
#X connect 8 0 7 0;
#X connect 9 0 10 0;
#X connect 9 0 11 0;
#X connect 10 0 11 0;
#X connect 11 0 14 0;
#X connect 12 0 4 0;
#X connect 12 0 8 0;
#X connect 12 0 9 0;
#X connect 15 0 1 0;
#X connect 15 0 5 0;
#X connect 15 0 10 0;
#X connect 17 0 16 0;
#X restore -119 99 pd biquad filter bank;
#X obj 110 125 tgl 15 0 empty empty empty 17 7 0 10 -228856 -1 -1 0
1;
#N canvas 0 22 694 432 biquad 0;
#X obj 76 35 inlet~;
#X obj 77 379 outlet~;
#X obj 203 379 outlet~;
#X obj 345 379 outlet~;
#X obj 76 90 biquad~ 1.86972 -0.872325 0.000650245 0.00130049 0.000650245
;
#X text 195 69 lo x3;
#X obj 76 110 biquad~ 1.86972 -0.872325 0.000650245 0.00130049 0.000650245
;
#X obj 76 130 biquad~ 1.86972 -0.872325 0.000650245 0.00130049 0.000650245
;
#X obj 204 182 biquad~ 1.36591 -0.385279 0.307361 0 -0.307361;
#X text 339 162 mid x3;
#X obj 204 202 biquad~ 1.36591 -0.385279 0.307361 0 -0.307361;
#X obj 204 222 biquad~ 1.36591 -0.385279 0.307361 0 -0.307361;
#X obj 346 273 biquad~ 1.63386 -0.729864 0.840931 -1.68186 0.840931
;
#X text 486 251 hi x2;
#X obj 346 293 biquad~ 1.63386 -0.729864 0.840931 -1.68186 0.840931
;
#X obj 265 64 switch~;
#X obj 265 35 inlet switch;
#X connect 0 0 4 0;
#X connect 0 0 8 0;
#X connect 0 0 12 0;
#X connect 4 0 6 0;
#X connect 6 0 7 0;
#X connect 7 0 1 0;
#X connect 8 0 10 0;
#X connect 10 0 11 0;
#X connect 11 0 2 0;
#X connect 12 0 14 0;
#X connect 14 0 3 0;
#X connect 16 0 15 0;
#X restore -108 124 pd biquad filter bank 2;
#X obj 225 127 tgl 15 0 empty empty empty 17 7 0 10 -128992 -1 -1 0
1;
#X connect 0 0 5 0;
#X connect 0 0 13 0;
#X connect 0 0 15 0;
#X connect 2 0 6 0;
#X connect 3 0 6 0;
#X connect 4 0 6 0;
#X connect 5 0 1 0;
#X connect 6 0 1 0;
#X connect 7 0 8 0;
#X connect 8 0 5 1;
#X connect 9 0 7 0;
#X connect 9 0 6 1;
#X connect 10 0 4 1;
#X connect 11 0 2 1;
#X connect 12 0 3 1;
#X connect 13 0 4 0;
#X connect 13 1 2 0;
#X connect 13 2 3 0;
#X connect 14 0 13 1;
#X connect 15 0 4 0;
#X connect 15 1 2 0;
#X connect 15 2 3 0;
#X connect 16 0 15 1;
#X coords 0 -1 1 1 150 230 2 100 100;
#X restore 565 100 pd output_mixer;
#X obj 254 347 throw~ audio2a;
#X obj 254 50 catch~ audio2;
#X obj 565 55 catch~ audio4b;
#X obj 565 348 throw~ audio4bb;
#X obj 409 345 throw~ samp2bb;
#X text 276 82 user 2 - synthesis;
#X text 607 84 distortion;
#X text 445 83 chorus;
#X obj 409 54 catch~ samp2ba;
#X connect 0 0 5 0;
#X connect 1 0 9 0;
#X connect 4 0 0 0;
#X connect 7 0 13 0;
#X connect 8 0 12 0;
#X connect 10 0 1 0;
#X connect 11 0 8 0;
#X connect 17 0 7 0;
#X coords 0 -1 1 1 615 230 2 100 100;
#X restore -261 -100 pd mixer;
#X obj -262 -129 cnv 15 140 20 empty empty empty 20 12 0 14 -228856
-66577 0;
#X text -258 -129 sound control;
#N canvas 626 95 679 316 volume 0;
#X obj -123 66 catch~ samp1a;
#X obj -123 143 *~ 0.2;
#N canvas 250 90 354 214 ramp1 0;
#X obj -17 100 line;
#X obj -17 49 inlet;
#X obj -17 126 tabread envelopeZ;
#X obj -17 75 * 30;
#N canvas 133 178 450 300 (subpatch) 0;
#X array envelopeZ 100 float 1;
#A 0 0.0011 0.001 0.0142858 0.0428574 0.0642861 0.0857148 0.121429
0.157144 0.178573 0.200001 0.22143 0.242859 0.32143 0.32143 0.364288
0.378573 0.450002 0.478574 0.49286 0.535717 0.550003 0.564289 0.578575
0.59286 0.607146 0.635718 0.650004 0.664289 0.664289 0.671432 0.678575
0.692861 0.721433 0.750004 0.750004 0.76429 0.778576 0.778576 0.792862
0.792862 0.807148 0.807148 0.807148 0.807148 0.807148 0.807148 0.807148
0.807148 0.807148 0.807148 0.807148 0.807148 0.807148 0.792862 0.792862
0.792862 0.792862 0.792862 0.792862 0.792862 0.792862 0.792862 0.778576
0.778576 0.750004 0.735718 0.721433 0.707147 0.707147 0.678575 0.678575
0.664289 0.635718 0.635718 0.621432 0.607146 0.59286 0.578575 0.564289
0.550003 0.550003 0.550003 0.535717 0.521431 0.49286 0.478574 0.450002
0.421431 0.392859 0.335716 0.32143 0.278573 0.235715 0.22143 0.114287
0.100001 0.05 0.03 0.01 0.001;
#X coords 0 1 99 -1 200 140 1;
#X restore 108 41 graph;
#X obj -27 -2 cnv 15 220 20 empty empty empty 20 12 0 14 -228856 -66577
0;
#X obj -17 151 outlet;
#X text -26 -1 volume controlled envelop (Z axis);
#X connect 0 0 2 0;
#X connect 1 0 3 0;
#X connect 2 0 6 0;
#X connect 3 0 0 0;
#X restore -90 118 pd ramp1;
#X obj -123 224 *~ 0.2;
#N canvas 625 86 366 222 ramp2 0;
#X obj -7 114 line;
#X obj -7 60 inlet;
#X obj -7 140 tabread envelopeX;
#X obj -7 165 outlet;
#X obj -7 85 * 100;
#X obj -17 8 cnv 15 220 20 empty empty empty 20 12 0 14 -228856 -66577
0;
#X text -16 9 volume controlled envelop (X axis);
#N canvas 133 178 450 300 (subpatch) 0;
#X array envelopeX 100 float 1;
#A 0 0 0.001 0.0142858 0.0428574 0.0642861 0.0857148 0.121429 0.157144
0.178573 0.200001 0.22143 0.242859 0.32143 0.32143 0.364288 0.378573
0.450002 0.478574 0.49286 0.535717 0.550003 0.564289 0.578575 0.59286
0.607146 0.635718 0.650004 0.664289 0.664289 0.671432 0.678575 0.692861
0.721433 0.750004 0.750004 0.76429 0.778576 0.778576 0.792862 0.792862
0.807148 0.807148 0.807148 0.807148 0.807148 0.807148 0.807148 0.807148
0.807148 0.807148 0.807148 0.807148 0.807148 0.792862 0.792862 0.792862
0.792862 0.792862 0.792862 0.792862 0.792862 0.792862 0.778576 0.778576
0.750004 0.735718 0.721433 0.707147 0.707147 0.678575 0.678575 0.664289
0.635718 0.635718 0.621432 0.607146 0.59286 0.578575 0.564289 0.550003
0.550003 0.550003 0.535717 0.521431 0.49286 0.478574 0.450002 0.421431
0.392859 0.335716 0.32143 0.278573 0.235715 0.22143 0.114287 0.100001
0.05 0.03 0.01 0;
#X coords 0 1 99 -1 200 140 1;
#X restore 118 51 graph;
#X connect 0 0 2 0;
#X connect 1 0 4 0;
#X connect 2 0 3 0;
#X connect 4 0 0 0;
#X restore -90 200 pd ramp2;
#X obj -90 178 r headx;
#X obj -33 178 r torsox;
#X obj -123 253 *~ -0.2;
#X obj -135 7 cnv 15 220 20 empty empty empty 20 12 0 14 -228856 -66577
0;
#X text -134 7 volume controlled envelop;
#X text -35 118 Z;
#X text -32 201 X;
#X obj -123 283 throw~ audio1;
#X obj 43 144 *~ 0.2;
#X obj 43 225 *~ 0.2;
#X obj 133 179 r torsox;
#X obj 43 254 *~ -0.2;
#X text 131 119 Z;
#X text 134 202 X;
#X obj 43 67 catch~ samp2a;
#X obj 76 179 r headx2;
#X obj 43 284 throw~ audio2;
#X obj 215 144 *~ 0.2;
#X obj 215 225 *~ 0.2;
#X obj 305 179 r torsox;
#X obj 215 254 *~ -0.2;
#X text 303 119 Z;
#X text 306 202 X;
#X obj 248 179 r headx;
#X obj 374 140 *~ 0.2;
#X obj 374 221 *~ 0.2;
#X obj 464 175 r torsox;
#X obj 374 250 *~ -0.2;
#X text 462 115 Z;
#X text 465 198 X;
#X obj 407 175 r headx;
#X obj 374 62 catch~ samp4b;
#X obj 374 280 throw~ audio4b;
#N canvas 317 43 366 222 ramp4 0;
#X obj -7 114 line;
#X obj -7 60 inlet;
#X obj -7 165 outlet;
#X obj -7 85 * 100;
#X obj -17 8 cnv 15 220 20 empty empty empty 20 12 0 14 -228856 -66577
0;
#X text -16 9 volume controlled envelop (X axis);
#X obj -7 140 tabread envelopeX3;
#N canvas 133 178 450 300 (subpatch) 0;
#X array envelopeX3 100 float 1;
#A 0 0 0.001 0.0142858 0.0428574 0.0642861 0.0857148 0.121429 0.157144
0.178573 0.200001 0.22143 0.242859 0.32143 0.32143 0.364288 0.378573
0.450002 0.478574 0.49286 0.535717 0.550003 0.564289 0.578575 0.59286
0.607146 0.635718 0.650004 0.664289 0.664289 0.671432 0.678575 0.692861
0.721433 0.750004 0.750004 0.76429 0.778576 0.778576 0.792862 0.792862
0.807148 0.807148 0.807148 0.807148 0.807148 0.807148 0.807148 0.807148
0.807148 0.807148 0.807148 0.807148 0.807148 0.792862 0.792862 0.792862
0.792862 0.792862 0.792862 0.792862 0.792862 0.792862 0.778576 0.778576
0.750004 0.735718 0.721433 0.707147 0.707147 0.678575 0.678575 0.664289
0.635718 0.635718 0.621432 0.607146 0.59286 0.578575 0.564289 0.550003
0.550003 0.550003 0.535717 0.521431 0.49286 0.478574 0.450002 0.421431
0.392859 0.335716 0.32143 0.278573 0.235715 0.22143 0.114287 0.100001
0.05 0.03 0.01 0;
#X coords 0 1 99 -1 200 140 1;
#X restore 128 61 graph;
#X connect 0 0 6 0;
#X connect 1 0 3 0;
#X connect 3 0 0 0;
#X connect 6 0 2 0;
#X restore 76 201 pd ramp4;
#N canvas 85 177 354 214 ramp5 0;
#X obj -17 100 line;
#X obj -17 49 inlet;
#X obj -17 75 * 30;
#N canvas 0 22 450 300 (subpatch) 0;
#X array envelopeZ5 100 float 1;
#A 0 0 0 0.0142858 0.0428574 0.0642861 0.0857148 0.121429 0.157144
0.178573 0.200001 0.22143 0.242859 0.264287 0.285716 0.307145 0.328573
0.350002 0.371431 0.39286 0.414288 0.44286 0.471431 0.500003 0.528575
0.542861 0.557146 0.571432 0.600004 0.600004 0.61429 0.61429 0.628575
0.657147 0.657147 0.66429 0.685719 0.685718 0.685718 0.700004 0.71429
0.71429 0.728576 0.728576 0.728576 0.728576 0.728576 0.728576 0.728576
0.71429 0.71429 0.71429 0.71429 0.71429 0.700004 0.700004 0.700004
0.700004 0.700004 0.700004 0.700004 0.700004 0.700004 0.685718 0.671433
0.671433 0.642861 0.642861 0.642861 0.628575 0.628575 0.621432 0.614289
0.600004 0.557146 0.557146 0.54286 0.528575 0.500003 0.500003 0.485717
0.471431 0.457146 0.428574 0.414288 0.371431 0.357145 0.328573 0.285716
0.285716 0.27143 0.214287 0.185715 0.157144 0.142858 0.114286 0.0857147
0.0714289 0.0571431 0 0;
#X coords 0 1 99 -1 200 140 1;
#X restore 108 41 graph;
#X obj -27 -2 cnv 15 220 20 empty empty empty 20 12 0 14 -228856 -66577
0;
#X obj -17 151 outlet;
#X text -26 -1 volume controlled envelop (Z axis);
#X obj -17 126 tabread envelopeZ5;
#X connect 0 0 7 0;
#X connect 1 0 2 0;
#X connect 2 0 0 0;
#X connect 7 0 5 0;
#X restore 248 119 pd ramp5;
#N canvas 317 43 366 222 ramp6 0;
#X obj -7 114 line;
#X obj -7 60 inlet;
#X obj -7 165 outlet;
#X obj -7 85 * 100;
#X obj -17 8 cnv 15 220 20 empty empty empty 20 12 0 14 -228856 -66577
0;
#X text -16 9 volume controlled envelop (X axis);
#X obj -7 140 tabread envelopeX6;
#N canvas 133 178 450 300 (subpatch) 0;
#X array envelopeX6 100 float 1;
#A 0 0 0.001 0.0142858 0.0428574 0.0642861 0.0857148 0.121429 0.157144
0.178573 0.200001 0.22143 0.242859 0.32143 0.32143 0.364288 0.378573
0.450002 0.478574 0.49286 0.535717 0.550003 0.564289 0.578575 0.59286
0.607146 0.635718 0.650004 0.664289 0.664289 0.671432 0.678575 0.692861
0.721433 0.750004 0.750004 0.76429 0.778576 0.778576 0.792862 0.792862
0.807148 0.807148 0.807148 0.807148 0.807148 0.807148 0.807148 0.807148
0.807148 0.807148 0.807148 0.807148 0.807148 0.792862 0.792862 0.792862
0.792862 0.792862 0.792862 0.792862 0.792862 0.792862 0.778576 0.778576
0.750004 0.735718 0.721433 0.707147 0.707147 0.678575 0.678575 0.664289
0.635718 0.635718 0.621432 0.607146 0.59286 0.578575 0.564289 0.550003
0.550003 0.550003 0.535717 0.521431 0.49286 0.478574 0.450002 0.421431
0.392859 0.335716 0.32143 0.278573 0.235715 0.22143 0.114287 0.100001
0.05 0.03 0.01 0;
#X coords 0 1 99 -1 200 140 1;
#X restore 132 61 graph;
#X connect 0 0 6 0;
#X connect 1 0 3 0;
#X connect 3 0 0 0;
#X connect 6 0 2 0;
#X restore 248 201 pd ramp6;
#N canvas 317 43 366 222 ramp7 0;
#X obj -7 114 line;
#X obj -7 60 inlet;
#X obj -7 165 outlet;
#X obj -7 85 * 100;
#X obj -17 8 cnv 15 220 20 empty empty empty 20 12 0 14 -228856 -66577
0;
#X text -16 9 volume controlled envelop (X axis);
#X obj -6 139 tabread envelopeX7;
#N canvas 133 178 450 300 (subpatch) 0;
#X array envelopeX7 100 float 1;
#A 0 0 0.001 0.0142858 0.0428574 0.0642861 0.0857148 0.121429 0.157144
0.178573 0.200001 0.22143 0.242859 0.32143 0.32143 0.364288 0.378573
0.450002 0.478574 0.49286 0.535717 0.550003 0.564289 0.578575 0.59286
0.607146 0.635718 0.650004 0.664289 0.664289 0.671432 0.678575 0.692861
0.721433 0.750004 0.750004 0.76429 0.778576 0.778576 0.792862 0.792862
0.807148 0.807148 0.807148 0.807148 0.807148 0.807148 0.807148 0.807148
0.807148 0.807148 0.807148 0.807148 0.807148 0.792862 0.792862 0.792862
0.792862 0.792862 0.792862 0.792862 0.792862 0.792862 0.778576 0.778576
0.750004 0.735718 0.721433 0.707147 0.707147 0.678575 0.678575 0.664289
0.635718 0.635718 0.621432 0.607146 0.59286 0.578575 0.564289 0.550003
0.550003 0.550003 0.535717 0.521431 0.49286 0.478574 0.450002 0.421431
0.392859 0.335716 0.32143 0.278573 0.235715 0.22143 0.114287 0.100001
0.05 0.03 0.01 0;
#X coords 0 1 99 -1 200 140 1;
#X restore 130 59 graph;
#X connect 0 0 6 0;
#X connect 1 0 3 0;
#X connect 3 0 0 0;
#X connect 6 0 2 0;
#X restore 407 197 pd ramp7;
#N canvas 85 177 354 214 ramp8 0;
#X obj -17 100 line;
#X obj -17 49 inlet;
#X obj -17 75 * 30;
#N canvas 0 22 450 300 (subpatch) 0;
#X array envelopeZ8 100 float 1;
#A 0 0 0 0.0142858 0.0428574 0.0642861 0.0857148 0.121429 0.157144
0.178573 0.200001 0.22143 0.242859 0.264287 0.285716 0.307145 0.328573
0.350002 0.371431 0.39286 0.414288 0.44286 0.471431 0.500003 0.528575
0.542861 0.557146 0.571432 0.600004 0.600004 0.61429 0.61429 0.628575
0.657147 0.657147 0.66429 0.685719 0.685719 0.685719 0.685719 0.700004
0.671433 0.671433 0.671433 0.671433 0.671433 0.671433 0.671433 0.671433
0.671433 0.671433 0.671433 0.671433 0.671433 0.657147 0.657147 0.657147
0.657147 0.642861 0.628575 0.628575 0.61429 0.600004 0.571432 0.557146
0.557146 0.528575 0.528575 0.500003 0.485717 0.471431 0.44286 0.428574
0.414288 0.400002 0.371431 0.357145 0.342859 0.342859 0.328573 0.314288
0.314288 0.285716 0.27143 0.242859 0.242859 0.228573 0.214287 0.200001
0.185715 0.17143 0.157144 0.128572 0.100001 0.0785719 0.0571432 0.0500003
0.0428574 0.0142858 0 0;
#X coords 0 1 99 -1 200 140 1;
#X restore 108 41 graph;
#X obj -27 -2 cnv 15 220 20 empty empty empty 20 12 0 14 -228856 -66577
0;
#X obj -17 151 outlet;
#X text -26 -1 volume controlled envelop (Z axis);
#X obj -17 126 tabread envelopeZ8;
#X connect 0 0 7 0;
#X connect 1 0 2 0;
#X connect 2 0 0 0;
#X connect 7 0 5 0;
#X restore 407 115 pd ramp8;
#N canvas 497 175 354 214 ramp3a 0;
#X obj -17 100 line;
#X obj -17 49 inlet;
#X obj -17 75 * 30;
#N canvas 0 22 450 300 (subpatch) 0;
#X array envelopeZ3 100 float 1;
#A 0 0 0.001 0.0142858 0.0428574 0.0642861 0.0857148 0.121429 0.157144
0.178573 0.200001 0.22143 0.242859 0.264287 0.285716 0.307145 0.328573
0.350002 0.371431 0.39286 0.414288 0.44286 0.471431 0.500003 0.528575
0.542861 0.557146 0.571432 0.600004 0.600004 0.61429 0.61429 0.628575
0.657147 0.657147 0.66429 0.685719 0.685719 0.685719 0.685719 0.700004
0.671433 0.671433 0.671433 0.671433 0.671433 0.671433 0.671433 0.671433
0.671433 0.671433 0.671433 0.671433 0.671433 0.657147 0.657147 0.657147
0.657147 0.642861 0.628575 0.628575 0.61429 0.600004 0.571432 0.557146
0.557146 0.528575 0.528575 0.500003 0.485717 0.471431 0.44286 0.428574
0.414288 0.400002 0.371431 0.357145 0.342859 0.342859 0.328573 0.314288
0.314288 0.285716 0.27143 0.242859 0.242859 0.228573 0.214287 0.200001
0.185715 0.17143 0.157144 0.128572 0.100001 0.0785719 0.0571432 0.0500003
0.0428574 0.0142858 0 0;
#X coords 0 1 99 -1 200 140 1;
#X restore 108 41 graph;
#X obj -27 -2 cnv 15 220 20 empty empty empty 20 12 0 14 -228856 -66577
0;
#X obj -17 151 outlet;
#X text -26 -1 volume controlled envelop (Z axis);
#X obj -17 126 tabread envelopeZ3;
#X connect 0 0 7 0;
#X connect 1 0 2 0;
#X connect 2 0 0 0;
#X connect 7 0 5 0;
#X restore 76 119 pd ramp3a;
#X text -124 41 main;
#X text 43 42 2nd user main;
#X text 370 39 chorus;
#X obj 215 284 throw~ samp2ba;
#X obj 215 67 catch~ samp2b;
#N canvas 105 321 111 148 rampLost 0;
#X obj 4 6 r lost;
#X obj 4 28 select 1 2 3 4 5;
#X obj 4 54 bng 15 250 50 0 empty empty empty 17 7 0 10 -262144 -1
-1;
#X msg 4 77 0 1000;
#X obj 4 101 line;
#X obj 4 124 outlet;
#X connect 0 0 1 0;
#X connect 1 0 2 0;
#X connect 1 1 2 0;
#X connect 1 2 2 0;
#X connect 1 3 2 0;
#X connect 1 4 2 0;
#X connect 1 5 2 0;
#X connect 2 0 3 0;
#X connect 3 0 4 0;
#X connect 4 0 5 0;
#X restore 260 225 pd rampLost;
#X floatatom -63 141 5 0 0 0 - - -;
#N canvas 105 321 111 148 rampLost 0;
#X obj 4 6 r lost;
#X obj 4 28 select 1 2 3 4 5;
#X obj 4 54 bng 15 250 50 0 empty empty empty 17 7 0 10 -262144 -1
-1;
#X msg 4 77 0 1000;
#X obj 4 101 line;
#X obj 4 124 outlet;
#X connect 0 0 1 0;
#X connect 1 0 2 0;
#X connect 1 1 2 0;
#X connect 1 2 2 0;
#X connect 1 3 2 0;
#X connect 1 4 2 0;
#X connect 1 5 2 0;
#X connect 2 0 3 0;
#X connect 3 0 4 0;
#X connect 4 0 5 0;
#X restore 261 144 pd rampLost;
#X floatatom -16 258 5 0 0 0 - - -;
#X obj -37 95 r headz;
#X obj -90 94 r rfootz;
#X obj 76 95 r lfootz2;
#X obj 248 95 r lfootz;
#X obj 407 91 r lfootz;
#X connect 0 0 1 0;
#X connect 1 0 3 0;
#X connect 2 0 1 1;
#X connect 3 0 7 0;
#X connect 4 0 3 1;
#X connect 5 0 4 0;
#X connect 5 0 52 0;
#X connect 7 0 12 0;
#X connect 13 0 14 0;
#X connect 14 0 16 0;
#X connect 16 0 21 0;
#X connect 19 0 13 0;
#X connect 20 0 38 0;
#X connect 22 0 23 0;
#X connect 23 0 25 0;
#X connect 25 0 47 0;
#X connect 28 0 40 0;
#X connect 29 0 30 0;
#X connect 30 0 32 0;
#X connect 32 0 37 0;
#X connect 35 0 41 0;
#X connect 36 0 29 0;
#X connect 38 0 14 1;
#X connect 39 0 22 1;
#X connect 40 0 23 1;
#X connect 41 0 30 1;
#X connect 42 0 29 1;
#X connect 43 0 13 1;
#X connect 48 0 22 0;
#X connect 49 0 23 1;
#X connect 49 0 14 1;
#X connect 49 0 30 1;
#X connect 49 0 3 1;
#X connect 49 0 1 1;
#X connect 49 0 13 1;
#X connect 49 0 29 1;
#X connect 51 0 22 1;
#X connect 54 0 2 0;
#X connect 54 0 50 0;
#X connect 55 0 43 0;
#X connect 56 0 39 0;
#X connect 57 0 42 0;
#X coords 0 0 1 1 150 150 0;
#X restore -261 135 pd volume;
#X coords 0 -1 1 1 615 230 2 -261 -100;
#X restore -352 43 pd sound control;
#N canvas 463 22 563 419 maps 0;
#X obj 110 135 grid grid1 200 0 100 100 0 30 1 1 1 10 10 -308.22 -73.0991
;
#X floatatom 112 -48 5 0 0 0 - - -;
#X floatatom 156 -47 5 0 0 0 - - -;
#X obj 111 8 pack f f;
#X msg 111 28 goto \$1 \$2;
#X msg 112 -78 bang;
#X text 98 -47 X;
#X text 193 -45 Y;
#X msg 110 54 color 100 100 100;
#X obj 112 -117 autoscale;
#X obj 156 -69 autoscale;
#X obj 320 135 grid grid1 200 0 70 100 0 30 1 1 1 10 10 -98.2195 -67.8922
;
#X floatatom 320 -18 5 0 0 0 - - -;
#X floatatom 365 -18 5 0 0 0 - - -;
#X obj 320 29 pack f f;
#X msg 320 49 goto \$1 \$2;
#X msg 320 -42 bang;
#X msg 320 71 color 100 100 100;
#X obj 320 -94 autoscale;
#X obj 365 -40 autoscale;
#X text 306 -17 Z;
#X text 199 109 UP;
#X text 405 109 FRONT;
#X obj 240 -12 loadbang;
#X msg 110 77 bang;
#X text 403 63 Y;
#X obj 320 -116 r torsox;
#X obj 365 -64 r torsoy;
#X obj 112 -140 r torsox;
#X obj 156 -91 r torsoz;
#X obj 111 -18 * 100;
#X obj 156 -19 * 100;
#X obj 320 4 * 100;
#X obj 365 5 * 100;
#X obj 507 107 bng 15 250 50 0 empty empty empty 17 7 0 10 -262144
-1 -1;
#X connect 1 0 30 0;
#X connect 2 0 5 0;
#X connect 2 0 31 0;
#X connect 3 0 4 0;
#X connect 4 0 0 0;
#X connect 5 0 1 0;
#X connect 8 0 0 0;
#X connect 9 0 1 0;
#X connect 10 0 2 0;
#X connect 12 0 32 0;
#X connect 13 0 16 0;
#X connect 13 0 33 0;
#X connect 14 0 15 0;
#X connect 15 0 11 0;
#X connect 16 0 12 0;
#X connect 17 0 11 0;
#X connect 18 0 12 0;
#X connect 19 0 13 0;
#X connect 23 0 8 0;
#X connect 23 0 17 0;
#X connect 24 0 0 0;
#X connect 24 0 11 0;
#X connect 26 0 18 0;
#X connect 27 0 19 0;
#X connect 28 0 9 0;
#X connect 29 0 10 0;
#X connect 30 0 3 0;
#X connect 31 0 3 1;
#X connect 32 0 14 0;
#X connect 33 0 14 1;
#X connect 34 0 24 0;
#X coords 0 -1 1 1 430 150 2 100 100;
#X restore -352 -111 pd maps;
#X restore 2 5 pd main;
#X connect 37 0 38 0;
