#N canvas 543 25 1010 729 10;
#X declare -lib mrpeach;
#X declare -lib iemgui;
#X declare -lib soundhack;
#X obj 74 50 cnv 15 700 30 empty empty empty 20 12 0 14 -128992 -66577
0;
#X obj 169 55 import mrpeach;
#X obj 266 55 variance 10;
#X obj 341 55 s userpos;
#X obj -217 -625 cnv 15 100 60 empty empty empty 20 12 0 14 -203904
-66577 0;
#N canvas 430 22 450 300 OSCeleton 0;
#X obj 20 59 cnv 15 400 180 empty empty empty 20 12 0 14 -162280 -66577
0;
#X obj 25 183 s joint;
#X floatatom 143 187 5 0 0 0 - - -;
#X obj 25 89 unpackOSC;
#X obj 25 155 routeOSC /joint;
#X obj 190 186 routeOSC /joint;
#X obj 143 157 route /new_user 2;
#X obj 190 212 s joint2;
#X obj 25 64 udpreceive 7110;
#X obj 298 156 route /lost_user;
#X floatatom 298 187 5 0 0 0 - - -;
#X connect 3 0 4 0;
#X connect 3 0 6 0;
#X connect 3 0 9 0;
#X connect 4 0 1 0;
#X connect 5 0 7 0;
#X connect 6 0 2 0;
#X connect 6 0 5 0;
#X connect 8 0 3 0;
#X connect 9 0 10 0;
#X restore -207 -604 pd OSCeleton;
#X obj -218 -561 cnv 15 100 60 empty empty empty 20 12 0 14 -204786
-66577 0;
#N canvas 372 173 641 382 route_joint 0;
#X obj -85 -224 r joint;
#X obj -85 -180 route l_shoulder l_elbow l_hand l_hip l_knee l_foot
head neck torso r_shoulder r_elbow r_hand r_hip r_knee r_foot;
#X obj -85 -145 s l_shoulder;
#X obj -63 -125 s l_elbow;
#X obj -41 -105 s l_hand;
#X obj -18 -85 s l_hip;
#X obj 3 -145 s l_knee;
#X obj 27 -125 s l_foot;
#X obj 48 -106 s head;
#X obj 70 -86 s neck;
#X obj 92 -146 s torso;
#X obj 114 -126 s r_shoulder;
#X obj 137 -107 s r_elbow;
#X obj 159 -87 s r_hand;
#X obj 183 -67 s r_hip;
#X obj 203 -144 s r_knee;
#X obj 226 -123 s r_foot;
#X connect 0 0 1 0;
#X connect 1 0 2 0;
#X connect 1 1 3 0;
#X connect 1 2 4 0;
#X connect 1 3 5 0;
#X connect 1 4 6 0;
#X connect 1 5 7 0;
#X connect 1 6 8 0;
#X connect 1 7 9 0;
#X connect 1 8 10 0;
#X connect 1 9 11 0;
#X connect 1 10 12 0;
#X connect 1 11 13 0;
#X connect 1 12 14 0;
#X connect 1 13 15 0;
#X connect 1 14 16 0;
#X restore -212 -540 pd route_joint;
#X obj -218 -497 cnv 15 100 60 empty empty empty 20 12 0 14 -4032 -66577
0;
#N canvas 369 407 845 528 audio 0;
#X obj 23 233 autoscale;
#X obj 61 300 autoscale;
#X obj 61 322 reverse;
#X obj 112 218 bng 15 250 50 0 empty empty empty 17 7 0 10 -262144
-1 -1;
#X obj 112 195 loadbang;
#X msg 100 346 Bur.wav;
#X obj 22 375 phasevocoder Bur.wav;
#X obj 23 193 r torsoz;
#X obj 61 265 r lhandy;
#X obj 378 69 f;
#X obj 408 69 + 1;
#X obj 378 94 mod 10;
#X obj 378 120 hradio 15 1 0 10 empty empty empty 0 -8 0 10 -262144
-1 -1 0;
#X obj 378 144 select 0 1 2 3 4 5 6 7 8 9;
#X msg 500 306 poetry;
#X msg 496 330 poetry;
#X msg 490 352 poetry;
#X msg 479 376 poetry;
#X floatatom 8 166 5 0 0 0 - - -;
#X floatatom 154 235 5 0 0 0 - - -;
#X msg 402 196 Bur.wav poetry;
#X obj 378 45 bng 15 250 50 0 empty empty empty 17 7 0 10 -262144 -1
-1;
#X floatatom 338 96 5 0 0 0 - - -;
#X obj 22 404 throw~ samp;
#X obj 379 463 soundfiler;
#X obj 379 488 s pitch_filelength;
#X msg 379 438 read -resize -maxsize 2e+06 \$1 pitch_soundfile;
#X text 271 452 to pitch delay;
#X msg 378 176 A.wav poetry;
#X msg 429 216 J.wav poetry;
#X msg 458 239 M.wav poetry;
#X msg 470 261 T.wav poetry;
#X msg 489 284 U.wav poetry;
#X floatatom 66 141 5 0 0 0 - - -;
#X floatatom 111 142 5 0 0 0 - - -;
#X floatatom 197 185 5 0 0 0 - - -;
#X floatatom 241 190 5 0 0 0 - - -;
#X connect 0 0 6 0;
#X connect 1 0 2 0;
#X connect 2 0 6 1;
#X connect 3 0 1 3;
#X connect 3 0 0 3;
#X connect 4 0 3 0;
#X connect 5 0 6 2;
#X connect 6 0 23 0;
#X connect 7 0 0 0;
#X connect 8 0 1 0;
#X connect 9 0 10 0;
#X connect 9 0 11 0;
#X connect 9 0 22 0;
#X connect 10 0 9 1;
#X connect 11 0 12 0;
#X connect 12 0 13 0;
#X connect 13 0 28 0;
#X connect 13 1 20 0;
#X connect 13 2 29 0;
#X connect 13 3 30 0;
#X connect 13 4 31 0;
#X connect 13 5 32 0;
#X connect 13 6 14 0;
#X connect 13 7 15 0;
#X connect 13 8 16 0;
#X connect 13 9 17 0;
#X connect 14 0 6 2;
#X connect 15 0 6 2;
#X connect 16 0 6 2;
#X connect 17 0 6 2;
#X connect 18 0 0 0;
#X connect 19 0 1 0;
#X connect 20 0 6 2;
#X connect 20 0 26 0;
#X connect 21 0 9 0;
#X connect 24 0 25 0;
#X connect 26 0 24 0;
#X connect 28 0 6 2;
#X connect 28 0 26 0;
#X connect 29 0 6 2;
#X connect 29 0 26 0;
#X connect 30 0 6 2;
#X connect 30 0 26 0;
#X connect 31 0 6 2;
#X connect 32 0 6 2;
#X connect 33 0 0 1;
#X connect 34 0 0 2;
#X connect 35 0 1 1;
#X connect 36 0 1 2;
#X restore -199 -474 pd audio;
#X msg -58 -580 \; pd dsp 1;
#X obj -113 -496 cnv 15 150 60 empty empty empty 20 12 0 14 -4160 -66577
0;
#N canvas 129 22 960 756 audio 0;
#X obj 10 27 cnv 15 500 200 empty empty empty 20 12 0 14 -261234 -66577
0;
#N canvas 113 36 280 317 tremolo 0;
#X obj -154 25 +~;
#X obj -94 -37 *~;
#X obj -95 -124 *~ 8;
#X obj -46 -73 line~;
#X obj -95 -152 osc~ 5;
#X obj -154 56 outlet~;
#X obj -43 -97 hsl 128 15 0 0.9 0 0 empty empty empty -2 -8 0 10 -262144
-1 -1 0 1;
#X obj -46 -127 - 0.5;
#X floatatom -46 -152 5 0 0 0 - - -;
#X text -174 -199 tremolo;
#X obj -46 -179 inlet;
#X obj -154 -27 inlet~;
#X connect 0 0 5 0;
#X connect 1 0 0 1;
#X connect 2 0 1 0;
#X connect 3 0 1 1;
#X connect 4 0 2 0;
#X connect 6 0 3 0;
#X connect 7 0 6 0;
#X connect 8 0 7 0;
#X connect 10 0 8 0;
#X connect 11 0 0 0;
#X restore 195 177 pd tremolo;
#N canvas 124 37 1241 493 echoes 0;
#X obj -107 38 receive~ dir;
#X obj -26 39 receive~ echo;
#X obj -107 65 *~ 0.2;
#X obj -26 65 *~ 0.5;
#X obj -42 110 +~;
#X obj -42 179 *~;
#X obj 18 131 hsl 128 15 0 127 0 0 empty empty empty -2 -8 0 10 -262144
-1 -1 0 1;
#X obj -75 220 outlet~;
#X obj 211 117 throw~ b1;
#X obj 284 117 throw~ b2;
#X obj 359 117 throw~ b3;
#X obj 203 148 delread~ d1 165;
#X obj 308 147 delread~ d2 121;
#X obj 416 146 delread~ d3 33;
#X obj 309 189 *~ 0.1;
#X obj 434 117 send~ dir;
#X obj 208 231 throw~ b1;
#X obj 281 231 throw~ b2;
#X obj 356 231 throw~ b3;
#X obj 431 231 send~ echo;
#X obj 543 67 catch~ b1;
#X obj 543 96 delwrite~ d1 1000;
#X obj 544 132 catch~ b2;
#X obj 544 161 delwrite~ d2 1000;
#X obj 546 198 catch~ b3;
#X obj 546 227 delwrite~ d3 1000;
#X obj 338 74 *~;
#X obj 412 37 + 0.2;
#X floatatom 412 63 5 0 0 0 - - -;
#X obj 414 9 inlet;
#X obj 309 34 inlet~;
#X text -106 1 echo;
#X connect 0 0 2 0;
#X connect 1 0 3 0;
#X connect 2 0 4 0;
#X connect 3 0 4 1;
#X connect 4 0 5 0;
#X connect 5 0 7 0;
#X connect 6 0 5 1;
#X connect 11 0 14 0;
#X connect 12 0 14 0;
#X connect 13 0 14 0;
#X connect 14 0 16 0;
#X connect 14 0 17 0;
#X connect 14 0 18 0;
#X connect 14 0 19 0;
#X connect 20 0 21 0;
#X connect 22 0 23 0;
#X connect 24 0 25 0;
#X connect 26 0 8 0;
#X connect 26 0 9 0;
#X connect 26 0 10 0;
#X connect 26 0 15 0;
#X connect 27 0 26 1;
#X connect 27 0 28 0;
#X connect 29 0 27 0;
#X connect 30 0 26 0;
#X restore 64 180 pd echoes;
#N canvas 881 81 374 360 reverber 0;
#N canvas 0 22 652 417 reverb 0;
#X obj 23 29 inlet~;
#X obj 23 53 reverb-echo echo-del1 5.43216;
#X obj 287 225 +~;
#X obj 329 225 +~;
#X obj 77 286 outlet~;
#X obj 147 286 outlet~;
#X obj 248 344 +~;
#X obj 357 345 +~;
#X obj 290 344 -~;
#X obj 397 344 -~;
#X obj 247 400 +~;
#X obj 291 401 +~;
#X obj 335 402 -~;
#X obj 374 402 -~;
#X obj 334 484 *~ 0;
#X obj 292 483 *~ 0;
#X obj 247 482 *~ 0;
#X obj 375 485 *~ 0;
#X obj 642 375 inlet;
#X obj 642 447 / 200;
#X obj 642 399 min 100;
#X obj 642 422 max 0;
#X obj 248 593 delwrite~ loop-del1 60;
#X obj 293 571 delwrite~ loop-del2 71.9345;
#X obj 374 525 delwrite~ loop-del4 95.945;
#X obj 308 164 delread~ loop-del1 60;
#X obj 350 189 delread~ loop-del2 71.9345;
#X obj 418 243 delread~ loop-del4 95.945;
#X obj 396 218 delread~ loop-del3 86.7545;
#X obj 335 548 delwrite~ loop-del3 86.7545;
#X obj 23 77 reverb-echo echo-del2 8.45346;
#X obj 23 101 reverb-echo echo-del3 13.4367;
#X obj 23 125 reverb-echo echo-del4 21.5463;
#X obj 23 149 reverb-echo echo-del5 34.3876;
#X obj 23 173 reverb-echo echo-del6 55.5437;
#X text 296 52 "early echo" generators \, which also increase echo
density. Open one to see what they do.;
#X text 310 125 Get the outputs of the recirculating delays. Add the
inputs to two of them.;
#X text 430 323 Do a power-conserving mix of them in pairs. First combine
(1 \, 2) and (3 \, 4)...;
#X text 412 395 ...then (1 \, 3) and (2 \, 4);
#X text 456 479 The two mixing stages have a combined gain of 2 \,
so the recirculation gain is limited to 0.5.;
#X text 596 552 Put the signals back into the;
#X text 594 567 recirculating delays.;
#X text 39 306 Tap outputs from here.;
#X text 718 391 0 to 100 to control reverb;
#X text 729 406 time.;
#X text 701 374 feedback gain on a scale of;
#X connect 0 0 1 0;
#X connect 1 0 30 0;
#X connect 1 1 30 1;
#X connect 2 0 4 0;
#X connect 2 0 6 0;
#X connect 2 0 8 0;
#X connect 3 0 5 0;
#X connect 3 0 6 1;
#X connect 3 0 8 1;
#X connect 6 0 10 0;
#X connect 6 0 12 0;
#X connect 7 0 12 1;
#X connect 7 0 10 1;
#X connect 8 0 11 0;
#X connect 8 0 13 0;
#X connect 9 0 11 1;
#X connect 9 0 13 1;
#X connect 10 0 16 0;
#X connect 11 0 15 0;
#X connect 12 0 14 0;
#X connect 13 0 17 0;
#X connect 14 0 29 0;
#X connect 15 0 23 0;
#X connect 16 0 22 0;
#X connect 17 0 24 0;
#X connect 18 0 20 0;
#X connect 19 0 17 1;
#X connect 19 0 16 1;
#X connect 19 0 15 1;
#X connect 19 0 14 1;
#X connect 20 0 21 0;
#X connect 21 0 19 0;
#X connect 25 0 2 1;
#X connect 26 0 3 1;
#X connect 27 0 7 1;
#X connect 27 0 9 1;
#X connect 28 0 7 0;
#X connect 28 0 9 0;
#X connect 30 0 31 0;
#X connect 30 1 31 1;
#X connect 31 0 32 0;
#X connect 31 1 32 1;
#X connect 32 0 33 0;
#X connect 32 1 33 1;
#X connect 33 0 34 0;
#X connect 33 1 34 1;
#X connect 34 0 2 0;
#X connect 34 1 3 0;
#X restore 74 123 pd reverb;
#X obj 124 97 - 10;
#X obj 206 194 hsl 128 15 0 0.5 0 0 empty empty empty -2 -8 0 10 -262144
-1 -1 0 1;
#X obj 82 252 *~ 0.9;
#X obj 124 71 * 80;
#X text 138 125 Reverb;
#X text 156 72 Feedback;
#X obj 79 296 outlet~;
#X obj 125 44 inlet;
#X obj 203 167 inlet;
#X obj 33 46 inlet~;
#X connect 0 0 3 0;
#X connect 1 0 0 1;
#X connect 2 0 3 1;
#X connect 3 0 7 0;
#X connect 4 0 1 0;
#X connect 8 0 4 0;
#X connect 9 0 2 0;
#X connect 10 0 0 0;
#X restore 324 148 pd reverber;
#N canvas 0 22 450 300 distance 0;
#X obj 131 143 abs;
#X obj 131 116 - \$1;
#X floatatom 131 88 5 0 0 0 - - -;
#X floatatom 168 88 5 0 0 0 - - -;
#X obj 131 191 autoscale;
#X obj 182 157 loadbang;
#X text 108 29 l hand y;
#X text 178 30 r hand x;
#X obj 131 53 r;
#X obj 168 53 r;
#X obj 131 219 outlet;
#X connect 0 0 4 0;
#X connect 1 0 0 0;
#X connect 2 0 1 0;
#X connect 3 0 1 1;
#X connect 4 0 10 0;
#X connect 5 0 4 3;
#X connect 8 0 2 0;
#X connect 9 0 3 0;
#X restore 116 138 pd distance;
#X obj 355 40 r torsox;
#X obj 415 39 r volume01;
#X obj 415 65 vsl 15 128 0 0.5 0 0 empty empty empty 0 -9 0 10 -262144
-1 -1 0 1;
#X obj 252 152 r lhandz;
#X obj 193 33 catch~ samp;
#X obj 3 223 cnv 15 500 140 empty empty empty 20 12 0 14 -262130 -66577
0;
#N canvas 321 33 756 413 distortion 0;
#X obj -79 234 clip~ -0.2 0.2;
#X obj -79 263 bp~ 1500 4;
#X obj -85 67 unpack f f;
#X obj -11 68 unpack f f;
#X obj -21 124 t f f;
#X obj -22 149 *;
#X obj -85 119 t f f;
#X obj -85 145 *;
#X obj -38 181 +;
#X obj -38 206 sqrt;
#X obj -85 93 - \$1;
#X obj -21 96 - \$2;
#X obj -79 291 *~ 0.5;
#X text -130 -2 distortion;
#X obj -84 39 inlet;
#X obj -10 36 inlet;
#X obj -79 321 outlet~;
#X connect 0 0 1 0;
#X connect 1 0 12 0;
#X connect 2 0 10 0;
#X connect 2 1 11 0;
#X connect 3 0 10 1;
#X connect 3 1 11 1;
#X connect 4 0 5 0;
#X connect 4 1 5 1;
#X connect 5 0 8 1;
#X connect 6 0 7 0;
#X connect 6 1 7 1;
#X connect 7 0 8 0;
#X connect 8 0 9 0;
#X connect 9 0 0 1;
#X connect 10 0 6 0;
#X connect 11 0 4 0;
#X connect 12 0 16 0;
#X connect 14 0 2 0;
#X connect 15 0 3 0;
#X restore 19 275 pd distortion;
#X obj 19 246 r lfooty;
#X obj 94 247 r rkneey;
#X obj 19 331 throw~ left2;
#X obj 34 308 throw~ right2;
#X obj 10 378 cnv 15 500 250 empty empty empty 20 12 0 14 -204786 -66577
0;
#N canvas 0 22 1398 654 chorus 0;
#X obj 125 232 *~;
#X floatatom 125 175 0 0 0 0 - - -;
#X obj 213 212 line~;
#X floatatom 29 189 0 0 0 0 - - -;
#X obj 29 303 cos~;
#X obj 29 259 +~;
#X obj 125 200 osc~ 0;
#X obj 213 186 pack 0 50;
#X floatatom 213 133 0 0 0 0 - - -;
#X obj 213 160 / 100;
#X text 187 95 modulation index;
#X text 187 110 in hundredths;
#X text 26 146 carrier;
#X text 25 164 frequency;
#X text 110 151 frequency;
#X text 111 134 modulation;
#X obj 29 216 phasor~;
#X obj 114 314 tabwrite~ phase-out;
#X obj 114 341 tabwrite~ cos-out;
#X msg 405 189 bang;
#X text 161 288 <-- graph them;
#X obj 28 338 hip~;
#X text 293 195 ramped to avoid;
#X text 292 211 clicks.);
#X text 292 179 (the index is;
#X obj 124 71 * 200;
#X obj 29 129 * 100;
#X obj 27 94 inlet;
#X obj 123 42 inlet;
#X obj 210 64 inlet;
#X obj 406 160 inlet;
#X obj 28 372 outlet~;
#X connect 0 0 5 1;
#X connect 1 0 6 0;
#X connect 2 0 0 1;
#X connect 3 0 16 0;
#X connect 4 0 18 0;
#X connect 4 0 21 0;
#X connect 5 0 4 0;
#X connect 5 0 17 0;
#X connect 6 0 0 0;
#X connect 7 0 2 0;
#X connect 8 0 9 0;
#X connect 9 0 7 0;
#X connect 16 0 5 0;
#X connect 19 0 17 0;
#X connect 19 0 18 0;
#X connect 21 0 31 0;
#X connect 25 0 1 0;
#X connect 26 0 3 0;
#X connect 27 0 26 0;
#X connect 28 0 25 0;
#X connect 29 0 8 0;
#X connect 30 0 19 0;
#X restore 23 523 pd chorus 1;
#X obj 86 482 bng 15 250 50 0 empty empty empty 17 7 0 10 -262144 -1
-1;
#N canvas 376 29 564 597 mouthsizer 0;
#X floatatom -329 34 5 0 0 0 - - -;
#X floatatom -207 187 5 0 0 0 - - -;
#X floatatom -155 189 5 0 0 0 - - -;
#N canvas 0 22 1284 968 vocalchords 0;
#X obj 2 6 cnv 15 400 300 empty empty empty 20 12 0 14 -258113 -66577
0;
#X text 3 19 frequency;
#X obj 10 273 outlet~;
#X obj 10 40 inlet~;
#X text 75 59 Modello del comportamento delle corde vocali umane attraverso
una simulazione di una pulsazione continua.;
#X obj 11 134 phasor~;
#X connect 3 0 5 0;
#X connect 5 0 2 0;
#X restore -329 160 pd vocalchords;
#X obj -332 354 *~ 0.65;
#N canvas 76 134 398 301 linearizza 0;
#X obj 7 -582 cnv 15 400 300 empty empty empty 20 12 0 14 -260097 -66577
0;
#N canvas 0 22 1028 726 linearizza 0;
#X obj 56 -539 inlet;
#X obj 177 -538 inlet;
#X obj 286 -539 inlet;
#X obj 108 -488 -;
#X obj 239 -485 -;
#X text 12 -565 da linearizzare;
#X text 175 -563 minimo;
#X text 284 -564 massimo;
#X obj 170 -443 /;
#X obj 121 -401 moses 0;
#X obj 172 -362 moses 1;
#X obj 172 -297 outlet;
#X floatatom 207 -412 5 0 0 0 - - -;
#X floatatom 231 -298 5 0 0 0 - - -;
#X msg 121 -362 0;
#X msg 223 -331 1;
#X connect 0 0 3 0;
#X connect 1 0 3 1;
#X connect 1 0 4 1;
#X connect 2 0 4 0;
#X connect 3 0 8 0;
#X connect 4 0 8 1;
#X connect 8 0 9 0;
#X connect 8 0 12 0;
#X connect 9 0 14 0;
#X connect 9 1 10 0;
#X connect 10 0 11 0;
#X connect 10 0 13 0;
#X connect 10 1 15 0;
#X connect 14 0 11 0;
#X connect 15 0 11 0;
#X restore 52 -470 pd linearizza X;
#X floatatom 52 -442 5 0 0 0 - - -;
#X text 77 -550 250 (min);
#X text 139 -551 800 (max);
#N canvas 0 22 458 378 linearizza 0;
#X obj 56 40 inlet;
#X obj 177 41 inlet;
#X obj 286 40 inlet;
#X obj 108 91 -;
#X obj 239 94 -;
#X text 12 14 da linearizzare;
#X text 175 16 minimo;
#X text 284 15 massimo;
#X obj 170 136 /;
#X obj 121 178 moses 0;
#X obj 172 217 moses 1;
#X obj 172 282 outlet;
#X floatatom 207 167 5 0 0 0 - - -;
#X floatatom 231 281 5 0 0 0 - - -;
#X msg 121 217 0;
#X msg 223 248 1;
#X connect 0 0 3 0;
#X connect 1 0 3 1;
#X connect 1 0 4 1;
#X connect 2 0 4 0;
#X connect 3 0 8 0;
#X connect 4 0 8 1;
#X connect 8 0 9 0;
#X connect 8 0 12 0;
#X connect 9 0 14 0;
#X connect 9 1 10 0;
#X connect 10 0 11 0;
#X connect 10 0 13 0;
#X connect 10 1 15 0;
#X connect 14 0 11 0;
#X connect 15 0 11 0;
#X restore 225 -470 pd linearizza Y;
#X floatatom 225 -443 5 0 0 0 - - -;
#X text 259 -552 800 (min);
#X obj 52 -577 inlet;
#X obj 225 -578 inlet;
#X text 28 -351 Questa subpatch effettua la sclatura dei valori dell'asse
X e Y in entrata \, attraverso un'astrazione contenuta nella subapatch
'linearizza'. I valori in uscita corrispondono ai segnali di controllo
della frequenza (Hz) dei filtri delle formanti.;
#X obj 52 -375 outlet;
#X obj 225 -375 outlet;
#X obj 52 -398 + 250;
#X obj 225 -398 + 800;
#X obj 95 -526 inlet;
#X text 326 -551 3000 (max);
#X obj 139 -526 inlet;
#X obj 268 -527 inlet;
#X obj 312 -526 inlet;
#X msg 140 -499 1;
#X msg 95 -500 0;
#X msg 268 -499 0;
#X msg 312 -499 1;
#X obj 52 -421 * 500;
#X obj 225 -423 * 1500;
#X connect 1 0 2 0;
#X connect 2 0 24 0;
#X connect 5 0 6 0;
#X connect 6 0 25 0;
#X connect 8 0 1 0;
#X connect 9 0 5 0;
#X connect 13 0 11 0;
#X connect 14 0 12 0;
#X connect 15 0 21 0;
#X connect 17 0 20 0;
#X connect 18 0 22 0;
#X connect 19 0 23 0;
#X connect 20 0 1 2;
#X connect 21 0 1 1;
#X connect 22 0 5 1;
#X connect 23 0 5 2;
#X connect 24 0 13 0;
#X connect 25 0 14 0;
#X restore -207 364 pd linearizza;
#N canvas 32 22 450 734 mouth 0;
#X obj 2 -451 cnv 15 400 600 empty empty empty 20 12 0 14 -257985 -66577
0;
#X obj 128 100 outlet~;
#X obj 129 64 /~ 2;
#X text 157 -274 (gain);
#X text 290 -272 (bandwidth);
#X text 206 -83 (gain);
#X text 333 -84 (bandwidth);
#N canvas 0 22 1284 968 formant 0;
#X obj 138 24 inlet~;
#X obj 192 69 inlet;
#X obj 235 210 inlet;
#X obj 220 117 inlet;
#X text 204 51 freq;
#X text 239 190 gain;
#X text 227 97 bw;
#X obj 137 438 outlet~;
#X obj 235 233 rmstodb;
#X obj 235 264 * 0.3;
#X obj 136 392 *~;
#X obj 153 243 sig~;
#X obj 139 336 vcf~;
#X connect 0 0 12 0;
#X connect 1 0 11 0;
#X connect 2 0 8 0;
#X connect 3 0 12 2;
#X connect 8 0 9 0;
#X connect 9 0 10 1;
#X connect 10 0 7 0;
#X connect 11 0 12 1;
#X connect 12 0 10 0;
#X restore 130 -165 pd formant 1;
#N canvas 0 22 1284 956 formant 0;
#X obj 138 24 inlet~;
#X obj 192 69 inlet;
#X obj 251 171 inlet;
#X obj 233 96 inlet;
#X text 204 51 freq;
#X text 255 151 gain;
#X text 240 76 bw;
#X obj 137 438 outlet~;
#X obj 251 194 rmstodb;
#X obj 251 225 * 0.3;
#X obj 136 392 *~;
#X obj 137 352 vcf~;
#X obj 155 235 sig~;
#X connect 0 0 11 0;
#X connect 1 0 12 0;
#X connect 2 0 8 0;
#X connect 3 0 11 2;
#X connect 8 0 9 0;
#X connect 9 0 10 1;
#X connect 10 0 7 0;
#X connect 11 0 10 0;
#X connect 12 0 11 1;
#X restore 177 18 pd formant 2;
#X obj 16 -314 inlet~;
#X obj 153 -320 inlet;
#X floatatom 153 -207 5 0 0 0 - - -;
#X floatatom 200 -24 5 0 0 0 - - -;
#X text 27 -436 Questa subpatch funge da modello della produzione della
vocali da parte della bocca umana. Qui troviamo i due filtri \, corrispondenti
alle due formanti principali F1 e F2 \, contenuti nella subpatch 'pd
formant'. I segnali in ingresso corrispondono al segnale di controllo
dei filtri \, e alla frequenza fondamentale di ogni formante.;
#X text 190 -320 (frequency);
#X text 235 -116 (frequency);
#X obj 200 -114 inlet;
#X obj 199 -274 inlet;
#X obj 254 -273 inlet;
#X obj 246 -86 inlet;
#X obj 297 -84 inlet;
#X msg 246 -54 0.0001;
#X msg 199 -250 0.0002;
#X msg 297 -55 70;
#X msg 254 -249 50;
#X connect 2 0 1 0;
#X connect 7 0 2 0;
#X connect 8 0 2 0;
#X connect 9 0 7 0;
#X connect 9 0 8 0;
#X connect 10 0 11 0;
#X connect 11 0 7 1;
#X connect 12 0 8 1;
#X connect 16 0 12 0;
#X connect 17 0 22 0;
#X connect 18 0 24 0;
#X connect 19 0 21 0;
#X connect 20 0 23 0;
#X connect 21 0 8 3;
#X connect 22 0 7 3;
#X connect 23 0 8 2;
#X connect 24 0 7 2;
#X coords 0 0 1 1 85 60 0;
#X restore -213 451 pd mouth;
#N canvas 649 169 549 378 signal 0;
#X obj -1 -515 cnv 15 350 300 empty empty empty 20 12 0 14 -258113
-66577 0;
#X obj 15 -395 sig~;
#X obj 15 -294 +~;
#X obj 75 -356 *~;
#X obj 76 -463 *~ 8;
#X obj 89 -384 line~;
#X obj 75 -500 osc~ 5;
#X obj 15 -432 inlet;
#X obj 89 -414 inlet;
#X obj 14 -264 outlet~;
#X connect 1 0 2 0;
#X connect 2 0 9 0;
#X connect 3 0 2 1;
#X connect 4 0 3 0;
#X connect 5 0 3 1;
#X connect 6 0 4 0;
#X connect 7 0 1 0;
#X connect 8 0 5 0;
#X restore -328 132 pd signal;
#X floatatom -328 98 5 0 0 0 - - -;
#X floatatom -206 255 5 0 0 0 - - -;
#X floatatom -162 258 5 0 0 0 - - -;
#X obj 104 203 bng 15 250 50 0 empty empty empty 17 7 0 10 -262144
-1 -1;
#X obj -205 227 - 0.1;
#X obj -328 67 * 350;
#X obj -163 226 + 0.1;
#X text -119 193 Formant Frequency;
#X text -234 225 F1;
#X text -121 225 F2;
#X text -304 407 Formant Filter;
#X obj -329 9 inlet;
#X obj -207 145 inlet;
#X obj 101 175 inlet;
#X obj -156 146 inlet;
#X obj -210 494 outlet~;
#X connect 0 0 13 0;
#X connect 1 0 12 0;
#X connect 2 0 14 0;
#X connect 3 0 4 0;
#X connect 4 0 6 0;
#X connect 5 0 6 1;
#X connect 5 1 6 3;
#X connect 6 0 23 0;
#X connect 7 0 3 0;
#X connect 8 0 7 0;
#X connect 9 0 5 0;
#X connect 10 0 5 3;
#X connect 11 0 5 1;
#X connect 11 0 5 2;
#X connect 11 0 5 4;
#X connect 11 0 5 5;
#X connect 11 0 6 2;
#X connect 11 0 6 4;
#X connect 11 0 6 5;
#X connect 11 0 6 6;
#X connect 12 0 9 0;
#X connect 13 0 8 0;
#X connect 14 0 10 0;
#X connect 19 0 0 0;
#X connect 20 0 1 0;
#X connect 21 0 11 0;
#X connect 22 0 2 0;
#X restore 153 522 pd mouthsizer;
#X obj 23 393 r heady;
#X obj 44 415 r lfooty;
#X obj 65 437 r rhanz;
#X obj 153 429 r necky;
#X obj 178 454 r lfootx;
#X obj 86 461 loadbang;
#X obj 35 555 throw~ right3;
#X obj 22 577 throw~ left3;
#X obj 166 551 throw~ right4;
#X obj 154 574 throw~ left4;
#X text 13 6 audio processing;
#X obj 64 203 throw~ samp_Echo;
#X obj 195 204 throw~ samp_Tremolo;
#X obj 324 201 throw~ samp_Reverb;
#X obj 143 311 throw~ distortion;
#X obj 24 604 throw~ chorus;
#X obj 158 599 throw~ mouthsizer;
#X obj 516 28 cnv 15 150 600 empty empty empty 20 12 0 14 -204800 -66577
0;
#N canvas 417 84 757 470 pitch_delay 0;
#N canvas 351 72 450 447 init 0;
#X msg 77 302 12.9;
#X msg 137 209 0;
#X msg 193 173 25;
#X obj 77 325 s pit_time;
#X obj 137 287 s pit_pitfact;
#X obj 137 256 s pit_fb;
#X obj 137 234 s pit_oct;
#X msg 253 118 85;
#X obj 193 199 s pit_lpdepth;
#X obj 253 143 s pit_dryvol;
#X obj 253 167 s pit_delvol;
#X msg 38 359 \; pd dsp 1 \;;
#X obj 38 -18 loadbang;
#X obj 38 5 t b b b b b b;
#X obj 306 105 s octave-set;
#X msg 306 82 3;
#X connect 0 0 3 0;
#X connect 1 0 4 0;
#X connect 1 0 5 0;
#X connect 1 0 6 0;
#X connect 2 0 8 0;
#X connect 7 0 9 0;
#X connect 7 0 10 0;
#X connect 12 0 13 0;
#X connect 13 0 11 0;
#X connect 13 1 0 0;
#X connect 13 2 1 0;
#X connect 13 3 2 0;
#X connect 13 4 7 0;
#X connect 13 5 15 0;
#X connect 15 0 14 0;
#X restore 536 326 pd init;
#N canvas 114 51 720 539 pitch_soundfile 0;
#N canvas 0 22 450 300 (subpatch) 0;
#X array pitch_soundfile 188893 float 2;
#X coords 0 1 188893 -1 200 140 1;
#X restore 34 32 graph;
#X obj 76 352 /;
#X obj 260 66 phasor~ 0.5;
#X obj 260 93 *~;
#X obj 76 288 t b f;
#X obj 76 321 samplerate~;
#X obj 76 260 r pitch_filelength;
#X obj 76 377 s pitch_phasorfreq;
#X obj 302 93 r pitch_filelength;
#X obj 260 117 tabread4~ pitch_soundfile;
#X obj 260 41 r pitch_phasorfreq;
#X obj 312 173 outlet~;
#X obj 281 264 dbtorms;
#X obj 281 238 r pitch_dryvolume;
#X obj 260 341 *~;
#X obj 281 310 line~;
#X msg 281 287 \$1 50;
#X obj 260 364 outlet~;
#X connect 1 0 7 0;
#X connect 2 0 3 0;
#X connect 3 0 9 0;
#X connect 4 0 5 0;
#X connect 4 1 1 1;
#X connect 5 0 1 0;
#X connect 6 0 4 0;
#X connect 8 0 3 1;
#X connect 9 0 11 0;
#X connect 9 0 14 0;
#X connect 10 0 2 0;
#X connect 12 0 16 0;
#X connect 13 0 12 0;
#X connect 14 0 17 0;
#X connect 15 0 14 1;
#X connect 16 0 15 0;
#X restore 533 99 pd pitch_soundfile;
#X obj 649 77 r pitchdel;
#X obj 649 99 +pitchdelay~;
#X floatatom 21 102 5 1 5000 0 - - -;
#X floatatom 189 296 5 0 200 0 - - -;
#X floatatom 21 297 5 0 100 0 - - -;
#X obj 21 141 s pitchdel;
#X obj 21 336 s pitchdel;
#X obj 189 335 s pitchdel;
#X obj 371 331 s pitchdel;
#X msg 21 120 time \$1;
#X msg 189 314 feedback \$1;
#X msg 371 310 octave \$1;
#X msg 21 315 loopDepth \$1;
#X obj 189 165 s pitchdel;
#X msg 189 144 pitchFactor \$1;
#X obj 192 61 hsl 128 15 0 34 0 0 empty pit_pitfact empty -2 -8 0 10
-228856 -1 -1 0 1;
#X obj 24 60 hsl 128 15 1 5000 1 0 empty pit_time empty -2 -8 0 10
-228856 -1 -1 3813 1;
#X obj 374 60 hsl 128 15 0 100 0 0 empty pit_dryvol empty -2 -8 0 10
-228856 -1 -1 10795 1;
#X obj 374 145 hsl 128 15 0 100 0 0 empty pit_delvol empty -2 -8 0
10 -228856 -1 -1 10795 1;
#X text 373 41 Dry Volume (dB);
#X text 374 125 Delay Volume (dB);
#X floatatom 371 101 5 0 0 0 - - pitch_dryvolume;
#X floatatom 371 161 5 0 0 0 - - pitch_delvolume;
#X obj 192 254 hsl 128 15 0 200 0 0 empty pit_fb empty -2 -8 0 10 -228856
-1 -1 0 1;
#X obj 24 254 hsl 128 15 10 100 0 0 empty pit_lpdepth empty -2 -8 0
10 -228856 -1 -1 2117 1;
#X text 187 236 0 - 200%;
#X text 19 42 0 - 5000 ms (log);
#X obj 189 101 int;
#X symbolatom 189 40 12 0 0 0 - label -;
#N canvas 624 151 656 333 label 0;
#X obj 117 188 list;
#X obj 117 209 list split 1;
#X obj 77 83 t b f f b;
#X obj 117 238 list split 1;
#X obj 77 63 + 1;
#X obj 238 220 - 1;
#X obj 77 35 inlet;
#X obj 163 264 s label;
#X msg 146 106 Unison Minor_2nd 16/15 10/9 Major_2nd 9/8 8/7 7/6 Minor_3rd
6/5 5/4 Major_3rd 9/7 4/3 Perfect_4th 7/5 Tritone 10/7 Perfect_5th
3/2 14/9 11/7 Minor_6th 8/5 5/3 Major_6th 12/7 7/4 16/9 Minor_7th 9/5
13/7 15/8 Major_7th Octave;
#X connect 0 0 1 0;
#X connect 1 0 3 0;
#X connect 2 0 0 0;
#X connect 2 1 1 1;
#X connect 2 2 5 0;
#X connect 2 3 8 0;
#X connect 3 1 7 0;
#X connect 4 0 2 0;
#X connect 5 0 3 1;
#X connect 6 0 4 0;
#X connect 8 0 0 1;
#X restore 201 122 pd label;
#X text 19 236 10 - 100%;
#X obj 371 254 hradio 15 1 0 7 empty octave-set empty 0 -8 0 10 -262144
-1 -1 3;
#X obj 371 286 - 3;
#X obj 533 125 throw~;
#X obj 649 124 throw~;
#X text 534 143 normal;
#X text 647 144 procesed;
#X connect 1 0 35 0;
#X connect 1 1 3 0;
#X connect 2 0 3 0;
#X connect 3 0 36 0;
#X connect 4 0 11 0;
#X connect 5 0 12 0;
#X connect 6 0 14 0;
#X connect 11 0 7 0;
#X connect 12 0 9 0;
#X connect 13 0 10 0;
#X connect 14 0 8 0;
#X connect 16 0 15 0;
#X connect 17 0 29 0;
#X connect 18 0 4 0;
#X connect 19 0 23 0;
#X connect 20 0 24 0;
#X connect 25 0 5 0;
#X connect 26 0 6 0;
#X connect 29 0 16 0;
#X connect 29 0 31 0;
#X connect 33 0 34 0;
#X connect 34 0 13 0;
#X restore 525 52 pd pitch_delay;
#N canvas 0 22 969 559 feedback 0;
#X obj 199 498 vols~;
#X floatatom 256 478 5 0 0 0 - - -;
#X obj 196 48 bng 15 250 50 0 empty empty empty 0 -6 0 8 -262144 -1
-1;
#X msg 63 384 print;
#X floatatom 269 400 5 0 0 0 - - -;
#X floatatom 320 401 5 0 0 0 - - -;
#X obj 147 159 *~;
#X floatatom 256 80 5 0 0 0 - - -;
#X obj 199 126 ead~;
#X msg 413 88 lines 501 752 5003 7504 105 206 307 408;
#X floatatom 205 79 5 0 0 0 - - -;
#X msg 414 217 linear 32 100 105;
#X msg 413 240 linear 32 1000 1005;
#X msg 65 434 reset;
#X obj 195 432 fdn~ 64 40000;
#X msg 411 296 exponential 32 10 5000;
#X msg 413 261 linear 32 100 2015;
#X msg 414 193 linear 8 75 100;
#X msg 414 170 linear 32 50 2175;
#X msg 413 343 exponential 8 50 175;
#X text 369 437 creation arguments: <max nb delaylines> <total delay
memory in ms>;
#X text 56 365 print delay lengths;
#X text 55 417 reset state;
#X text 369 481 nb delay lines is always a multiple of 4;
#X text 411 65 specify delay line lengths manually;
#X text 412 121 specify a linear/exponential delay length range;
#X text 414 139 <type> <nb lines> <min length> <max length>;
#X text 412 399 inlets: low/high frequency reverb time (60dB time)
;
#X msg 411 320 exponential 64 1000 10;
#X obj 185 532 throw~;
#X obj 232 534 throw~;
#X obj 107 113 signal;
#X connect 0 0 29 0;
#X connect 0 1 30 0;
#X connect 1 0 0 2;
#X connect 2 0 8 0;
#X connect 3 0 14 0;
#X connect 4 0 14 1;
#X connect 5 0 14 2;
#X connect 6 0 14 0;
#X connect 7 0 8 2;
#X connect 8 0 6 1;
#X connect 8 0 14 0;
#X connect 9 0 14 0;
#X connect 10 0 8 1;
#X connect 11 0 14 0;
#X connect 12 0 14 0;
#X connect 13 0 14 0;
#X connect 14 0 0 0;
#X connect 14 1 0 1;
#X connect 15 0 14 0;
#X connect 16 0 14 0;
#X connect 17 0 14 0;
#X connect 18 0 14 0;
#X connect 19 0 14 0;
#X connect 28 0 14 0;
#X connect 31 0 6 0;
#X restore 527 244 pd feedback;
#X connect 1 0 32 0;
#X connect 2 0 31 0;
#X connect 3 0 33 0;
#X connect 4 0 2 1;
#X connect 5 0 3 1;
#X connect 6 0 7 0;
#X connect 7 0 3 2;
#X connect 8 0 1 1;
#X connect 9 0 1 0;
#X connect 9 0 2 0;
#X connect 9 0 3 0;
#X connect 11 0 14 0;
#X connect 11 0 15 0;
#X connect 12 0 11 0;
#X connect 13 0 11 1;
#X connect 17 0 26 0;
#X connect 17 0 27 0;
#X connect 18 0 17 3;
#X connect 18 0 19 3;
#X connect 19 0 28 0;
#X connect 19 0 29 0;
#X connect 20 0 17 0;
#X connect 21 0 17 1;
#X connect 22 0 17 2;
#X connect 23 0 19 0;
#X connect 24 0 19 1;
#X connect 25 0 18 0;
#X restore -96 -472 pd audio processing;
#X obj -64 -432 cnv 15 100 60 empty empty empty 20 12 0 14 -228856
-66577 0;
#N canvas 479 37 842 313 normalize 0;
#X obj 613 54 *~ 2;
#X obj 613 77 -~ 1;
#X text 648 55 normalization;
#X text 645 77 remove DC offset;
#X obj 612 126 expr~ ($v1 > 0.5)*2 -1;
#X obj 9 8 cnv 15 550 270 empty empty empty 20 12 0 14 -162280 -66577
0;
#X obj 17 46 catch~ samp;
#N canvas 132 46 450 300 normalize 0;
#N canvas 552 62 429 398 reverse 0;
#X obj 83 185 line~;
#X msg 83 159 \$1 20;
#X obj 83 214 *~;
#X obj 83 106 autoscale;
#X obj 83 133 reverse;
#X floatatom 136 133 5 0 0 0 - - -;
#X obj 157 83 loadbang;
#X obj 139 84 bng 15 250 50 0 empty empty empty 17 7 0 10 -262144 -1
-1;
#X obj 83 83 r rhandy;
#X obj 83 237 outlet~;
#X connect 0 0 2 1;
#X connect 0 0 2 0;
#X connect 1 0 0 0;
#X connect 2 0 9 0;
#X connect 3 0 4 0;
#X connect 4 0 1 0;
#X connect 4 0 5 0;
#X connect 6 0 7 0;
#X connect 7 0 3 3;
#X connect 8 0 3 0;
#X restore 60 76 pd reverse;
#X obj 86 98 r headx;
#X obj 86 157 s volume01;
#X obj 35 127 normalize;
#X obj 35 52 inlet~;
#X obj 35 157 outlet~;
#X connect 0 0 3 1;
#X connect 1 0 3 2;
#X connect 3 0 5 0;
#X connect 3 1 2 0;
#X connect 4 0 3 0;
#X restore 17 78 pd normalize;
#N canvas 132 46 450 300 normalize1 0;
#N canvas 552 62 429 398 reverse 0;
#X obj 83 185 line~;
#X msg 83 159 \$1 20;
#X obj 83 214 *~;
#X obj 83 106 autoscale;
#X obj 83 133 reverse;
#X floatatom 136 133 5 0 0 0 - - -;
#X obj 157 83 loadbang;
#X obj 139 84 bng 15 250 50 0 empty empty empty 17 7 0 10 -262144 -1
-1;
#X obj 83 83 r rhandy;
#X obj 83 237 outlet~;
#X connect 0 0 2 1;
#X connect 0 0 2 0;
#X connect 1 0 0 0;
#X connect 2 0 9 0;
#X connect 3 0 4 0;
#X connect 4 0 1 0;
#X connect 4 0 5 0;
#X connect 6 0 7 0;
#X connect 7 0 3 3;
#X connect 8 0 3 0;
#X restore 60 76 pd reverse;
#X obj 86 98 r headx;
#X obj 86 157 s volume01;
#X obj 35 127 normalize;
#X obj 35 52 inlet~;
#X obj 35 157 outlet~;
#X connect 0 0 3 1;
#X connect 1 0 3 2;
#X connect 3 0 5 0;
#X connect 3 1 2 0;
#X connect 4 0 3 0;
#X restore 259 37 pd normalize1;
#N canvas 132 46 450 300 normalize2 0;
#N canvas 552 62 429 398 reverse 0;
#X obj 83 185 line~;
#X msg 83 159 \$1 20;
#X obj 83 214 *~;
#X obj 83 106 autoscale;
#X obj 83 133 reverse;
#X floatatom 136 133 5 0 0 0 - - -;
#X obj 157 83 loadbang;
#X obj 139 84 bng 15 250 50 0 empty empty empty 17 7 0 10 -262144 -1
-1;
#X obj 83 83 r rhandy;
#X obj 83 237 outlet~;
#X connect 0 0 2 1;
#X connect 0 0 2 0;
#X connect 1 0 0 0;
#X connect 2 0 9 0;
#X connect 3 0 4 0;
#X connect 4 0 1 0;
#X connect 4 0 5 0;
#X connect 6 0 7 0;
#X connect 7 0 3 3;
#X connect 8 0 3 0;
#X restore 60 76 pd reverse;
#X obj 86 98 r headx;
#X obj 86 157 s volume01;
#X obj 35 127 normalize;
#X obj 35 52 inlet~;
#X obj 35 157 outlet~;
#X connect 0 0 3 1;
#X connect 1 0 3 2;
#X connect 3 0 5 0;
#X connect 3 1 2 0;
#X connect 4 0 3 0;
#X restore 260 78 pd normalize2;
#N canvas 132 46 450 300 normalize3 0;
#N canvas 552 62 429 398 reverse 0;
#X obj 83 185 line~;
#X msg 83 159 \$1 20;
#X obj 83 214 *~;
#X obj 83 106 autoscale;
#X obj 83 133 reverse;
#X floatatom 136 133 5 0 0 0 - - -;
#X obj 157 83 loadbang;
#X obj 139 84 bng 15 250 50 0 empty empty empty 17 7 0 10 -262144 -1
-1;
#X obj 83 83 r rhandy;
#X obj 83 237 outlet~;
#X connect 0 0 2 1;
#X connect 0 0 2 0;
#X connect 1 0 0 0;
#X connect 2 0 9 0;
#X connect 3 0 4 0;
#X connect 4 0 1 0;
#X connect 4 0 5 0;
#X connect 6 0 7 0;
#X connect 7 0 3 3;
#X connect 8 0 3 0;
#X restore 60 76 pd reverse;
#X obj 86 98 r headx;
#X obj 86 157 s volume01;
#X obj 35 127 normalize;
#X obj 35 52 inlet~;
#X obj 35 157 outlet~;
#X connect 0 0 3 1;
#X connect 1 0 3 2;
#X connect 3 0 5 0;
#X connect 3 1 2 0;
#X connect 4 0 3 0;
#X restore 262 121 pd normalize3;
#X obj 24 124 throw~ samp_normalize_1;
#X obj 18 158 throw~ samp_normalize_2;
#X obj 40 190 throw~ samp_normalize_3;
#X obj 52 214 throw~ samp_normalize_4;
#X connect 0 0 1 0;
#X connect 6 0 7 0;
#X connect 7 0 11 0;
#X connect 7 0 12 0;
#X connect 7 0 13 0;
#X connect 7 0 14 0;
#X restore -48 -409 pd normalize;
#X obj -64 -368 cnv 15 100 60 empty empty empty 20 12 0 14 -162280
-66577 0;
#N canvas 414 158 450 300 panning 0;
#X obj 140 80 ramp;
#X obj 54 161 pan1;
#X obj 191 159 pan~;
#X text 88 161 normal;
#X text 224 157 in degrees;
#X text 177 81 for volume;
#X obj 54 202 throw~ samp_speaker1_f;
#X obj 76 224 throw~ samp_speaker2_f;
#X obj 54 34 ctch~ samp_normalize_1;
#X connect 1 0 6 0;
#X connect 1 1 7 0;
#X connect 8 0 1 0;
#X restore -47 -348 pd panning;
#X obj -64 -304 cnv 15 100 60 empty empty empty 20 12 0 14 -33289 -66577
0;
#N canvas 565 148 581 592 output 0;
#X obj 156 538 dac~ 1 2 3 4;
#X obj 135 134 dac~ 1 2 3 4;
#X text 26 99 right1 left1;
#X text 132 99 right 2 left 2;
#X text 133 112 right 3 left 3;
#X text 262 101 right 4 left 4;
#X obj 86 32 catch~;
#X obj 202 33 catch~;
#X obj 149 33 catch~;
#X obj 23 10 catch~ samp_speaker1f_f;
#X obj 160 176 catch~ test1a;
#X obj 249 176 catch~ test2a;
#X obj 336 176 catch~ test3a;
#X obj 423 176 catch~ test4a;
#X obj 12 350 catch~ samp_normalize_1;
#X obj 161 351 catch~ samp_normalize_2;
#X obj 310 352 catch~ samp_normalize_3;
#X obj 459 354 catch~ samp_normalize_4;
#X obj 12 379 *~;
#X obj 162 376 *~;
#X obj 311 379 *~;
#X obj 458 380 *~;
#X obj 25 329 hsl 128 15 0 1.5 0 0 empty empty empty -2 -8 0 10 -262144
-1 -1 0 1;
#X obj 164 331 hsl 128 15 0 1.5 0 0 empty empty empty -2 -8 0 10 -262144
-1 -1 0 1;
#X obj 311 333 hsl 128 15 0 1.5 0 0 empty empty empty -2 -8 0 10 -262144
-1 -1 0 1;
#X obj 459 331 hsl 128 15 0 1.5 0 0 empty empty empty -2 -8 0 10 -262144
-1 -1 0 1;
#X obj 371 247 r headz;
#X connect 14 0 18 0;
#X connect 15 0 19 0;
#X connect 16 0 0 2;
#X connect 17 0 0 3;
#X connect 18 0 0 0;
#X connect 19 0 0 1;
#X connect 22 0 18 1;
#X connect 23 0 19 1;
#X connect 24 0 20 1;
#X connect 25 0 21 1;
#X connect 26 0 24 0;
#X connect 26 0 25 0;
#X restore -42 -283 pd output;
#X obj 73 -636 cnv 15 700 680 empty empty empty 20 12 0 14 -228856
-66577 0;
#X obj 362 -593 cnv 15 100 60 empty empty empty 20 12 0 14 -260097
-66577 0;
#N canvas 652 106 450 300 Head 0;
#X obj 136 34 r head;
#X obj 136 59 unpack f f f f;
#X floatatom 136 212 5 0 0 0 - - -;
#X floatatom 163 170 5 0 0 0 - - -;
#X floatatom 190 125 5 0 0 0 - - -;
#X floatatom 217 83 5 0 0 0 - - -;
#X obj 163 191 s headx;
#X obj 190 147 s heady;
#X obj 217 104 s headz;
#X connect 0 0 1 0;
#X connect 1 0 2 0;
#X connect 1 1 3 0;
#X connect 1 2 4 0;
#X connect 1 3 5 0;
#X connect 3 0 6 0;
#X connect 4 0 7 0;
#X connect 5 0 8 0;
#X restore 387 -569 pd Head;
#X obj 380 -525 cnv 15 60 30 empty empty empty 20 12 0 14 -260097 -66577
0;
#N canvas 621 387 450 300 Neck 0;
#X obj 136 59 unpack f f f f;
#X floatatom 136 212 5 0 0 0 - - -;
#X floatatom 163 170 5 0 0 0 - - -;
#X floatatom 190 125 5 0 0 0 - - -;
#X floatatom 217 83 5 0 0 0 - - -;
#X obj 136 34 r neck;
#X obj 163 191 s neckx;
#X obj 190 147 s necky;
#X obj 217 104 s neckz;
#X connect 0 0 1 0;
#X connect 0 1 2 0;
#X connect 0 2 3 0;
#X connect 0 3 4 0;
#X connect 2 0 6 0;
#X connect 3 0 7 0;
#X connect 4 0 8 0;
#X connect 5 0 0 0;
#X restore 388 -519 pd Neck;
#X obj 234 -485 cnv 15 350 30 empty empty empty 20 12 0 14 -260097
-66577 0;
#N canvas 621 387 450 300 LeftShoulder 0;
#X obj 136 59 unpack f f f f;
#X floatatom 136 212 5 0 0 0 - - -;
#X floatatom 163 170 5 0 0 0 - - -;
#X floatatom 190 125 5 0 0 0 - - -;
#X floatatom 217 83 5 0 0 0 - - -;
#X obj 136 34 r l_shoulder;
#X obj 163 191 s l_shoulderx;
#X obj 190 147 s l_shouldery;
#X obj 217 104 s l_shoulderz;
#X connect 0 0 1 0;
#X connect 0 1 2 0;
#X connect 0 2 3 0;
#X connect 0 3 4 0;
#X connect 2 0 6 0;
#X connect 3 0 7 0;
#X connect 4 0 8 0;
#X connect 5 0 0 0;
#X restore 239 -479 pd LeftShoulder;
#N canvas 621 387 450 300 RightShoulder 0;
#X obj 136 59 unpack f f f f;
#X floatatom 136 212 5 0 0 0 - - -;
#X floatatom 163 170 5 0 0 0 - - -;
#X floatatom 190 125 5 0 0 0 - - -;
#X floatatom 217 83 5 0 0 0 - - -;
#X obj 136 34 r r_shoulder;
#X obj 217 104 s r_shoulderz;
#X obj 190 147 s r_shouldery;
#X obj 163 191 s r_shoulderx;
#X connect 0 0 1 0;
#X connect 0 1 2 0;
#X connect 0 2 3 0;
#X connect 0 3 4 0;
#X connect 2 0 8 0;
#X connect 3 0 7 0;
#X connect 4 0 6 0;
#X connect 5 0 0 0;
#X restore 475 -479 pd RightShoulder;
#X obj 158 -442 cnv 15 90 30 empty empty empty 20 12 0 14 -260097 -66577
0;
#N canvas 668 453 450 300 leftElbow 0;
#X obj 136 59 unpack f f f f;
#X floatatom 136 212 5 0 0 0 - - -;
#X floatatom 163 170 5 0 0 0 - - -;
#X floatatom 190 125 5 0 0 0 - - -;
#X floatatom 217 83 5 0 0 0 - - -;
#X obj 136 34 r l_elbow;
#X obj 163 191 s lelbowx;
#X obj 190 148 s lelbowy;
#X obj 217 104 s lelbowz;
#X connect 0 0 1 0;
#X connect 0 1 2 0;
#X connect 0 2 3 0;
#X connect 0 3 4 0;
#X connect 2 0 6 0;
#X connect 3 0 7 0;
#X connect 4 0 8 0;
#X connect 5 0 0 0;
#X restore 165 -436 pd leftElbow;
#X obj 589 -442 cnv 15 90 30 empty empty empty 20 12 0 14 -260097 -66577
0;
#N canvas 668 453 450 300 rightElbow 0;
#X obj 136 59 unpack f f f f;
#X floatatom 136 212 5 0 0 0 - - -;
#X floatatom 163 170 5 0 0 0 - - -;
#X floatatom 190 125 5 0 0 0 - - -;
#X floatatom 217 83 5 0 0 0 - - -;
#X obj 136 34 r r_elbow;
#X obj 163 191 s relbowx;
#X obj 190 148 s relbowy;
#X obj 217 104 s relbowz;
#X connect 0 0 1 0;
#X connect 0 1 2 0;
#X connect 0 2 3 0;
#X connect 0 3 4 0;
#X connect 2 0 6 0;
#X connect 3 0 7 0;
#X connect 4 0 8 0;
#X connect 5 0 0 0;
#X restore 594 -436 pd rightElbow;
#X obj 110 -399 cnv 15 70 30 empty empty empty 20 12 0 14 -260097 -66577
0;
#X obj 633 -404 cnv 15 80 30 empty empty empty 20 12 0 14 -260097 -66577
0;
#X obj 363 -445 cnv 15 100 200 empty empty empty 20 12 0 14 -260097
-66577 0;
#X obj 311 -192 cnv 15 75 170 empty empty empty 20 12 0 14 -260097
-66577 0;
#X obj 251 -2 cnv 15 70 30 empty empty empty 20 12 0 14 -260097 -66577
0;
#X obj 502 -5 cnv 15 80 30 empty empty empty 20 12 0 14 -260097 -66577
0;
#X obj 313 -233 cnv 15 200 30 empty empty empty 20 12 0 14 -260097
-66577 0;
#X obj 440 -192 cnv 15 75 170 empty empty empty 20 12 0 14 -260097
-66577 0;
#N canvas 668 453 450 300 leftHand 0;
#X obj 136 59 unpack f f f f;
#X floatatom 136 212 5 0 0 0 - - -;
#X floatatom 163 170 5 0 0 0 - - -;
#X floatatom 190 125 5 0 0 0 - - -;
#X floatatom 217 83 5 0 0 0 - - -;
#X obj 136 34 r l_hand;
#X obj 217 104 s lhandz;
#X obj 190 148 s lhandy;
#X obj 163 191 s lhandx;
#X connect 0 0 1 0;
#X connect 0 1 2 0;
#X connect 0 2 3 0;
#X connect 0 3 4 0;
#X connect 2 0 8 0;
#X connect 3 0 7 0;
#X connect 4 0 6 0;
#X connect 5 0 0 0;
#X restore 110 -392 pd leftHand;
#N canvas 668 453 450 300 rightHand 0;
#X obj 136 59 unpack f f f f;
#X floatatom 136 212 5 0 0 0 - - -;
#X floatatom 163 170 5 0 0 0 - - -;
#X floatatom 190 125 5 0 0 0 - - -;
#X floatatom 217 83 5 0 0 0 - - -;
#X obj 136 34 r r_hand;
#X obj 163 191 s rhandx;
#X obj 190 148 s rhandy;
#X obj 217 104 s rhandz;
#X connect 0 0 1 0;
#X connect 0 1 2 0;
#X connect 0 2 3 0;
#X connect 0 3 4 0;
#X connect 2 0 6 0;
#X connect 3 0 7 0;
#X connect 4 0 8 0;
#X connect 5 0 0 0;
#X restore 635 -397 pd rightHand;
#N canvas 668 453 450 300 Torso 0;
#X obj 136 59 unpack f f f f;
#X floatatom 136 212 5 0 0 0 - - -;
#X floatatom 163 170 5 0 0 0 - - -;
#X floatatom 190 125 5 0 0 0 - - -;
#X floatatom 217 83 5 0 0 0 - - -;
#X obj 136 34 r torso;
#X obj 163 191 s torsox;
#X obj 190 147 s torsoy;
#X obj 217 104 s torsoz;
#X connect 0 0 1 0;
#X connect 0 1 2 0;
#X connect 0 2 3 0;
#X connect 0 3 4 0;
#X connect 2 0 6 0;
#X connect 3 0 7 0;
#X connect 4 0 8 0;
#X connect 5 0 0 0;
#X restore 389 -364 pd Torso;
#N canvas 668 453 450 300 leftHip 0;
#X obj 136 59 unpack f f f f;
#X floatatom 136 212 5 0 0 0 - - -;
#X floatatom 163 170 5 0 0 0 - - -;
#X floatatom 190 125 5 0 0 0 - - -;
#X floatatom 217 83 5 0 0 0 - - -;
#X obj 136 34 r l_hip;
#X obj 217 104 s lhipz;
#X obj 190 148 s lhipy;
#X obj 163 191 s lhipx;
#X connect 0 0 1 0;
#X connect 0 1 2 0;
#X connect 0 2 3 0;
#X connect 0 3 4 0;
#X connect 2 0 8 0;
#X connect 3 0 7 0;
#X connect 4 0 6 0;
#X connect 5 0 0 0;
#X restore 320 -226 pd leftHip;
#N canvas 668 453 450 300 rightHip 0;
#X obj 136 59 unpack f f f f;
#X floatatom 136 212 5 0 0 0 - - -;
#X floatatom 163 170 5 0 0 0 - - -;
#X floatatom 190 125 5 0 0 0 - - -;
#X floatatom 217 83 5 0 0 0 - - -;
#X obj 136 34 r r_hip;
#X obj 217 104 s rhipz;
#X obj 190 148 s rhipy;
#X obj 163 191 s rhipx;
#X connect 0 0 1 0;
#X connect 0 1 2 0;
#X connect 0 2 3 0;
#X connect 0 3 4 0;
#X connect 2 0 8 0;
#X connect 3 0 7 0;
#X connect 4 0 6 0;
#X connect 5 0 0 0;
#X restore 435 -225 pd rightHip;
#N canvas 668 453 450 300 leftKnee 0;
#X obj 136 59 unpack f f f f;
#X floatatom 136 212 5 0 0 0 - - -;
#X floatatom 163 170 5 0 0 0 - - -;
#X floatatom 190 125 5 0 0 0 - - -;
#X floatatom 217 83 5 0 0 0 - - -;
#X obj 136 34 r l_knee;
#X obj 163 191 s lkneex;
#X obj 190 148 s lkneey;
#X obj 217 104 s lkneez;
#X connect 0 0 1 0;
#X connect 0 1 2 0;
#X connect 0 2 3 0;
#X connect 0 3 4 0;
#X connect 2 0 6 0;
#X connect 3 0 7 0;
#X connect 4 0 8 0;
#X connect 5 0 0 0;
#X restore 313 -120 pd leftKnee;
#N canvas 668 453 450 300 rightKnee 0;
#X obj 136 59 unpack f f f f;
#X floatatom 136 212 5 0 0 0 - - -;
#X floatatom 163 170 5 0 0 0 - - -;
#X floatatom 190 125 5 0 0 0 - - -;
#X floatatom 217 83 5 0 0 0 - - -;
#X obj 136 34 r r_knee;
#X obj 217 104 s rkneez;
#X obj 190 148 s rkneey;
#X obj 163 191 s rkneex;
#X connect 0 0 1 0;
#X connect 0 1 2 0;
#X connect 0 2 3 0;
#X connect 0 3 4 0;
#X connect 2 0 8 0;
#X connect 3 0 7 0;
#X connect 4 0 6 0;
#X connect 5 0 0 0;
#X restore 440 -120 pd rightKnee;
#N canvas 668 453 450 300 leftFoot 0;
#X obj 136 59 unpack f f f f;
#X floatatom 136 212 5 0 0 0 - - -;
#X floatatom 163 170 5 0 0 0 - - -;
#X floatatom 190 125 5 0 0 0 - - -;
#X floatatom 217 83 5 0 0 0 - - -;
#X obj 136 34 r l_foot;
#X obj 163 191 s lfootx;
#X obj 190 148 s lfooty;
#X obj 217 104 s lfootz;
#X connect 0 0 1 0;
#X connect 0 1 2 0;
#X connect 0 2 3 0;
#X connect 0 3 4 0;
#X connect 2 0 6 0;
#X connect 3 0 7 0;
#X connect 4 0 8 0;
#X connect 5 0 0 0;
#X restore 251 4 pd leftFoot;
#N canvas 668 453 450 300 rightFoot 0;
#X obj 136 59 unpack f f f f;
#X floatatom 136 212 5 0 0 0 - - -;
#X floatatom 163 170 5 0 0 0 - - -;
#X floatatom 190 125 5 0 0 0 - - -;
#X floatatom 217 83 5 0 0 0 - - -;
#X obj 136 34 r r_foot;
#X obj 217 104 s rfootz;
#X obj 190 148 s rfooty;
#X obj 163 191 s rfootx;
#X connect 0 0 1 0;
#X connect 0 1 2 0;
#X connect 0 2 3 0;
#X connect 0 3 4 0;
#X connect 2 0 8 0;
#X connect 3 0 7 0;
#X connect 4 0 6 0;
#X connect 5 0 0 0;
#X restore 503 2 pd rightFoot;
#X text 138 -490 1;
#X text 734 -496 2;
#X text 744 0 3;
#X text -217 -651 Poetry in Form of Movement 2012;
#N canvas 360 101 737 550 test 0;
#X obj -158 167 cnv 15 250 300 empty empty empty 20 12 0 14 -203904
-66577 0;
#X obj -133 223 openpanel;
#X msg -133 252 open \$1;
#X msg -120 310 1;
#X obj -133 343 readsf~;
#X obj -133 394 throw~ test1;
#X obj -49 394 throw~ test2;
#X obj -49 424 throw~ test3;
#X obj -133 424 throw~ test4;
#X obj 103 168 cnv 15 450 300 empty empty empty 20 12 0 14 -203904
-66577 0;
#X obj 257 348 noise~;
#X obj 303 424 throw~ test3a;
#X obj 127 424 throw~ test1a;
#X obj 127 401 *~;
#X obj 303 399 *~;
#X obj 216 399 *~;
#X obj 216 424 throw~ test2a;
#X obj 390 399 *~;
#X obj 390 424 throw~ test4a;
#X text 102 117 White noise;
#X obj 242 107 bng 15 250 50 0 empty empty empty 17 7 0 10 -4034 -1
-1;
#X text 259 104 Sample;
#X obj 106 134 hsl 128 15 0 1.5 0 0 empty empty empty -2 -8 0 10 -261234
-1 -1 0 1;
#X obj 244 134 hsl 128 15 0 1.5 0 0 empty empty empty -2 -8 0 10 -261682
-1 -1 0 1;
#X obj 245 152 hsl 128 15 0 1.5 0 0 empty empty empty -2 -8 0 10 -204800
-1 -1 0 1;
#X obj 106 152 hsl 128 15 0 1.5 0 0 empty empty empty -2 -8 0 10 -204786
-1 -1 0 1;
#X text 109 132 1;
#X text 248 133 2;
#X text 247 151 3;
#X text 111 152 4;
#X connect 1 0 2 0;
#X connect 2 0 4 0;
#X connect 3 0 4 0;
#X connect 4 0 5 0;
#X connect 4 0 8 0;
#X connect 4 0 6 0;
#X connect 4 0 7 0;
#X connect 10 0 13 0;
#X connect 10 0 14 0;
#X connect 10 0 15 0;
#X connect 10 0 17 0;
#X connect 13 0 12 0;
#X connect 14 0 11 0;
#X connect 15 0 16 0;
#X connect 17 0 18 0;
#X connect 20 0 1 0;
#X connect 22 0 13 1;
#X connect 23 0 15 1;
#X connect 24 0 14 1;
#X connect 25 0 17 1;
#X coords 0 -1 1 1 280 70 1 100 100;
#X restore -216 9 pd test;
#X obj 79 56 import iemgui;
#X obj -58 -601 loadbang;
#N canvas 152 73 338 266 VUmeter 0;
#X obj 102 17 catch~ speaker1;
#X obj 102 45 rms_to_db;
#X obj 102 71 outlet;
#X obj 153 71 outlet;
#X obj 104 127 iem_vu 16 120 empty empty -1 -8 0 8 -66577 -1 1 0;
#X connect 0 0 1 0;
#X connect 1 0 2 0;
#X connect 1 0 4 0;
#X connect 1 1 3 0;
#X connect 1 1 4 1;
#X coords 0 -1 1 1 40 160 1 100 100;
#X restore 85 -628 pd VUmeter;
#X obj -210 -401 cnv 15 100 60 empty empty empty 20 12 0 14 -233017
-66577 0;
#N canvas 341 195 477 472 intelligent 0;
#X floatatom 33 434 5 0 0 0 - - -;
#X floatatom 49 407 5 0 0 0 - - -;
#X floatatom 86 434 5 0 0 0 - - -;
#X floatatom 103 407 5 0 0 0 - - -;
#X floatatom 139 434 5 0 0 0 - - -;
#X floatatom 157 407 5 0 0 0 - - -;
#X floatatom 193 435 5 0 0 0 - - -;
#X floatatom 210 408 5 0 0 0 - - -;
#X msg 32 43 bang;
#X msg 79 133 randfill;
#X msg 94 160 fill 0;
#X msg 110 187 lo 2;
#X msg 118 214 hi 3;
#X msg 130 241 nset 3;
#X msg 171 322 display;
#X text 188 243 set neighbourhood;
#X text 161 215 set high;
#X text 156 186 set low;
#X text 161 160 fill cells with 0;
#X text 155 133 fill cells with random value;
#X text 236 322 display state of cells;
#X msg 45 82 1;
#X text 73 43 calculate next generation and output;
#X text 74 60 bangs on every cell that is alife;
#X text 78 82 calculate next generation and output;
#X text 78 99 1 if cell is alife \, 0 if dead;
#X text 237 339 in Pd console window;
#X text 152 365 mlife <number of cells> <view_start>;
#X text 199 380 <view_size> <closed>;
#X text 289 405 closed universe if;
#X text 289 419 <closed> = 1;
#X msg 144 268 randseed 4;
#X text 235 268 seed array with random no.;
#X text 235 294 seed array with a number;
#X msg 159 295 seed 1 4;
#X obj 33 366 mlife 8 1 8 0;
#X text 54 15 mlife :: a cellular automata object;
#X connect 8 0 35 0;
#X connect 9 0 35 0;
#X connect 10 0 35 0;
#X connect 11 0 35 0;
#X connect 12 0 35 0;
#X connect 13 0 35 0;
#X connect 14 0 35 0;
#X connect 21 0 35 0;
#X connect 31 0 35 0;
#X connect 34 0 35 0;
#X connect 35 0 0 0;
#X connect 35 1 1 0;
#X connect 35 2 2 0;
#X connect 35 3 3 0;
#X connect 35 4 4 0;
#X connect 35 5 5 0;
#X connect 35 6 6 0;
#X connect 35 7 7 0;
#X restore -204 -378 pd intelligent agents;
#X obj -209 -331 cnv 15 100 60 empty empty empty 20 12 0 14 -233017
-66577 0;
#N canvas 534 22 906 694 neuron_system 0;
#N canvas 351 22 450 300 start 0;
#X obj 309 105 line~;
#X msg 345 87 1 0;
#X obj 285 85 0 1;
#X obj 310 65 t b b b;
#X obj 308 32 inlet;
#X obj 291 155 outlet~;
#X obj 361 155 outlet;
#X connect 0 0 5 0;
#X connect 1 0 0 0;
#X connect 2 0 0 0;
#X connect 3 0 2 0;
#X connect 3 1 1 0;
#X connect 3 2 6 0;
#X connect 4 0 3 0;
#X restore 235 108 pd start;
#X text 325 150 a;
#X text 129 240 b;
#X text 188 466 c;
#X text 406 469 d;
#X text 460 242 e;
#X obj 213 263 s~ ab;
#X obj 253 263 s~ ac;
#X obj 293 263 s~ ad;
#X obj 333 263 s~ ae;
#X obj 27 211 r~ ab;
#X obj 35 355 s~ ba;
#X obj 155 149 r~ ba;
#X obj 67 211 r~ cb;
#X obj 107 211 r~ db;
#X obj 147 211 r~ eb;
#X obj 195 149 r~ ca;
#X obj 235 149 r~ da;
#X obj 275 149 r~ ea;
#X obj 116 453 r~ ac;
#X obj 156 453 r~ bc;
#X obj 196 453 r~ dc;
#X obj 236 453 r~ ec;
#X obj 102 583 s~ ca;
#X obj 142 583 s~ cb;
#X obj 182 583 s~ cd;
#X obj 222 583 s~ ce;
#X obj 316 453 r~ ad;
#X obj 356 453 r~ bd;
#X obj 396 453 r~ cd;
#X obj 436 453 r~ ed;
#X obj 322 583 s~ da;
#X obj 362 583 s~ db;
#X obj 402 583 s~ dc;
#X obj 442 583 s~ de;
#X obj 376 223 r~ ae;
#X obj 416 223 r~ be;
#X obj 456 223 r~ ce;
#X obj 496 223 r~ de;
#X obj 382 353 s~ ea;
#X obj 422 353 s~ eb;
#X obj 462 353 s~ ec;
#X obj 502 353 s~ ed;
#X obj 75 355 s~ bc;
#X obj 115 355 s~ bd;
#X obj 155 355 s~ be;
#X obj 524 273 freeverb~;
#X obj 448 125 random 500;
#X obj 390 126 delay 1;
#X floatatom 452 155 5 0 0 0 - - -;
#X msg 632 257 roomsize 0.9;
#X obj 236 179 neuron~;
#X obj 74 260 neuron~;
#X obj 134 490 neuron~;
#X obj 392 264 neuron~;
#X obj 344 489 neuron~;
#X obj 796 369 *~ 0.4;
#X obj 746 369 *~ 0.4;
#X obj 646 74 bng 15 250 50 0 empty empty empty 17 7 0 10 -262144 -1
-1;
#X text 779 404 out;
#X connect 0 0 51 0;
#X connect 0 1 51 1;
#X connect 10 0 52 0;
#X connect 12 0 51 0;
#X connect 13 0 52 0;
#X connect 14 0 52 0;
#X connect 15 0 52 0;
#X connect 16 0 51 0;
#X connect 17 0 51 0;
#X connect 18 0 51 0;
#X connect 19 0 53 0;
#X connect 20 0 53 0;
#X connect 21 0 53 0;
#X connect 22 0 53 0;
#X connect 27 0 55 0;
#X connect 28 0 55 0;
#X connect 29 0 55 0;
#X connect 30 0 55 0;
#X connect 35 0 54 0;
#X connect 36 0 54 0;
#X connect 37 0 54 0;
#X connect 38 0 54 0;
#X connect 46 0 57 0;
#X connect 46 1 56 0;
#X connect 47 0 48 0;
#X connect 47 0 49 0;
#X connect 48 0 47 0;
#X connect 48 0 0 0;
#X connect 50 0 46 0;
#X connect 51 0 6 0;
#X connect 51 1 52 1;
#X connect 51 2 7 0;
#X connect 51 3 53 1;
#X connect 51 4 8 0;
#X connect 51 5 55 1;
#X connect 51 6 9 0;
#X connect 51 7 54 1;
#X connect 51 8 46 0;
#X connect 51 8 56 0;
#X connect 51 8 57 0;
#X connect 52 0 11 0;
#X connect 52 1 51 1;
#X connect 52 2 43 0;
#X connect 52 3 53 1;
#X connect 52 4 44 0;
#X connect 52 5 55 1;
#X connect 52 6 45 0;
#X connect 52 7 54 1;
#X connect 52 8 57 0;
#X connect 53 0 23 0;
#X connect 53 1 51 1;
#X connect 53 2 24 0;
#X connect 53 3 52 1;
#X connect 53 4 25 0;
#X connect 53 5 55 1;
#X connect 53 6 26 0;
#X connect 53 7 54 1;
#X connect 53 8 57 0;
#X connect 54 0 39 0;
#X connect 54 1 51 1;
#X connect 54 2 40 0;
#X connect 54 3 52 1;
#X connect 54 4 41 0;
#X connect 54 5 53 1;
#X connect 54 6 42 0;
#X connect 54 7 55 1;
#X connect 54 8 56 0;
#X connect 55 0 31 0;
#X connect 55 1 51 1;
#X connect 55 2 32 0;
#X connect 55 3 52 1;
#X connect 55 4 33 0;
#X connect 55 5 53 1;
#X connect 55 6 34 0;
#X connect 55 7 54 1;
#X connect 55 8 56 0;
#X connect 58 0 50 0;
#X connect 58 0 48 0;
#X restore -186 -310 pd neuron_system;
#X obj -210 -264 cnv 15 100 60 empty empty empty 20 12 0 14 -233017
-66577 0;
#N canvas 0 22 450 300 sound_analysis 0;
#X obj 143 157 fft~;
#X restore -193 -241 pd sound_analysis;
#N canvas 152 73 338 266 VUmeter 0;
#X obj 102 45 rms_to_db;
#X obj 102 71 outlet;
#X obj 153 71 outlet;
#X obj 104 127 iem_vu 16 120 empty empty -1 -8 0 8 -66577 -1 1 0;
#X obj 102 17 catch~ speaker4;
#X connect 0 0 1 0;
#X connect 0 0 3 0;
#X connect 0 1 2 0;
#X connect 0 1 3 1;
#X connect 4 0 0 0;
#X coords 0 -1 1 1 40 160 1 100 100;
#X restore 85 -139 pd VUmeter;
#N canvas 152 73 338 266 VUmeter 0;
#X obj 102 45 rms_to_db;
#X obj 102 71 outlet;
#X obj 153 71 outlet;
#X obj 104 127 iem_vu 16 120 empty empty -1 -8 0 8 -66577 -1 1 0;
#X obj 102 17 catch~ speaker2;
#X connect 0 0 1 0;
#X connect 0 0 3 0;
#X connect 0 1 2 0;
#X connect 0 1 3 1;
#X connect 4 0 0 0;
#X coords 0 -1 1 1 40 160 1 100 100;
#X restore 684 -633 pd VUmeter;
#N canvas 152 73 338 266 VUmeter 0;
#X obj 102 45 rms_to_db;
#X obj 102 71 outlet;
#X obj 153 71 outlet;
#X obj 104 127 iem_vu 16 120 empty empty -1 -8 0 8 -66577 -1 1 0;
#X obj 102 17 catch~ speaker4;
#X connect 0 0 1 0;
#X connect 0 0 3 0;
#X connect 0 1 2 0;
#X connect 0 1 3 1;
#X connect 4 0 0 0;
#X coords 0 -1 1 1 40 160 1 100 100;
#X restore 692 -135 pd VUmeter;
#X text 132 -5 4;
#X obj 405 55 import soundhack;
#X connect 54 0 10 0;
