#N canvas 245 35 630 721 10;
#X declare -lib mrpeach;
#X declare -lib iemgui;
#X declare -lib soundhack;
#X declare -lib RTC;
#X obj 20 60 cnv 15 450 650 empty empty empty 20 12 0 14 -228856 -66577
0;
#X text 32 63 1;
#N canvas 84 397 319 322 VUmeter 0;
#X obj 102 17 catch~ speaker1;
#X obj 102 45 rms_to_db;
#X obj 102 71 outlet;
#X obj 153 71 outlet;
#X obj 104 135 iem_vu 16 120 empty empty -1 -8 0 8 -66577 -1 1 0;
#X obj 104 -16 catch~ test1;
#X obj 233 43 rms_to_db;
#X obj 234 -9 catch~ testa;
#X obj 22 7 rms_to_db;
#X obj 22 -14 catch~ s1;
#X obj 4 -50 cnv 15 120 20 empty empty empty 20 12 0 14 -228856 -66577
0;
#X text 8 -49 VU meter;
#X connect 0 0 1 0;
#X connect 1 0 2 0;
#X connect 1 0 4 0;
#X connect 1 1 3 0;
#X connect 1 1 4 1;
#X connect 5 0 1 0;
#X connect 7 0 6 0;
#X connect 7 0 1 0;
#X connect 8 0 4 0;
#X connect 8 1 4 1;
#X connect 9 0 8 0;
#X coords 0 -1 1 1 40 160 2 100 100;
#X restore 20 60 pd VUmeter;
#X text 445 64 2;
#N canvas 551 79 246 328 VUmeter 0;
#X obj 102 45 rms_to_db;
#X obj 102 71 outlet;
#X obj 153 71 outlet;
#X obj 104 127 iem_vu 16 120 empty empty -1 -8 0 8 -66577 -1 1 0;
#X obj 102 17 catch~ speaker2;
#X obj 102 -27 catch~ test2;
#X obj 102 -5 catch~ testb;
#X obj 32 17 rms_to_db;
#X obj 31 -17 catch~ s2;
#X obj 6 -53 cnv 15 120 20 empty empty empty 20 12 0 14 -228856 -66577
0;
#X text 10 -52 VU meter;
#X connect 0 0 1 0;
#X connect 0 0 3 0;
#X connect 0 1 2 0;
#X connect 0 1 3 1;
#X connect 4 0 0 0;
#X connect 5 0 0 0;
#X connect 6 0 0 0;
#X connect 7 0 3 0;
#X connect 7 1 3 1;
#X connect 8 0 7 0;
#X coords 0 -1 1 1 40 160 2 100 100;
#X restore 430 60 pd VUmeter;
#N canvas 152 73 323 316 VUmeter 0;
#X obj 101 52 rms_to_db;
#X obj 101 78 outlet;
#X obj 152 78 outlet;
#X obj 103 134 iem_vu 16 120 empty empty -1 -8 0 8 -66577 -1 1 0;
#X obj 101 24 catch~ speaker4;
#X obj 101 -21 catch~ test4;
#X obj 101 1 catch~ testd;
#X obj 41 34 rms_to_db;
#X obj 40 0 catch~ s4;
#X obj 8 -49 cnv 15 120 20 empty empty empty 20 12 0 14 -228856 -66577
0;
#X text 12 -48 VU meter;
#X connect 0 0 1 0;
#X connect 0 0 3 0;
#X connect 0 1 2 0;
#X connect 0 1 3 1;
#X connect 4 0 0 0;
#X connect 5 0 0 0;
#X connect 6 0 0 0;
#X connect 7 0 3 0;
#X connect 7 1 3 1;
#X connect 8 0 7 0;
#X coords 0 -1 1 1 40 160 2 100 100;
#X restore 20 551 pd VUmeter;
#X text 32 559 4;
#X text 444 554 3;
#N canvas 152 73 289 343 VUmeter 0;
#X obj 102 45 rms_to_db;
#X obj 102 71 outlet;
#X obj 153 71 outlet;
#X obj 104 127 iem_vu 16 120 empty empty -1 -8 0 8 -66577 -1 1 0;
#X obj 102 17 catch~ speaker3;
#X obj 193 -15 catch~ testc;
#X obj 20 47 rms_to_db;
#X obj 19 13 catch~ s3;
#X obj 212 35 rms_to_db;
#X obj 102 -29 catch~ test3;
#X obj 6 -58 cnv 15 120 20 empty empty empty 20 12 0 14 -228856 -66577
0;
#X text 10 -57 VU meter;
#X connect 0 0 1 0;
#X connect 0 0 3 0;
#X connect 0 1 2 0;
#X connect 0 1 3 1;
#X connect 4 0 0 0;
#X connect 5 0 8 0;
#X connect 5 0 0 0;
#X connect 6 0 3 0;
#X connect 6 1 3 1;
#X connect 7 0 6 0;
#X connect 9 0 0 0;
#X coords 0 -1 1 1 40 160 2 100 100;
#X restore 430 551 pd VUmeter;
#N canvas 1613 831 183 141 externals 0;
#X obj 15 29 import mrpeach;
#X obj 15 6 import iemgui;
#X obj 14 53 import soundhack;
#X obj 13 -24 cnv 15 150 20 empty empty empty 20 12 0 14 -228856 -66577
0;
#X text 17 -22 external pd libraries;
#X obj 14 77 import RTC;
#X restore 476 20 pd externals;
#N canvas 109 368 317 325 head 0;
#X obj 20 20 bng 80 250 50 0 empty empty empty 17 7 0 10 -260097 -1
-1;
#X obj 21 113 r head;
#X floatatom 21 291 5 0 0 0 - - -;
#X floatatom 48 249 5 0 0 0 - - -;
#X floatatom 75 204 5 0 0 0 - - -;
#X floatatom 102 162 5 0 0 0 - - -;
#X obj 48 270 s headx;
#X obj 75 226 s heady;
#X obj 102 184 s headz;
#X obj 21 138 unpack f f f f;
#X floatatom 165 292 5 0 0 0 - - -;
#X floatatom 192 250 5 0 0 0 - - -;
#X floatatom 219 205 5 0 0 0 - - -;
#X floatatom 246 163 5 0 0 0 - - -;
#X obj 165 139 unpack f f f f;
#X obj 165 114 r head2;
#X obj 246 185 s headz2;
#X obj 219 227 s heady2;
#X obj 192 271 s headx2;
#X connect 1 0 9 0;
#X connect 3 0 6 0;
#X connect 4 0 7 0;
#X connect 5 0 8 0;
#X connect 9 0 2 0;
#X connect 9 1 3 0;
#X connect 9 2 4 0;
#X connect 9 3 5 0;
#X connect 11 0 18 0;
#X connect 12 0 17 0;
#X connect 13 0 16 0;
#X connect 14 0 10 0;
#X connect 14 1 11 0;
#X connect 14 2 12 0;
#X connect 14 3 13 0;
#X connect 15 0 14 0;
#X coords 0 -1 1 1 80 80 2 20 20;
#X restore 198 92 pd head;
#N canvas 0 22 322 295 neck 0;
#X obj 175 100 unpack f f f f;
#X floatatom 175 253 5 0 0 0 - - -;
#X floatatom 202 211 5 0 0 0 - - -;
#X floatatom 229 166 5 0 0 0 - - -;
#X floatatom 256 124 5 0 0 0 - - -;
#X obj 175 75 r neck2;
#X obj 258 145 s neckz2;
#X obj 229 188 s necky2;
#X obj 202 232 s neckx2;
#X obj 21 99 unpack f f f f;
#X floatatom 21 252 5 0 0 0 - - -;
#X floatatom 48 210 5 0 0 0 - - -;
#X floatatom 75 165 5 0 0 0 - - -;
#X floatatom 102 123 5 0 0 0 - - -;
#X obj 21 74 r neck;
#X obj 48 231 s neckx;
#X obj 75 187 s necky;
#X obj 102 144 s neckz;
#X obj 20 20 tgl 30 0 empty empty empty 17 7 0 10 -260097 -1 -1 0 1
;
#X connect 0 0 1 0;
#X connect 0 1 2 0;
#X connect 0 2 3 0;
#X connect 0 3 4 0;
#X connect 2 0 8 0;
#X connect 3 0 7 0;
#X connect 4 0 6 0;
#X connect 5 0 0 0;
#X connect 9 0 10 0;
#X connect 9 1 11 0;
#X connect 9 2 12 0;
#X connect 9 3 13 0;
#X connect 11 0 15 0;
#X connect 12 0 16 0;
#X connect 13 0 17 0;
#X connect 14 0 9 0;
#X coords 0 -1 1 1 30 30 2 20 20;
#X restore 222 176 pd neck;
#N canvas 0 22 347 280 leftElbow 0;
#X obj 22 90 unpack f f f f;
#X floatatom 22 243 5 0 0 0 - - -;
#X floatatom 49 201 5 0 0 0 - - -;
#X floatatom 76 156 5 0 0 0 - - -;
#X floatatom 103 114 5 0 0 0 - - -;
#X obj 22 65 r l_elbow;
#X obj 49 222 s lelbowx;
#X obj 76 179 s lelbowy;
#X obj 103 135 s lelbowz;
#X obj 181 90 unpack f f f f;
#X floatatom 181 243 5 0 0 0 - - -;
#X floatatom 208 201 5 0 0 0 - - -;
#X floatatom 235 156 5 0 0 0 - - -;
#X floatatom 262 114 5 0 0 0 - - -;
#X obj 181 65 r l_elbow2;
#X obj 262 135 s lelbowz2;
#X obj 235 179 s lelbowy2;
#X obj 208 222 s lelbowx2;
#X obj 20 20 bng 30 250 50 0 empty empty empty 17 7 0 10 -260097 -1
-1;
#X connect 0 0 1 0;
#X connect 0 1 2 0;
#X connect 0 2 3 0;
#X connect 0 3 4 0;
#X connect 2 0 6 0;
#X connect 3 0 7 0;
#X connect 4 0 8 0;
#X connect 5 0 0 0;
#X connect 9 0 10 0;
#X connect 9 1 11 0;
#X connect 9 2 12 0;
#X connect 9 3 13 0;
#X connect 11 0 17 0;
#X connect 12 0 16 0;
#X connect 13 0 15 0;
#X connect 14 0 9 0;
#X coords 0 -1 1 1 30 30 2 20 20;
#X restore 346 317 pd leftElbow;
#N canvas 441 55 401 275 leftShoulder 0;
#X obj 202 88 unpack f f f f;
#X floatatom 202 241 5 0 0 0 - - -;
#X floatatom 229 199 5 0 0 0 - - -;
#X floatatom 256 154 5 0 0 0 - - -;
#X floatatom 283 112 5 0 0 0 - - -;
#X obj 202 63 r l_shoulder2;
#X obj 283 133 s l_shoulderz2;
#X obj 256 176 s l_shouldery2;
#X obj 229 220 s l_shoulderx2;
#X obj 21 88 unpack f f f f;
#X floatatom 21 241 5 0 0 0 - - -;
#X floatatom 48 199 5 0 0 0 - - -;
#X floatatom 75 154 5 0 0 0 - - -;
#X floatatom 102 112 5 0 0 0 - - -;
#X obj 21 63 r l_shoulder;
#X obj 48 220 s l_shoulderx;
#X obj 75 176 s l_shouldery;
#X obj 102 133 s l_shoulderz;
#X obj 20 20 tgl 30 0 empty empty empty 17 7 0 10 -260097 -1 -1 0 1
;
#X connect 0 0 1 0;
#X connect 0 1 2 0;
#X connect 0 2 3 0;
#X connect 0 3 4 0;
#X connect 2 0 8 0;
#X connect 3 0 7 0;
#X connect 4 0 6 0;
#X connect 5 0 0 0;
#X connect 9 0 10 0;
#X connect 9 1 11 0;
#X connect 9 2 12 0;
#X connect 9 3 13 0;
#X connect 11 0 15 0;
#X connect 12 0 16 0;
#X connect 13 0 17 0;
#X connect 14 0 9 0;
#X coords 0 -1 1 1 30 30 2 20 20;
#X restore 107 211 pd leftShoulder;
#N canvas 81 37 403 275 rightShoulder 0;
#X obj 220 91 unpack f f f f;
#X floatatom 220 244 5 0 0 0 - - -;
#X floatatom 247 202 5 0 0 0 - - -;
#X floatatom 274 157 5 0 0 0 - - -;
#X floatatom 301 115 5 0 0 0 - - -;
#X obj 220 66 r r_shoulder;
#X obj 301 136 s r_shoulderz2;
#X obj 275 179 s r_shouldery2;
#X obj 247 223 s r_shoulderx2;
#X obj 20 89 unpack f f f f;
#X floatatom 20 242 5 0 0 0 - - -;
#X floatatom 47 200 5 0 0 0 - - -;
#X floatatom 74 155 5 0 0 0 - - -;
#X floatatom 101 113 5 0 0 0 - - -;
#X obj 20 64 r r_shoulder;
#X obj 101 134 s r_shoulderz;
#X obj 74 177 s r_shouldery;
#X obj 47 221 s r_shoulderx;
#X obj 20 20 tgl 30 0 empty empty empty 17 7 0 10 -260097 -1 -1 0 1
;
#X connect 0 0 1 0;
#X connect 0 1 2 0;
#X connect 0 2 3 0;
#X connect 0 3 4 0;
#X connect 2 0 8 0;
#X connect 3 0 7 0;
#X connect 4 0 6 0;
#X connect 5 0 0 0;
#X connect 9 0 10 0;
#X connect 9 1 11 0;
#X connect 9 2 12 0;
#X connect 9 3 13 0;
#X connect 11 0 17 0;
#X connect 12 0 16 0;
#X connect 13 0 15 0;
#X connect 14 0 9 0;
#X coords 0 -1 1 1 30 30 2 20 20;
#X restore 346 210 pd rightShoulder;
#N canvas 0 22 358 283 rightElbow 0;
#X obj 21 87 unpack f f f f;
#X floatatom 21 240 5 0 0 0 - - -;
#X floatatom 48 198 5 0 0 0 - - -;
#X floatatom 75 153 5 0 0 0 - - -;
#X floatatom 102 111 5 0 0 0 - - -;
#X obj 21 62 r r_elbow;
#X obj 48 219 s relbowx;
#X obj 75 176 s relbowy;
#X obj 102 132 s relbowz;
#X obj 191 85 unpack f f f f;
#X floatatom 191 238 5 0 0 0 - - -;
#X floatatom 218 196 5 0 0 0 - - -;
#X floatatom 245 151 5 0 0 0 - - -;
#X floatatom 272 109 5 0 0 0 - - -;
#X obj 191 60 r r_elbow;
#X obj 274 130 s relbowz2;
#X obj 245 174 s relbowy2;
#X obj 218 217 s relbowx2;
#X obj 20 20 bng 30 250 50 0 empty empty empty 17 7 0 10 -260097 -1
-1;
#X connect 0 0 1 0;
#X connect 0 1 2 0;
#X connect 0 2 3 0;
#X connect 0 3 4 0;
#X connect 2 0 6 0;
#X connect 3 0 7 0;
#X connect 4 0 8 0;
#X connect 5 0 0 0;
#X connect 9 0 10 0;
#X connect 9 1 11 0;
#X connect 9 2 12 0;
#X connect 9 3 13 0;
#X connect 11 0 17 0;
#X connect 12 0 16 0;
#X connect 13 0 15 0;
#X connect 14 0 9 0;
#X coords 0 -1 1 1 30 30 2 20 20;
#X restore 106 318 pd rightElbow;
#N canvas 0 22 349 293 leftHand 0;
#X obj 16 85 unpack f f f f;
#X floatatom 16 238 5 0 0 0 - - -;
#X floatatom 43 196 5 0 0 0 - - -;
#X floatatom 70 151 5 0 0 0 - - -;
#X floatatom 97 109 5 0 0 0 - - -;
#X obj 16 60 r l_hand;
#X obj 97 130 s lhandz;
#X obj 70 174 s lhandy;
#X obj 43 217 s lhandx;
#X obj 168 84 unpack f f f f;
#X floatatom 168 237 5 0 0 0 - - -;
#X floatatom 195 195 5 0 0 0 - - -;
#X floatatom 222 150 5 0 0 0 - - -;
#X floatatom 249 108 5 0 0 0 - - -;
#X obj 168 59 r l_hand2;
#X obj 249 129 s lhandz2;
#X obj 222 173 s lhandy2;
#X obj 194 216 s lhandx2;
#X obj 20 20 tgl 30 0 empty empty empty 17 7 0 10 -260097 -1 -1 0 1
;
#X connect 0 0 1 0;
#X connect 0 1 2 0;
#X connect 0 2 3 0;
#X connect 0 3 4 0;
#X connect 2 0 8 0;
#X connect 3 0 7 0;
#X connect 4 0 6 0;
#X connect 5 0 0 0;
#X connect 9 0 10 0;
#X connect 9 1 11 0;
#X connect 9 2 12 0;
#X connect 9 3 13 0;
#X connect 11 0 17 0;
#X connect 12 0 16 0;
#X connect 13 0 15 0;
#X connect 14 0 9 0;
#X coords 0 -1 1 1 30 30 2 20 20;
#X restore 73 367 pd leftHand;
#N canvas 0 22 349 274 rightHand 0;
#X obj 15 91 unpack f f f f;
#X floatatom 15 244 5 0 0 0 - - -;
#X floatatom 42 202 5 0 0 0 - - -;
#X floatatom 69 157 5 0 0 0 - - -;
#X floatatom 96 115 5 0 0 0 - - -;
#X obj 15 66 r r_hand;
#X obj 42 223 s rhandx;
#X obj 69 180 s rhandy;
#X obj 96 136 s rhandz;
#X obj 166 91 unpack f f f f;
#X floatatom 166 244 5 0 0 0 - - -;
#X floatatom 193 202 5 0 0 0 - - -;
#X floatatom 220 157 5 0 0 0 - - -;
#X floatatom 247 115 5 0 0 0 - - -;
#X obj 166 66 r r_hand;
#X obj 247 136 s rhandz2;
#X obj 220 180 s rhandy2;
#X obj 193 223 s rhandx2;
#X obj 20 20 tgl 30 0 empty empty empty 17 7 0 10 -260097 -1 -1 0 1
;
#X connect 0 0 1 0;
#X connect 0 1 2 0;
#X connect 0 2 3 0;
#X connect 0 3 4 0;
#X connect 2 0 6 0;
#X connect 3 0 7 0;
#X connect 4 0 8 0;
#X connect 5 0 0 0;
#X connect 9 0 10 0;
#X connect 9 1 11 0;
#X connect 9 2 12 0;
#X connect 9 3 13 0;
#X connect 11 0 17 0;
#X connect 12 0 16 0;
#X connect 13 0 15 0;
#X connect 14 0 9 0;
#X coords 0 -1 1 1 30 30 2 20 20;
#X restore 380 365 pd rightHand;
#N canvas 0 22 399 226 torso 0;
#X obj 89 41 unpack f f f f;
#X floatatom 89 194 5 0 0 0 - - -;
#X floatatom 116 152 5 0 0 0 - - -;
#X floatatom 143 107 5 0 0 0 - - -;
#X floatatom 170 65 5 0 0 0 - - -;
#X obj 89 16 r torso;
#X obj 116 173 s torsox;
#X obj 143 129 s torsoy;
#X obj 170 86 s torsoz;
#X obj 236 46 unpack f f f f;
#X floatatom 236 199 5 0 0 0 - - -;
#X floatatom 263 157 5 0 0 0 - - -;
#X floatatom 290 112 5 0 0 0 - - -;
#X floatatom 317 70 5 0 0 0 - - -;
#X obj 237 21 r torso2;
#X obj 317 91 s torsoz2;
#X obj 291 134 s torsoy2;
#X obj 263 178 s torsox2;
#X obj 20 20 cnv 15 60 180 empty empty empty 20 12 0 14 -260097 -66577
0;
#X connect 0 0 1 0;
#X connect 0 1 2 0;
#X connect 0 2 3 0;
#X connect 0 3 4 0;
#X connect 2 0 6 0;
#X connect 3 0 7 0;
#X connect 4 0 8 0;
#X connect 5 0 0 0;
#X connect 9 0 10 0;
#X connect 9 1 11 0;
#X connect 9 2 12 0;
#X connect 9 3 13 0;
#X connect 11 0 17 0;
#X connect 12 0 16 0;
#X connect 13 0 15 0;
#X connect 14 0 9 0;
#X coords 0 -1 1 1 60 180 2 20 20;
#X restore 206 245 pd torso;
#N canvas 0 22 337 283 leftHip 0;
#X obj 19 87 unpack f f f f;
#X floatatom 19 240 5 0 0 0 - - -;
#X floatatom 46 198 5 0 0 0 - - -;
#X floatatom 73 153 5 0 0 0 - - -;
#X floatatom 100 111 5 0 0 0 - - -;
#X obj 19 62 r l_hip;
#X obj 100 132 s lhipz;
#X obj 73 176 s lhipy;
#X obj 46 219 s lhipx;
#X obj 170 89 unpack f f f f;
#X floatatom 170 242 5 0 0 0 - - -;
#X floatatom 197 200 5 0 0 0 - - -;
#X floatatom 224 155 5 0 0 0 - - -;
#X floatatom 251 113 5 0 0 0 - - -;
#X obj 251 134 s lhipz2;
#X obj 224 178 s lhipy2;
#X obj 197 221 s lhipx2;
#X obj 170 64 r l_hip2;
#X obj 20 20 tgl 30 0 empty empty empty 17 7 0 10 -260097 -1 -1 0 1
;
#X connect 0 0 1 0;
#X connect 0 1 2 0;
#X connect 0 2 3 0;
#X connect 0 3 4 0;
#X connect 2 0 8 0;
#X connect 3 0 7 0;
#X connect 4 0 6 0;
#X connect 5 0 0 0;
#X connect 9 0 10 0;
#X connect 9 1 11 0;
#X connect 9 2 12 0;
#X connect 9 3 13 0;
#X connect 11 0 16 0;
#X connect 12 0 15 0;
#X connect 13 0 14 0;
#X connect 17 0 9 0;
#X coords 0 -1 1 1 30 30 2 20 20;
#X restore 133 431 pd leftHip;
#N canvas 0 22 323 285 rightHip 0;
#X obj 17 94 unpack f f f f;
#X floatatom 17 247 5 0 0 0 - - -;
#X floatatom 44 205 5 0 0 0 - - -;
#X floatatom 71 160 5 0 0 0 - - -;
#X floatatom 98 118 5 0 0 0 - - -;
#X obj 17 69 r r_hip;
#X obj 98 139 s rhipz;
#X obj 71 183 s rhipy;
#X obj 44 226 s rhipx;
#X obj 170 96 unpack f f f f;
#X floatatom 170 249 5 0 0 0 - - -;
#X floatatom 197 207 5 0 0 0 - - -;
#X floatatom 224 162 5 0 0 0 - - -;
#X floatatom 251 120 5 0 0 0 - - -;
#X obj 251 141 s rhipz2;
#X obj 225 184 s rhipy2;
#X obj 197 228 s rhipx2;
#X obj 170 71 r r_hip2;
#X obj 20 20 tgl 30 0 empty empty empty 17 7 0 10 -260097 -1 -1 0 1
;
#X connect 0 0 1 0;
#X connect 0 1 2 0;
#X connect 0 2 3 0;
#X connect 0 3 4 0;
#X connect 2 0 8 0;
#X connect 3 0 7 0;
#X connect 4 0 6 0;
#X connect 5 0 0 0;
#X connect 9 0 10 0;
#X connect 9 1 11 0;
#X connect 9 2 12 0;
#X connect 9 3 13 0;
#X connect 11 0 16 0;
#X connect 12 0 15 0;
#X connect 13 0 14 0;
#X connect 17 0 9 0;
#X coords 0 -1 1 1 30 30 2 20 20;
#X restore 320 431 pd rightHip;
#N canvas 0 22 338 278 leftKnee 0;
#X obj 183 95 unpack f f f f;
#X floatatom 183 248 5 0 0 0 - - -;
#X floatatom 210 206 5 0 0 0 - - -;
#X floatatom 237 161 5 0 0 0 - - -;
#X floatatom 264 119 5 0 0 0 - - -;
#X obj 264 140 s lkneez2;
#X obj 237 184 s lkneey2;
#X obj 210 227 s lkneex2;
#X obj 183 70 r l_knee2;
#X obj 19 90 unpack f f f f;
#X floatatom 19 243 5 0 0 0 - - -;
#X floatatom 46 201 5 0 0 0 - - -;
#X floatatom 73 156 5 0 0 0 - - -;
#X floatatom 100 114 5 0 0 0 - - -;
#X obj 19 65 r l_knee;
#X obj 46 222 s lkneex;
#X obj 73 179 s lkneey;
#X obj 100 135 s lkneez;
#X obj 20 20 bng 30 250 50 0 empty empty empty 17 7 0 10 -260097 -1
-1;
#X connect 0 0 1 0;
#X connect 0 1 2 0;
#X connect 0 2 3 0;
#X connect 0 3 4 0;
#X connect 2 0 7 0;
#X connect 3 0 6 0;
#X connect 4 0 5 0;
#X connect 8 0 0 0;
#X connect 9 0 10 0;
#X connect 9 1 11 0;
#X connect 9 2 12 0;
#X connect 9 3 13 0;
#X connect 11 0 15 0;
#X connect 12 0 16 0;
#X connect 13 0 17 0;
#X connect 14 0 9 0;
#X coords 0 -1 1 1 30 30 2 20 20;
#X restore 133 538 pd leftKnee;
#N canvas 0 22 355 279 rightKnee 0;
#X obj 20 87 unpack f f f f;
#X floatatom 20 240 5 0 0 0 - - -;
#X floatatom 47 198 5 0 0 0 - - -;
#X floatatom 74 153 5 0 0 0 - - -;
#X floatatom 101 111 5 0 0 0 - - -;
#X obj 20 62 r r_knee;
#X obj 101 132 s rkneez;
#X obj 74 176 s rkneey;
#X obj 47 219 s rkneex;
#X obj 192 92 unpack f f f f;
#X floatatom 192 245 5 0 0 0 - - -;
#X floatatom 219 203 5 0 0 0 - - -;
#X floatatom 246 158 5 0 0 0 - - -;
#X floatatom 273 116 5 0 0 0 - - -;
#X obj 273 137 s rkneez2;
#X obj 246 181 s rkneey2;
#X obj 219 224 s rkneex2;
#X obj 192 67 r r_knee2;
#X obj 20 20 bng 30 250 50 0 empty empty empty 17 7 0 10 -260097 -1
-1;
#X connect 0 0 1 0;
#X connect 0 1 2 0;
#X connect 0 2 3 0;
#X connect 0 3 4 0;
#X connect 2 0 8 0;
#X connect 3 0 7 0;
#X connect 4 0 6 0;
#X connect 5 0 0 0;
#X connect 9 0 10 0;
#X connect 9 1 11 0;
#X connect 9 2 12 0;
#X connect 9 3 13 0;
#X connect 11 0 16 0;
#X connect 12 0 15 0;
#X connect 13 0 14 0;
#X connect 17 0 9 0;
#X coords 0 -1 1 1 30 30 2 20 20;
#X restore 320 537 pd rightKnee;
#N canvas 0 22 345 278 leftFoot 0;
#X obj 191 89 unpack f f f f;
#X floatatom 191 242 5 0 0 0 - - -;
#X floatatom 218 200 5 0 0 0 - - -;
#X floatatom 245 155 5 0 0 0 - - -;
#X floatatom 272 113 5 0 0 0 - - -;
#X obj 272 134 s lfootz2;
#X obj 245 178 s lfooty2;
#X obj 218 221 s lfootx2;
#X obj 21 90 unpack f f f f;
#X floatatom 21 243 5 0 0 0 - - -;
#X floatatom 48 201 5 0 0 0 - - -;
#X floatatom 75 156 5 0 0 0 - - -;
#X floatatom 102 114 5 0 0 0 - - -;
#X obj 21 65 r l_foot;
#X obj 48 222 s lfootx;
#X obj 75 179 s lfooty;
#X obj 102 135 s lfootz;
#X obj 191 64 r l_foot2;
#X obj 20 20 cnv 15 60 30 empty empty empty 20 12 0 14 -260097 -66577
0;
#X connect 0 0 1 0;
#X connect 0 1 2 0;
#X connect 0 2 3 0;
#X connect 0 3 4 0;
#X connect 2 0 7 0;
#X connect 3 0 6 0;
#X connect 4 0 5 0;
#X connect 8 0 9 0;
#X connect 8 1 10 0;
#X connect 8 2 11 0;
#X connect 8 3 12 0;
#X connect 10 0 14 0;
#X connect 11 0 15 0;
#X connect 12 0 16 0;
#X connect 13 0 8 0;
#X connect 17 0 0 0;
#X coords 0 -1 1 1 60 30 2 20 20;
#X restore 105 645 pd leftFoot;
#N canvas 0 22 339 284 rightFoot 0;
#X obj 179 99 unpack f f f f;
#X floatatom 179 252 5 0 0 0 - - -;
#X floatatom 206 210 5 0 0 0 - - -;
#X floatatom 233 165 5 0 0 0 - - -;
#X floatatom 260 123 5 0 0 0 - - -;
#X obj 260 144 s rfootz2;
#X obj 233 188 s rfooty2;
#X obj 206 231 s rfootx2;
#X obj 21 90 unpack f f f f;
#X floatatom 21 243 5 0 0 0 - - -;
#X floatatom 48 201 5 0 0 0 - - -;
#X floatatom 75 156 5 0 0 0 - - -;
#X floatatom 102 114 5 0 0 0 - - -;
#X obj 21 65 r r_foot;
#X obj 102 135 s rfootz;
#X obj 75 179 s rfooty;
#X obj 48 222 s rfootx;
#X obj 179 74 r r_foot2;
#X obj 20 20 cnv 15 60 30 empty empty empty 20 12 0 14 -260097 -66577
0;
#X connect 0 0 1 0;
#X connect 0 1 2 0;
#X connect 0 2 3 0;
#X connect 0 3 4 0;
#X connect 2 0 7 0;
#X connect 3 0 6 0;
#X connect 4 0 5 0;
#X connect 8 0 9 0;
#X connect 8 1 10 0;
#X connect 8 2 11 0;
#X connect 8 3 12 0;
#X connect 10 0 16 0;
#X connect 11 0 15 0;
#X connect 12 0 14 0;
#X connect 13 0 8 0;
#X connect 17 0 0 0;
#X coords 0 -1 1 1 60 30 2 20 20;
#X restore 320 643 pd rightFoot;
#X obj 141 210 cnv 15 200 30 empty empty empty 20 12 0 14 -232208 -66577
0;
#X obj 106 244 cnv 15 30 70 empty empty empty 20 12 0 14 -232208 -66577
0;
#X obj 346 244 cnv 15 30 70 empty empty empty 20 12 0 14 -232208 -66577
0;
#X obj 106 351 cnv 15 30 45 empty empty empty 20 12 0 14 -232208 -66577
0;
#X obj 347 350 cnv 15 30 45 empty empty empty 20 12 0 14 -232208 -66577
0;
#X obj 166 431 cnv 15 150 30 empty empty empty 20 12 0 14 -232208 -66577
0;
#X obj 133 464 cnv 15 30 70 empty empty empty 20 12 0 14 -232208 -66577
0;
#X obj 320 464 cnv 15 30 70 empty empty empty 20 12 0 14 -232208 -66577
0;
#X obj 133 571 cnv 15 30 70 empty empty empty 20 12 0 14 -232208 -66577
0;
#X obj 320 570 cnv 15 30 70 empty empty empty 20 12 0 14 -232208 -66577
0;
#X obj 477 45 loadbang;
#X msg 477 68 \; pd dsp 1 start bang;
#X obj 20 20 cnv 15 450 40 empty empty empty 20 12 1 14 -191407 -66577
0;
#X text 145 30 Poetry in Form of Movement 2012;
#X obj 28 32 bng 25 250 50 0 empty empty Main 0 -5 0 10 -128992 -1
-1;
#X obj 435 31 bng 25 250 50 0 empty empty Test 0 -5 0 10 -128992 -1
-1;
#X connect 35 0 36 0;
#X coords 0 1 100 -1 450 690 2 20 20;
