#N canvas 0 22 450 300 10;
#N canvas 95 261 624 721 normalize 0;
#X obj 281 -121 *~ 2;
#X obj 281 -98 -~ 1;
#X text 316 -120 normalization;
#X text 313 -98 remove DC offset;
#X obj 280 -49 expr~ ($v1 > 0.5)*2 -1;
#N canvas 132 46 450 300 normalize 0;
#N canvas 552 62 429 398 reverse 0;
#X obj 83 185 line~;
#X msg 83 159 \$1 20;
#X obj 83 214 *~;
#X obj 83 106 autoscale;
#X obj 83 133 reverse;
#X floatatom 136 133 5 0 0 0 - - -;
#X obj 157 83 loadbang;
#X obj 139 84 bng 15 250 50 0 empty empty empty 17 7 0 10 -262144 -1
-1;
#X obj 83 83 r rhandy;
#X obj 83 237 outlet~;
#X connect 0 0 2 1;
#X connect 0 0 2 0;
#X connect 1 0 0 0;
#X connect 2 0 9 0;
#X connect 3 0 4 0;
#X connect 4 0 1 0;
#X connect 4 0 5 0;
#X connect 6 0 7 0;
#X connect 7 0 3 3;
#X connect 8 0 3 0;
#X restore 60 76 pd reverse;
#X obj 86 98 r headx;
#X obj 86 157 s volume01;
#X obj 35 127 normalize;
#X obj 35 52 inlet~;
#X obj 35 157 outlet~;
#X connect 0 0 3 1;
#X connect 1 0 3 2;
#X connect 3 0 5 0;
#X connect 3 1 2 0;
#X connect 4 0 3 0;
#X restore -315 -97 pd normalize;
#X obj -314 -34 throw~ samp_normalize_1;
#X obj -314 -17 throw~ samp_normalize_2;
#X obj -314 0 throw~ samp_normalize_3;
#X obj -314 17 throw~ samp_normalize_4;
#X obj -323 -175 cnv 15 170 20 empty empty empty 20 12 0 14 -228856
-66577 0;
#X text -316 -174 normalization - DC offset;
#X connect 0 0 1 0;
#X connect 5 0 6 0;
#X connect 5 0 7 0;
#X connect 5 0 8 0;
#X connect 5 0 9 0;
#X restore 405 -174 pd normalize;
#N canvas 189 34 1108 984 output 0;
#X obj 121 47 dac~ 1 2 3 4;
#X text 12 12 right1 left1;
#X text 118 12 right 2 left 2;
#X text 119 25 right 3 left 3;
#X text 248 14 right 4 left 4;
#X obj -70 109 catch~ samp_normalize_1;
#X obj 83 110 catch~ samp_normalize_2;
#X obj 235 111 catch~ samp_normalize_3;
#X obj 384 112 catch~ samp_normalize_4;
#X obj 102 144 r headz;
#X obj 231 236 ramp;
#X obj -72 248 ramp;
#X obj 359 250 ramp;
#X obj 81 249 ramp;
#X obj 306 161 reverse;
#X obj 88 447 stereoPan;
#X obj 167 447 stereoPan;
#X obj 110 405 r heady;
#X obj 192 407 r heady;
#X obj -98 -40 cnv 15 120 20 empty empty empty 20 12 0 14 -228856 -66577
0;
#X text -91 -39 output;
#X floatatom 165 305 5 0 0 0 - - -;
#X floatatom 139 340 5 0 0 0 - - -;
#X obj 287 655 stereoPan;
#X obj 367 653 stereoPan;
#X obj 696 467 ramp;
#X obj 451 474 ramp;
#X obj 845 465 ramp;
#X obj 544 467 ramp;
#X obj 645 413 reverse;
#X floatatom 645 371 5 0 0 0 - - -;
#X text 691 365 1-4 2-3;
#X text 485 78 1-2 4-3;
#X obj 896 701 hsl 128 15 0 127 0 0 empty empty empty -2 -8 0 10 -262144
-1 -1 0 1;
#X floatatom 315 221 5 0 0 0 - - -;
#X floatatom 870 575 5 0 0 0 - - -;
#X floatatom 764 578 5 0 0 0 - - -;
#X floatatom 832 514 5 0 0 0 - - -;
#X obj 831 543 reverse;
#X text 889 513 1-2 4-3;
#X floatatom 110 620 5 0 0 0 - - -;
#X floatatom 4 623 5 0 0 0 - - -;
#X floatatom 72 559 5 0 0 0 - - -;
#X obj 71 588 reverse;
#X text 122 565 1-3 2-4;
#X obj -57 653 stereoPan;
#X obj 23 651 stereoPan;
#X floatatom 310 601 5 0 0 0 - - -;
#X floatatom 383 602 5 0 0 0 - - -;
#X floatatom 467 403 5 0 0 0 - - -;
#X floatatom 562 401 5 0 0 0 - - -;
#X floatatom 719 407 5 0 0 0 - - -;
#X floatatom 859 408 5 0 0 0 - - -;
#X floatatom 552 296 5 0 0 0 - - -;
#X floatatom 663 298 5 0 0 0 - - -;
#X floatatom 780 299 5 0 0 0 - - -;
#X obj 705 705 hsl 128 15 0 127 0 0 empty empty empty -2 -8 0 10 -262144
-1 -1 0 1;
#X obj 461 705 hsl 128 15 0 127 0 0 empty empty empty -2 -8 0 10 -262144
-1 -1 0 1;
#X obj 290 698 hsl 128 15 0 127 0 0 empty empty empty -2 -8 0 10 -262144
-1 -1 0 1;
#X floatatom 574 540 5 0 0 0 - - -;
#X obj 599 592 * -1;
#X obj 276 734 *~;
#X obj 486 736 *~;
#X obj 720 736 *~;
#X obj 908 729 *~;
#X obj 215 772 *~;
#X obj 484 797 *~;
#X obj 700 796 *~;
#X obj 877 792 *~;
#X floatatom 342 529 5 0 0 0 - - -;
#X floatatom 297 778 5 0 0 0 - - -;
#X floatatom 547 796 5 0 0 0 - - -;
#X floatatom 754 797 5 0 0 0 - - -;
#X floatatom 937 795 5 0 0 0 - - -;
#X floatatom 268 921 5 0 0 0 - - -;
#X floatatom 834 927 5 0 0 0 - - -;
#X text 315 919 x;
#X text 881 925 z;
#X obj 297 861 + 1;
#X obj 212 898 - 1;
#X obj 795 894 - 1;
#X obj 883 895 + 1;
#X obj 976 166 iem_atan2;
#X obj 1088 617 dac~ 1 2 3 4;
#X obj 1148 328 hsl 100 15 0 99 0 0 empty empty empty -2 -8 0 10 -262144
-1 -1 0 1;
#X floatatom 1168 349 5 0 0 0 - - -;
#X obj 1348 293 hsl 100 15 0 99 0 0 empty empty empty -2 -8 0 10 -262144
-1 -1 0 1;
#X floatatom 1362 329 5 0 0 0 - - -;
#X obj 1002 356 4ch-pan;
#X obj 1259 346 4ch-pan;
#X obj 1026 233 osc~ 100;
#X msg 1077 204 50 70 80 100 120 150;
#X obj 1076 175 metro 100;
#X obj 1075 151 tgl 15 0 empty empty empty 17 7 0 10 -262144 -1 -1
0 1;
#X obj 1091 541 +~;
#X obj 1132 539 +~;
#X obj 1177 540 +~;
#X obj 1219 540 +~;
#X obj 1065 714 pan~;
#X floatatom 1102 713 4 0 0 0 - - -;
#X floatatom 1407 457 0 0 0 0 - - -;
#N canvas 184 223 495 266 output 0;
#X obj 338 160 t b;
#X obj 338 110 f;
#X obj 338 60 inlet;
#X text 344 29 mute;
#X obj 338 185 f;
#X msg 425 178 0;
#X msg 338 85 bang;
#X obj 338 135 moses 1;
#X obj 425 153 t b f;
#X obj 397 117 moses 1;
#X obj 83 148 dbtorms;
#X obj 397 92 r master-lvl;
#X obj 83 42 r master-lvl;
#X obj 338 210 s master-lvl;
#X obj -15 176 inlet~;
#X obj 199 41 inlet;
#X text 199 18 level;
#X obj 199 100 s master-lvl;
#X msg 96 65 set \$1;
#X obj 96 89 outlet;
#X msg 214 64 \; pd dsp 1;
#X obj 83 194 line~;
#X obj -15 207 *~;
#X obj -15 236 dac~;
#X obj 83 171 pack 0 50;
#X text -17 153 audio;
#X text 93 110 show level;
#X obj 31 182 inlet~;
#X obj 31 218 *~;
#X connect 0 0 4 0;
#X connect 1 0 7 0;
#X connect 2 0 6 0;
#X connect 4 0 13 0;
#X connect 5 0 13 0;
#X connect 6 0 1 0;
#X connect 7 0 0 0;
#X connect 7 1 8 0;
#X connect 8 0 5 0;
#X connect 9 1 4 1;
#X connect 10 0 24 0;
#X connect 11 0 1 1;
#X connect 11 0 9 0;
#X connect 12 0 10 0;
#X connect 12 0 18 0;
#X connect 14 0 22 0;
#X connect 15 0 17 0;
#X connect 15 0 20 0;
#X connect 18 0 19 0;
#X connect 21 0 22 1;
#X connect 21 0 28 1;
#X connect 22 0 23 0;
#X connect 24 0 21 0;
#X connect 27 0 28 0;
#X connect 28 0 23 1;
#X restore 1378 485 pd output;
#X msg 1436 457 MUTE;
#X text 1470 456 <-- output amplitude;
#X text 1210 613 angle in degrees range -45 to 45;
#X obj 1267 738 pan~;
#X floatatom 1302 739 5 0 0 0 - - -;
#X floatatom 1329 647 5 0 0 0 - - -;
#X obj 1315 899 -~;
#X floatatom 1234 653 5 0 0 0 - - -;
#X obj 1412 720 pan~;
#X floatatom 1449 719 4 0 0 0 - - -;
#X obj 1507 719 pan~;
#X floatatom 1544 718 4 0 0 0 - - -;
#X obj 1407 686 -;
#X obj 1506 687 -;
#X floatatom 958 94 5 0 0 0 - - -;
#X floatatom 1029 94 5 0 0 0 - - -;
#X floatatom 979 202 5 0 0 0 - - -;
#X obj 1178 875 dc~ 1 2 3 4;
#X obj 286 208 ramp;
#X obj 418 178 ramp;
#X obj 165 162 reverse;
#X obj 678 57 * -1;
#X obj 678 80 + 1;
#X obj 696 108 *~;
#X obj 663 122 *~;
#X floatatom 677 27 5 0 0 0 - - -;
#X obj 771 51 * -1;
#X obj 771 74 + 1;
#X obj 789 102 *~;
#X obj 756 116 *~;
#X floatatom 770 21 5 0 0 0 - - -;
#X obj 237 298 +~;
#X obj 143 526 dc~ 1 2 3 4;
#X obj 414 310 dac~ 1 2 3 4;
#X obj -74 188 ramp;
#X obj 79 189 ramp;
#X floatatom 312 47 5 0 0 0 - - -;
#X obj -65 63 ctch~ testa1;
#X obj 83 82 ctch~ testa2;
#X obj 216 67 ctch~ testa3;
#X obj 384 84 ctch~ testa4;
#X connect 7 0 120 0;
#X connect 8 0 121 0;
#X connect 9 0 11 1;
#X connect 10 0 16 2;
#X connect 10 0 25 0;
#X connect 10 0 24 2;
#X connect 10 0 67 0;
#X connect 10 0 133 1;
#X connect 10 0 134 2;
#X connect 11 0 26 0;
#X connect 11 0 15 0;
#X connect 11 0 23 0;
#X connect 11 0 65 0;
#X connect 11 0 134 0;
#X connect 12 0 27 0;
#X connect 12 0 15 2;
#X connect 12 0 64 0;
#X connect 12 0 24 0;
#X connect 12 0 68 0;
#X connect 12 0 134 3;
#X connect 13 0 28 0;
#X connect 13 0 16 0;
#X connect 13 0 62 0;
#X connect 13 0 23 2;
#X connect 13 0 66 0;
#X connect 13 0 133 0;
#X connect 13 0 134 1;
#X connect 14 0 34 0;
#X connect 14 0 120 1;
#X connect 14 0 121 1;
#X connect 17 0 15 1;
#X connect 18 0 16 1;
#X connect 21 0 11 1;
#X connect 21 0 122 0;
#X connect 21 0 12 1;
#X connect 22 0 15 1;
#X connect 22 0 16 1;
#X connect 30 0 29 0;
#X connect 33 0 64 1;
#X connect 33 0 68 1;
#X connect 37 0 38 0;
#X connect 38 0 35 0;
#X connect 38 0 36 0;
#X connect 40 0 46 1;
#X connect 41 0 45 1;
#X connect 42 0 43 0;
#X connect 42 0 40 0;
#X connect 43 0 41 0;
#X connect 47 0 23 1;
#X connect 48 0 24 1;
#X connect 49 0 26 1;
#X connect 50 0 28 1;
#X connect 51 0 25 1;
#X connect 52 0 27 1;
#X connect 53 0 49 0;
#X connect 53 0 50 0;
#X connect 54 0 51 0;
#X connect 54 0 52 0;
#X connect 56 0 63 1;
#X connect 56 0 67 1;
#X connect 57 0 62 1;
#X connect 57 0 66 1;
#X connect 58 0 61 1;
#X connect 58 0 65 1;
#X connect 59 0 60 0;
#X connect 69 0 47 0;
#X connect 69 0 48 0;
#X connect 70 0 58 0;
#X connect 71 0 57 0;
#X connect 72 0 56 0;
#X connect 73 0 33 0;
#X connect 74 0 79 0;
#X connect 74 0 78 0;
#X connect 75 0 80 0;
#X connect 75 0 81 0;
#X connect 78 0 58 0;
#X connect 80 0 58 0;
#X connect 82 0 118 0;
#X connect 84 0 85 0;
#X connect 84 0 88 1;
#X connect 86 0 87 0;
#X connect 86 0 89 1;
#X connect 88 0 94 0;
#X connect 88 1 95 0;
#X connect 88 2 96 0;
#X connect 88 3 97 0;
#X connect 89 0 94 1;
#X connect 89 1 95 1;
#X connect 89 2 96 1;
#X connect 89 3 97 1;
#X connect 90 0 88 0;
#X connect 91 0 90 1;
#X connect 92 0 91 0;
#X connect 93 0 92 0;
#X connect 98 0 119 0;
#X connect 98 0 119 3;
#X connect 99 0 98 1;
#X connect 100 0 101 2;
#X connect 101 0 100 0;
#X connect 102 0 101 3;
#X connect 105 1 119 2;
#X connect 105 1 119 1;
#X connect 106 0 105 1;
#X connect 107 0 106 0;
#X connect 107 0 114 1;
#X connect 109 0 99 0;
#X connect 109 0 114 0;
#X connect 110 0 119 1;
#X connect 110 0 119 2;
#X connect 110 1 119 0;
#X connect 110 1 119 3;
#X connect 111 0 110 1;
#X connect 113 0 112 1;
#X connect 114 0 111 0;
#X connect 116 0 82 0;
#X connect 117 0 82 1;
#X connect 120 0 135 2;
#X connect 121 0 135 3;
#X connect 122 0 13 1;
#X connect 122 0 10 1;
#X connect 123 0 124 0;
#X connect 124 0 126 1;
#X connect 125 0 12 0;
#X connect 126 0 11 0;
#X connect 127 0 123 0;
#X connect 127 0 125 1;
#X connect 128 0 129 0;
#X connect 129 0 131 1;
#X connect 130 0 10 0;
#X connect 131 0 13 0;
#X connect 132 0 128 0;
#X connect 132 0 130 1;
#X connect 136 0 135 0;
#X connect 137 0 135 1;
#X connect 138 0 14 0;
#X connect 138 0 136 1;
#X connect 138 0 137 1;
#X connect 139 0 98 0;
#X connect 139 0 126 0;
#X connect 139 0 125 0;
#X connect 139 0 136 0;
#X connect 140 0 131 0;
#X connect 140 0 130 0;
#X connect 140 0 137 0;
#X connect 141 0 105 0;
#X connect 141 0 120 0;
#X connect 142 0 110 0;
#X connect 142 0 121 0;
#X restore 400 -124 pd output;
#N canvas 596 240 842 778 output2 0;
#X obj 270 -238 catch~ procII;
#X obj 397 -230 catch~ procIII;
#X obj 12 -245 catch~ procI;
#X obj 620 -58 throw~ speaker1;
#X obj 734 -60 throw~ speaker2;
#X obj 859 -62 throw~ speaker3;
#X obj 976 -61 throw~ speaker4;
#X obj 755 51 throw~ s1;
#X obj 712 3 throw~ s2;
#X obj 912 58 throw~ s3;
#X obj 852 -16 throw~ s4;
#X obj 12 -200 *~;
#X obj 270 -194 *~;
#X obj 399 -192 *~;
#X obj 465 -110 catch~ testa1;
#X obj 139 -239 catch~ testa2;
#X obj 547 -207 catch~ testa3;
#X obj 715 -190 catch~ testa4;
#X floatatom 27 -216 5 0 0 0 - - -;
#X floatatom 285 -209 5 0 0 0 - - -;
#X obj 126 -146 reverse;
#X floatatom 415 -207 5 0 0 0 - - -;
#X obj 2 -122 ramp;
#X obj 35 -123 ramp;
#X obj 69 -123 ramp;
#X obj 105 -123 ramp;
#X floatatom 126 -162 5 0 0 0 - - -;
#X obj 290 -168 hsl 128 15 0 0.5 0 0 empty empty empty -2 -8 0 10 -262144
-1 -1 0 1;
#X obj 440 -169 hsl 128 15 0 0.5 0 0 empty empty empty -2 -8 0 10 -262144
-1 -1 0 1;
#X obj 52 -186 hsl 128 15 0 0.5 0 0 empty empty empty -2 -8 0 10 -262144
-1 -1 0 1;
#X obj 329 -75 *~;
#X floatatom 345 -90 5 0 0 0 - - -;
#X obj 327 -113 catch~ procIV;
#X obj 379 527 *~;
#X obj 378 617 throw~ procI;
#X obj 304 432 throw~ procII;
#X obj 460 437 throw~ procIII;
#X obj 304 377 *~ 2;
#X obj 304 400 -~ 1;
#X obj 460 362 *~ 2;
#X obj 460 385 -~ 1;
#X obj 379 556 *~ 2;
#X obj 379 579 -~ 1;
#X obj 573 358 *~ 2;
#X obj 573 381 -~ 1;
#X obj 573 433 throw~ procIV;
#X obj 558 214 XYspace;
#X connect 0 0 12 0;
#X connect 1 0 13 0;
#X connect 2 0 11 0;
#X connect 18 0 11 1;
#X connect 19 0 12 1;
#X connect 20 0 25 1;
#X connect 20 0 24 1;
#X connect 21 0 13 1;
#X connect 26 0 20 0;
#X connect 26 0 23 1;
#X connect 26 0 22 1;
#X connect 27 0 19 0;
#X connect 28 0 21 0;
#X connect 29 0 18 0;
#X connect 31 0 30 1;
#X connect 32 0 30 0;
#X connect 33 0 41 0;
#X connect 37 0 38 0;
#X connect 38 0 35 0;
#X connect 39 0 40 0;
#X connect 40 0 36 0;
#X connect 41 0 42 0;
#X connect 42 0 34 0;
#X connect 43 0 44 0;
#X connect 44 0 45 0;
#X restore 399 -105 pd output2;
#N canvas 609 67 1143 1013 output3 0;
#X obj -75 20 catch~ samp1a;
#X obj -75 37 catch~ samp2a;
#X obj -100 324 catch~ samp3a;
#X obj -83 450 catch~ samp2b;
#X obj 25 456 catch~ samp3b;
#X obj -60 60 catch~ samp4b;
#X obj -75 88 *~;
#X obj -132 206 -~ 1;
#X obj -25 176 hsl 128 15 0 0.5 0 0 empty empty empty -2 -8 0 10 -262144
-1 -1 0 1;
#X obj -28 158 r headz;
#X obj -28 192 s volume01;
#X obj -76 358 *~ 2;
#X obj -76 379 -~ 1;
#X obj -76 481 *~ 2;
#X obj -76 505 -~ 1;
#X obj 25 481 *~ 2;
#X obj 25 506 -~ 1;
#X obj -115 410 throw~ 3a1;
#X obj -76 425 throw~ 3a2;
#X obj -116 530 throw~ 2b1;
#X obj -76 548 throw~ 2b2;
#X obj -76 565 throw~ 2b3;
#X obj -76 582 throw~ 2b4;
#X obj 24 532 throw~ 3b1;
#X obj 24 549 throw~ 3b2;
#X obj 24 566 throw~ 3b3;
#X obj 24 583 throw~ 3b4;
#X obj -90 221 throw~ a1;
#X obj -80 254 throw~ a2;
#X obj -76 274 throw~ a3;
#X obj -81 296 throw~ a4;
#X obj 199 44 catch~ a1;
#X obj 243 196 catch~ a2;
#X obj 292 417 catch~ a3;
#X obj 271 311 catch~ a4;
#X obj 103 23 catch~ 3a1;
#X obj 285 336 catch~ 3a2;
#X obj 281 42 catch~ 2b1;
#X obj 263 223 catch~ 2b2;
#X obj 306 451 catch~ 2b3;
#X obj 285 353 catch~ 2b4;
#X obj 241 95 catch~ 3b1;
#X obj 263 240 catch~ 3b2;
#X obj 285 370 catch~ 3b3;
#X obj 306 467 catch~ 3b4;
#X text 9 264 1;
#X text 4 416 2;
#X text -50 604 3;
#X text 33 605 4;
#X obj -157 20 catch~ samp;
#X obj -76 174 *~ 0.5;
#N canvas 226 44 298 319 general_filter 0;
#X obj -135 131 sig~;
#X obj -124 156 random;
#X floatatom -135 108 5 0 0 0 - - -;
#X obj -145 206 vcf~;
#X obj -124 180 / 0.5;
#X obj -135 44 r rhandx;
#X obj -120 64 r l_shoulderx;
#X obj -135 87 -;
#X obj -190 42 inlet~;
#X obj -124 230 outlet~;
#X obj -196 1 cnv 15 180 20 empty empty empty 20 12 0 14 -228856 -66577
0;
#X text -192 2 voltage controlled filter;
#X connect 0 0 3 1;
#X connect 1 0 4 0;
#X connect 2 0 0 0;
#X connect 2 0 1 1;
#X connect 3 1 9 0;
#X connect 4 0 3 2;
#X connect 5 0 7 0;
#X connect 6 0 7 1;
#X connect 7 0 2 0;
#X connect 8 0 3 0;
#X restore 399 487 pd general_filter;
#X obj -157 -43 cnv 15 120 20 empty empty empty 20 12 0 14 -228856
-66577 0;
#X text -150 -42 dsp output;
#X obj 399 87 catch~ samp1a;
#X obj 414 110 catch~ samp4b;
#X obj 399 135 *~;
#X obj 450 538 hsl 128 15 0 0.5 0 0 empty empty empty -2 -8 0 10 -262144
-1 -1 0 1;
#X obj 447 520 r headz;
#X obj 399 536 *~ 0.5;
#N canvas 515 341 709 612 output_mixer 0;
#X obj -164 54 inlet~ dry;
#X obj -165 352 outlet~;
#X obj -58 293 *~;
#X obj 4 294 *~;
#X obj -118 293 *~;
#X obj -165 324 *~;
#X obj -118 324 *~;
#X obj -150 250 * -1;
#X obj -150 272 + 1;
#X obj 111 309 hsl 128 15 0 1 0 1 empty empty dry/wet -2 -6 0 8 -162280
-1 -1 12700 1;
#X obj 110 166 vsl 15 128 0 1 0 1 empty empty BASS 0 -8 0 8 -228856
-1 -1 12700 1;
#X obj 165 166 vsl 15 128 0 1 0 1 empty empty MIDS 0 -8 0 8 -228856
-1 -1 12700 1;
#X obj 224 166 vsl 15 128 0 1 0 1 empty empty HIGHS 0 -8 0 8 -228856
-1 -1 12700 1;
#N canvas 23 90 450 300 biquad 0;
#X obj 44 248 outlet~;
#X obj 42 143 biquad~;
#X obj 43 163 biquad~;
#X obj 43 183 biquad~;
#X obj 12 119 lowpass 370 310;
#X obj 171 143 biquad~;
#X obj 170 163 biquad~;
#X obj 170 184 biquad~;
#X obj 140 120 bandpass 1175 490;
#X obj 282 120 highpass 2350 130;
#X obj 311 143 biquad~;
#X obj 311 163 biquad~;
#X obj 140 34 loadbang;
#X obj 170 248 outlet~;
#X obj 312 248 outlet~;
#X obj 43 34 inlet~ signal;
#X obj 283 61 switch~;
#X obj 283 32 inlet switch;
#X connect 1 0 2 0;
#X connect 2 0 3 0;
#X connect 3 0 0 0;
#X connect 4 0 1 0;
#X connect 4 0 2 0;
#X connect 4 0 3 0;
#X connect 5 0 6 0;
#X connect 6 0 7 0;
#X connect 7 0 13 0;
#X connect 8 0 5 0;
#X connect 8 0 6 0;
#X connect 8 0 7 0;
#X connect 9 0 10 0;
#X connect 9 0 11 0;
#X connect 10 0 11 0;
#X connect 11 0 14 0;
#X connect 12 0 4 0;
#X connect 12 0 8 0;
#X connect 12 0 9 0;
#X connect 15 0 1 0;
#X connect 15 0 5 0;
#X connect 15 0 10 0;
#X connect 17 0 16 0;
#X restore -119 99 pd biquad filter bank;
#X obj 110 125 tgl 15 0 empty empty empty 17 7 0 10 -228856 -1 -1 0
1;
#N canvas 0 22 694 432 biquad 0;
#X obj 76 35 inlet~;
#X obj 77 379 outlet~;
#X obj 203 379 outlet~;
#X obj 345 379 outlet~;
#X obj 76 90 biquad~ 1.86972 -0.872325 0.000650245 0.00130049 0.000650245
;
#X text 195 69 lo x3;
#X obj 76 110 biquad~ 1.86972 -0.872325 0.000650245 0.00130049 0.000650245
;
#X obj 76 130 biquad~ 1.86972 -0.872325 0.000650245 0.00130049 0.000650245
;
#X obj 204 182 biquad~ 1.36591 -0.385279 0.307361 0 -0.307361;
#X text 339 162 mid x3;
#X obj 204 202 biquad~ 1.36591 -0.385279 0.307361 0 -0.307361;
#X obj 204 222 biquad~ 1.36591 -0.385279 0.307361 0 -0.307361;
#X obj 346 273 biquad~ 1.63386 -0.729864 0.840931 -1.68186 0.840931
;
#X text 486 251 hi x2;
#X obj 346 293 biquad~ 1.63386 -0.729864 0.840931 -1.68186 0.840931
;
#X obj 265 64 switch~;
#X obj 265 35 inlet switch;
#X connect 0 0 4 0;
#X connect 0 0 8 0;
#X connect 0 0 12 0;
#X connect 4 0 6 0;
#X connect 6 0 7 0;
#X connect 7 0 1 0;
#X connect 8 0 10 0;
#X connect 10 0 11 0;
#X connect 11 0 2 0;
#X connect 12 0 14 0;
#X connect 14 0 3 0;
#X connect 16 0 15 0;
#X restore -108 124 pd biquad filter bank 2;
#X obj 225 127 tgl 15 0 empty empty empty 17 7 0 10 -128992 -1 -1 0
1;
#X connect 0 0 5 0;
#X connect 0 0 13 0;
#X connect 0 0 15 0;
#X connect 2 0 6 0;
#X connect 3 0 6 0;
#X connect 4 0 6 0;
#X connect 5 0 1 0;
#X connect 6 0 1 0;
#X connect 7 0 8 0;
#X connect 8 0 5 1;
#X connect 9 0 7 0;
#X connect 9 0 6 1;
#X connect 10 0 4 1;
#X connect 11 0 2 1;
#X connect 12 0 3 1;
#X connect 13 0 4 0;
#X connect 13 1 2 0;
#X connect 13 2 3 0;
#X connect 14 0 13 1;
#X connect 15 0 4 0;
#X connect 15 1 2 0;
#X connect 15 2 3 0;
#X connect 16 0 15 1;
#X coords 0 -1 1 1 150 230 1 100 100;
#X restore 399 231 pd output_mixer;
#X obj 641 89 catch~ samp2b;
#X obj 547 610 dac~ 1 2 3 4;
#X obj 692 539 hsl 128 15 0 0.5 0 0 empty empty empty -2 -8 0 10 -262144
-1 -1 0 1;
#X obj 689 521 r headz;
#X obj 641 537 *~ 0.5;
#N canvas 515 341 709 612 output_mixer 0;
#X obj -164 54 inlet~ dry;
#X obj -165 352 outlet~;
#X obj -58 293 *~;
#X obj 4 294 *~;
#X obj -118 293 *~;
#X obj -165 324 *~;
#X obj -118 324 *~;
#X obj -150 250 * -1;
#X obj -150 272 + 1;
#X obj 111 309 hsl 128 15 0 1 0 1 empty empty dry/wet -2 -6 0 8 -162280
-1 -1 12700 1;
#X obj 110 166 vsl 15 128 0 1 0 1 empty empty BASS 0 -8 0 8 -228856
-1 -1 12700 1;
#X obj 165 166 vsl 15 128 0 1 0 1 empty empty MIDS 0 -8 0 8 -228856
-1 -1 12700 1;
#X obj 224 166 vsl 15 128 0 1 0 1 empty empty HIGHS 0 -8 0 8 -228856
-1 -1 12700 1;
#N canvas 23 90 450 300 biquad 0;
#X obj 44 248 outlet~;
#X obj 42 143 biquad~;
#X obj 43 163 biquad~;
#X obj 43 183 biquad~;
#X obj 12 119 lowpass 370 310;
#X obj 171 143 biquad~;
#X obj 170 163 biquad~;
#X obj 170 184 biquad~;
#X obj 140 120 bandpass 1175 490;
#X obj 282 120 highpass 2350 130;
#X obj 311 143 biquad~;
#X obj 311 163 biquad~;
#X obj 140 34 loadbang;
#X obj 170 248 outlet~;
#X obj 312 248 outlet~;
#X obj 43 34 inlet~ signal;
#X obj 283 61 switch~;
#X obj 283 32 inlet switch;
#X connect 1 0 2 0;
#X connect 2 0 3 0;
#X connect 3 0 0 0;
#X connect 4 0 1 0;
#X connect 4 0 2 0;
#X connect 4 0 3 0;
#X connect 5 0 6 0;
#X connect 6 0 7 0;
#X connect 7 0 13 0;
#X connect 8 0 5 0;
#X connect 8 0 6 0;
#X connect 8 0 7 0;
#X connect 9 0 10 0;
#X connect 9 0 11 0;
#X connect 10 0 11 0;
#X connect 11 0 14 0;
#X connect 12 0 4 0;
#X connect 12 0 8 0;
#X connect 12 0 9 0;
#X connect 15 0 1 0;
#X connect 15 0 5 0;
#X connect 15 0 10 0;
#X connect 17 0 16 0;
#X restore -119 99 pd biquad filter bank;
#X obj 110 125 tgl 15 0 empty empty empty 17 7 0 10 -228856 -1 -1 0
1;
#N canvas 0 22 694 432 biquad 0;
#X obj 76 35 inlet~;
#X obj 77 379 outlet~;
#X obj 203 379 outlet~;
#X obj 345 379 outlet~;
#X obj 76 90 biquad~ 1.86972 -0.872325 0.000650245 0.00130049 0.000650245
;
#X text 195 69 lo x3;
#X obj 76 110 biquad~ 1.86972 -0.872325 0.000650245 0.00130049 0.000650245
;
#X obj 76 130 biquad~ 1.86972 -0.872325 0.000650245 0.00130049 0.000650245
;
#X obj 204 182 biquad~ 1.36591 -0.385279 0.307361 0 -0.307361;
#X text 339 162 mid x3;
#X obj 204 202 biquad~ 1.36591 -0.385279 0.307361 0 -0.307361;
#X obj 204 222 biquad~ 1.36591 -0.385279 0.307361 0 -0.307361;
#X obj 346 273 biquad~ 1.63386 -0.729864 0.840931 -1.68186 0.840931
;
#X text 486 251 hi x2;
#X obj 346 293 biquad~ 1.63386 -0.729864 0.840931 -1.68186 0.840931
;
#X obj 265 64 switch~;
#X obj 265 35 inlet switch;
#X connect 0 0 4 0;
#X connect 0 0 8 0;
#X connect 0 0 12 0;
#X connect 4 0 6 0;
#X connect 6 0 7 0;
#X connect 7 0 1 0;
#X connect 8 0 10 0;
#X connect 10 0 11 0;
#X connect 11 0 2 0;
#X connect 12 0 14 0;
#X connect 14 0 3 0;
#X connect 16 0 15 0;
#X restore -108 124 pd biquad filter bank 2;
#X obj 225 127 tgl 15 0 empty empty empty 17 7 0 10 -128992 -1 -1 0
1;
#X connect 0 0 5 0;
#X connect 0 0 13 0;
#X connect 0 0 15 0;
#X connect 2 0 6 0;
#X connect 3 0 6 0;
#X connect 4 0 6 0;
#X connect 5 0 1 0;
#X connect 6 0 1 0;
#X connect 7 0 8 0;
#X connect 8 0 5 1;
#X connect 9 0 7 0;
#X connect 9 0 6 1;
#X connect 10 0 4 1;
#X connect 11 0 2 1;
#X connect 12 0 3 1;
#X connect 13 0 4 0;
#X connect 13 1 2 0;
#X connect 13 2 3 0;
#X connect 14 0 13 1;
#X connect 15 0 4 0;
#X connect 15 1 2 0;
#X connect 15 2 3 0;
#X connect 16 0 15 1;
#X coords 0 -1 1 1 150 230 1 100 100;
#X restore 641 236 pd output_mixer;
#X connect 0 0 6 0;
#X connect 1 0 6 0;
#X connect 2 0 17 0;
#X connect 3 0 19 0;
#X connect 4 0 15 0;
#X connect 5 0 6 1;
#X connect 6 0 50 0;
#X connect 7 0 28 0;
#X connect 7 0 29 0;
#X connect 7 0 30 0;
#X connect 8 0 10 0;
#X connect 8 0 50 1;
#X connect 9 0 8 0;
#X connect 11 0 12 0;
#X connect 13 0 14 0;
#X connect 14 0 20 0;
#X connect 14 0 21 0;
#X connect 14 0 22 0;
#X connect 15 0 16 0;
#X connect 16 0 23 0;
#X connect 16 0 24 0;
#X connect 16 0 25 0;
#X connect 16 0 26 0;
#X connect 49 0 50 0;
#X connect 49 0 27 0;
#X connect 50 0 28 0;
#X connect 50 0 29 0;
#X connect 50 0 30 0;
#X connect 51 0 59 0;
#X connect 54 0 56 0;
#X connect 55 0 56 1;
#X connect 56 0 60 0;
#X connect 57 0 59 1;
#X connect 58 0 57 0;
#X connect 59 0 62 0;
#X connect 59 0 62 1;
#X connect 59 0 62 2;
#X connect 59 0 62 3;
#X connect 60 0 51 0;
#X connect 61 0 66 0;
#X connect 63 0 65 1;
#X connect 64 0 63 0;
#X connect 65 0 62 0;
#X connect 65 0 62 1;
#X connect 65 0 62 2;
#X connect 65 0 62 3;
#X connect 66 0 65 0;
#X restore 403 -83 pd output3;
#X obj 403 -153 1st_bang;
