#N canvas 419 35 627 630 10;
#X obj 311 356 metro 580;
#X obj 339 378 delay 120;
#X msg 339 399 0;
#X obj 265 420 noise~;
#X obj 295 443 *~;
#X msg 310 399 1;
#X msg 221 399 0;
#X obj 177 443 *~;
#X msg 192 399 1;
#X obj 193 356 metro 700;
#X obj 221 378 delay 200;
#X obj 133 420 osc~ 400;
#X obj 177 471 freeverb~;
#X obj 194 497 dac~;
#X obj 245 313 tgl 30 0 empty empty start 1 15 1 12 -90049 -1 -1 0
1;
#X connect 0 0 1 0;
#X connect 0 0 5 0;
#X connect 1 0 2 0;
#X connect 2 0 4 1;
#X connect 3 0 4 0;
#X connect 4 0 12 1;
#X connect 5 0 4 1;
#X connect 6 0 7 1;
#X connect 7 0 12 0;
#X connect 8 0 7 1;
#X connect 9 0 8 0;
#X connect 9 0 10 0;
#X connect 10 0 6 0;
#X connect 11 0 7 0;
#X connect 12 0 13 0;
#X connect 12 1 13 1;
#X connect 14 0 9 0;
#X connect 14 0 0 0;
