#N canvas 459 239 1066 642 10;
#X obj 82 110 *~ 0.3;
#X obj 103 155 s~ \$0-d;
#X obj 305 644 osc~ 50;
#X obj 18 71 r~ \$0-fb;
#X obj 68 224 +~;
#X obj 82 283 delwrite~ \$0-a1 100;
#X obj 67 313 delwrite~ \$0-a2 100;
#X obj 520 57 hsl 128 15 0 127 0 0 empty empty empty -2 -8 0 10 -262144
-1 -1 500 1;
#X obj 311 59 hsl 128 15 0 127 0 0 empty empty empty -2 -8 0 10 -262144
-1 -1 3100 1;
#X obj 696 57 hsl 128 15 0 127 0 0 empty empty empty -2 -8 0 10 -262144
-1 -1 2000 1;
#X obj 308 122 * 0.4;
#X obj 310 384 *~;
#X obj 310 418 s~ \$0-fb;
#X obj 517 96 * 5;
#X obj 517 126 + 1;
#X obj 516 157 osc~;
#X obj 411 163 osc~;
#X obj 411 193 *~;
#X obj 516 189 *~;
#X obj 411 221 +~;
#X obj 516 219 +~;
#X obj 517 296 *~ 1;
#X obj 411 247 vd~ \$0-a1;
#X obj 517 247 vd~ \$0-a1;
#X obj 692 93 * 2;
#X obj 630 287 r~ \$0-d;
#X obj 82 73 osc~ 50;
#X obj 307 91 clip -1 1;
#X obj 92 36 hsl 128 15 0 127 0 0 empty empty empty -2 -8 0 10 -262144
-1 -1 12700 1;
#X msg 948 426 0;
#X obj 904 470 *~;
#X msg 919 426 1;
#X msg 830 426 0;
#X obj 786 470 *~;
#X msg 801 426 1;
#X obj 802 383 metro 700;
#X obj 786 498 freeverb~;
#X obj 633 608 dac~;
#X obj 854 340 tgl 30 0 empty empty start 1 15 1 12 -90049 -1 -1 0
1;
#X obj 920 383 metro 100;
#X obj 830 405 delay 50;
#X obj 948 405 delay 10;
#X obj 429 518 *~;
#X obj 479 520 *~;
#X obj 538 442 * -1;
#X obj 535 476 + 1;
#X obj 542 399 hsl 128 15 0 1 0 0 empty empty empty -2 -8 0 10 -262144
-1 -1 0 1;
#X connect 0 0 1 0;
#X connect 0 0 4 1;
#X connect 3 0 4 0;
#X connect 4 0 5 0;
#X connect 4 0 6 0;
#X connect 7 0 13 0;
#X connect 8 0 27 0;
#X connect 9 0 24 0;
#X connect 10 0 11 0;
#X connect 11 0 12 0;
#X connect 13 0 14 0;
#X connect 13 0 16 0;
#X connect 14 0 15 0;
#X connect 15 0 18 0;
#X connect 16 0 17 0;
#X connect 17 0 19 0;
#X connect 18 0 20 0;
#X connect 19 0 22 0;
#X connect 20 0 23 0;
#X connect 21 0 11 1;
#X connect 21 0 33 0;
#X connect 22 0 21 0;
#X connect 23 0 21 0;
#X connect 24 0 17 1;
#X connect 24 0 19 1;
#X connect 24 0 18 1;
#X connect 24 0 20 1;
#X connect 25 0 30 0;
#X connect 26 0 0 0;
#X connect 27 0 10 0;
#X connect 28 0 26 0;
#X connect 29 0 30 1;
#X connect 31 0 30 1;
#X connect 32 0 33 1;
#X connect 33 0 36 0;
#X connect 34 0 33 1;
#X connect 35 0 34 0;
#X connect 35 0 40 0;
#X connect 36 0 42 0;
#X connect 36 1 43 0;
#X connect 38 0 35 0;
#X connect 38 0 39 0;
#X connect 39 0 31 0;
#X connect 39 0 41 0;
#X connect 40 0 32 0;
#X connect 41 0 29 0;
#X connect 42 0 37 0;
#X connect 43 0 37 1;
#X connect 44 0 45 0;
#X connect 45 0 42 1;
#X connect 46 0 44 0;
#X connect 46 0 43 1;
