#N canvas 0 22 373 273 10;
#X obj 20 20 tgl 30 0 empty empty empty 17 7 0 10 -260097 -1 -1 0 1
;
#X obj 20 90 unpack f f f f;
#X floatatom 20 243 5 0 0 0 - - -;
#X floatatom 47 201 5 0 0 0 - - -;
#X floatatom 74 156 5 0 0 0 - - -;
#X floatatom 101 114 5 0 0 0 - - -;
#X obj 20 65 r r_shoulder;
#X obj 101 135 s r_shoulderz;
#X obj 74 178 s r_shouldery;
#X obj 47 222 s r_shoulderx;
#X obj 188 90 unpack f f f f;
#X floatatom 188 243 5 0 0 0 - - -;
#X floatatom 215 201 5 0 0 0 - - -;
#X floatatom 242 156 5 0 0 0 - - -;
#X floatatom 269 114 5 0 0 0 - - -;
#X obj 269 135 s r_shoulderz2;
#X obj 243 178 s r_shouldery2;
#X obj 215 222 s r_shoulderx2;
#X obj 188 65 r r_shoulder2;
#X connect 1 0 2 0;
#X connect 1 1 3 0;
#X connect 1 2 4 0;
#X connect 1 3 5 0;
#X connect 3 0 9 0;
#X connect 4 0 8 0;
#X connect 5 0 7 0;
#X connect 6 0 1 0;
#X connect 10 0 11 0;
#X connect 10 1 12 0;
#X connect 10 2 13 0;
#X connect 10 3 14 0;
#X connect 12 0 17 0;
#X connect 13 0 16 0;
#X connect 14 0 15 0;
#X connect 18 0 10 0;
#X coords 0 -1 1 1 30 30 2 20 20;
