#N canvas 60 69 775 290 10;
#X obj 176 10 cnv 15 290 30 empty empty empty 20 12 0 14 -260097 -66577
0;
#X obj 145 10 tgl 30 0 empty empty empty 17 7 0 10 -260097 -1 -1 0
1;
#X obj 467 10 tgl 30 0 empty empty empty 17 7 0 10 -260097 -1 -1 0
1;
#X obj -24 96 unpack f f f f;
#X floatatom -24 249 5 0 0 0 - - -;
#X floatatom 3 207 5 0 0 0 - - -;
#X floatatom 30 162 5 0 0 0 - - -;
#X floatatom 57 120 5 0 0 0 - - -;
#X obj -24 71 r l_shoulder;
#X obj 3 228 s l_shoulderx;
#X obj 30 184 s l_shouldery;
#X obj 57 141 s l_shoulderz;
#X obj 142 97 unpack f f f f;
#X floatatom 142 250 5 0 0 0 - - -;
#X floatatom 169 208 5 0 0 0 - - -;
#X floatatom 196 163 5 0 0 0 - - -;
#X floatatom 223 121 5 0 0 0 - - -;
#X obj 142 72 r l_shoulder2;
#X obj 223 142 s l_shoulderz2;
#X obj 196 185 s l_shouldery2;
#X obj 169 229 s l_shoulderx2;
#X obj 403 94 unpack f f f f;
#X floatatom 403 247 5 0 0 0 - - -;
#X floatatom 430 205 5 0 0 0 - - -;
#X floatatom 457 160 5 0 0 0 - - -;
#X floatatom 484 118 5 0 0 0 - - -;
#X obj 403 69 r r_shoulder;
#X obj 484 139 s r_shoulderz;
#X obj 457 182 s r_shouldery;
#X obj 430 226 s r_shoulderx;
#X obj 571 94 unpack f f f f;
#X floatatom 571 247 5 0 0 0 - - -;
#X floatatom 598 205 5 0 0 0 - - -;
#X floatatom 625 160 5 0 0 0 - - -;
#X floatatom 652 118 5 0 0 0 - - -;
#X obj 571 69 r r_shoulder;
#X obj 652 139 s r_shoulderz2;
#X obj 626 182 s r_shouldery2;
#X obj 598 226 s r_shoulderx2;
#X connect 3 0 4 0;
#X connect 3 1 5 0;
#X connect 3 2 6 0;
#X connect 3 3 7 0;
#X connect 5 0 9 0;
#X connect 6 0 10 0;
#X connect 7 0 11 0;
#X connect 8 0 3 0;
#X connect 12 0 13 0;
#X connect 12 1 14 0;
#X connect 12 2 15 0;
#X connect 12 3 16 0;
#X connect 14 0 20 0;
#X connect 15 0 19 0;
#X connect 16 0 18 0;
#X connect 17 0 12 0;
#X connect 21 0 22 0;
#X connect 21 1 23 0;
#X connect 21 2 24 0;
#X connect 21 3 25 0;
#X connect 23 0 29 0;
#X connect 24 0 28 0;
#X connect 25 0 27 0;
#X connect 26 0 21 0;
#X connect 30 0 31 0;
#X connect 30 1 32 0;
#X connect 30 2 33 0;
#X connect 30 3 34 0;
#X connect 32 0 38 0;
#X connect 33 0 37 0;
#X connect 34 0 36 0;
#X connect 35 0 30 0;
#X coords 0 -1 1 1 352 30 2 145 10;
