#N canvas 400 122 644 327 10;
#X obj 90 29 *~;
#X obj 89 173 vu 15 120 empty empty -1 -8 0 10 -66577 -1 1 0;
#X floatatom 88 107 5 0 0 0 - - -;
#X obj 87 126 - 100;
#X obj 30 152 timer;
#X obj 30 127 t b b;
#X floatatom 30 177 5 0 0 0 - - -;
#X obj 88 75 env~;
#X obj 195 143 max;
#X floatatom 194 185 5 0 0 0 - - -;
#X obj 223 143 - 0.05;
#X text 297 103 [expr~ abs($v1)>1] | [edge~] | [bng] <-- will bang
when out of -1 to 1 range;
#X text 92 140 rms db;
#X text 136 162 peak db;
#X text 32 62 audio in;
#X connect 0 0 7 0;
#X connect 2 0 3 0;
#X connect 3 0 5 0;
#X connect 3 0 8 0;
#X connect 3 0 1 0;
#X connect 4 0 6 0;
#X connect 5 0 4 0;
#X connect 5 1 4 1;
#X connect 7 0 2 0;
#X connect 8 0 1 1;
#X connect 8 0 9 0;
#X connect 8 0 10 0;
#X connect 10 0 8 1;
